<svg width="30" height="30" fill="none" xmlns="http://www.w3.org/2000/svg"><g clip-path="url(#clip0_94_464)"><path d="M12.432 22.054a.44.44 0 01.307-.541 8.372 8.372 0 012.232-.302 8.3 8.3 0 015.451 2.026l.098-.114a7.561 7.561 0 00-.11-.094 7.29 7.29 0 001.881-4.894v-8.028c0-1.518-.807-2.905-2.131-3.918-1.325-1.013-3.16-1.644-5.19-1.644-2.029 0-3.864.631-5.188 1.644-1.325 1.013-2.132 2.4-2.132 3.918v8.028a7.29 7.29 0 001.883 4.895 8.52 8.52 0 011.413-.957h0a.59.59 0 01.798.24m.688-.26l-.82.331m.82-.33a.44.44 0 00.541.306l-.54-.306zm-.688.259l-.132.071m.132-.071s0 0 0 0l-.132.071m.132-.071a.59.59 0 01-.24.798m.108-.727a.44.44 0 01-.178.595m.07.132s0 0 0 0l-.07-.132m.07.132l-.07-.132m.07.132l-.07-.132M23.47 7.31a11.123 11.123 0 012.637 7.193v15.059a.59.59 0 11-1.179 0v-15.06a9.94 9.94 0 00-1.458-5.186v8.819c0 2.383-.986 4.54-2.57 6.084a.548.548 0 01-.033.037M23.47 7.308L9.183 24.152M23.47 7.308v-.716c0-1.835-.91-3.545-2.544-4.816C19.326.532 17.21-.15 14.97-.15s-4.356.682-5.955 1.926C7.38 3.047 6.47 4.756 6.47 6.592v.716h17zm-2.603 16.948a.56.56 0 01-.07.06 8.469 8.469 0 01-5.826 2.318 8.47 8.47 0 01-5.828-2.317.586.586 0 01-.07-.062m11.794 0v.002l-.108-.105.108.103s0 0 0 0zm-11.793 0l.109-.103m-.11.103h.001l.109-.103m-.11.103a.563.563 0 01-.03-.036m.14-.067a.435.435 0 01-.03-.034m-.11.101a.43.43 0 00.006.007l.105-.108m-.112.101a.322.322 0 01-.007-.009l.119-.092m-.112.101l.112-.1m1.124-.176a6.796 6.796 0 01-.118-.097l.118-.098.118.098c-.04.032-.08.064-.118.097zm9.386-.195l.117.097a7.859 7.859 0 01-.117.098 7.268 7.268 0 00-.119-.098l.119-.097zM6.47 9.033c.049-.076.099-.151.15-.226v.27a9.943 9.943 0 00-.15.239v-.283zm8.5-8.004c2.03 0 3.864.631 5.189 1.644 1.324 1.013 2.131 2.4 2.131 3.919v.078c-.373-.5-.83-.962-1.365-1.378-1.6-1.245-3.716-1.926-5.955-1.926-2.24 0-4.356.681-5.955 1.926A7.254 7.254 0 007.65 6.67v-.078c0-1.519.807-2.906 2.132-3.919 1.324-1.013 3.16-1.644 5.189-1.644z" fill="#F6C478" stroke="#F6C478" stroke-width=".3"/></g><defs><clipPath id="clip0_94_464"><path fill="#fff" d="M0 0h30v30H0z"/></clipPath></defs></svg>