<svg width="30" height="30" fill="none" xmlns="http://www.w3.org/2000/svg"><path d="M6.485 17.666l.001-.002h0l3.512-3.492m-3.513 3.494l4.06-3.62c-.178 0-.35.07-.477.197l-.07-.071m-3.513 3.494a.144.144 0 01-.092.048.16.16 0 01-.074-.012.17.17 0 01-.065-.046.161.161 0 01-.035-.11v-2.824a.776.776 0 00-.777-.777h-.941a2.05 2.05 0 01-2.048-2.047V4.365A2.05 2.05 0 014.5 2.317h11.298c.546 0 1.06.213 1.447.6v.001c.388.387.601.9.601 1.447v7.532a2.05 2.05 0 01-2.048 2.048h-5.353v.007m-3.961 3.714l3.96-3.714m-.447.22h0m0 0s0 0 0 0m0 0l.447-.22m-.447.22a.777.777 0 01.447-.22m7.9-12.132h0A3.58 3.58 0 0015.8.764H4.5A3.605 3.605 0 00.9 4.365v7.533a3.605 3.605 0 003.6 3.6h.165v2.049a1.712 1.712 0 001.714 1.72c.45 0 .89-.178 1.212-.51v-.001l3.004-2.988v6.097c0 1.986 1.617 3.6 3.605 3.6h4.93l3.268 3.251s0 0 0 0a1.702 1.702 0 001.866.394 1.71 1.71 0 001.07-1.593v-2.052h.16a3.607 3.607 0 003.606-3.6v-7.533c0-1.985-1.617-3.6-3.605-3.6H19.4V4.365a3.58 3.58 0 00-1.056-2.545zm5.159 25.807l-.001-.001-3.505-3.487h0a.777.777 0 00-.547-.226H14.2a2.052 2.052 0 01-2.052-2.047v-6.367h3.65a3.604 3.604 0 003.578-3.213h6.118c1.132 0 2.052.918 2.052 2.047v7.575a2.052 2.052 0 01-2.051 2.005h-.938a.777.777 0 00-.777.776v2.828a.158.158 0 01-.034.108.169.169 0 01-.065.046.16.16 0 01-.075.012.165.165 0 01-.102-.056z" fill="#F6C478" stroke="#F6C478" stroke-width=".2"/><path d="M15.659 17.005a1.1 1.1 0 00-1.098 1.098 1.1 1.1 0 001.098 1.098 1.1 1.1 0 001.099-1.098 1.1 1.1 0 00-1.1-1.098zm4.188 0a1.1 1.1 0 00-1.098 1.098 1.1 1.1 0 001.098 1.098 1.1 1.1 0 001.1-1.098 1.1 1.1 0 00-1.1-1.098zm4.189 0a1.1 1.1 0 00-1.098 1.098 1.1 1.1 0 001.098 1.098 1.1 1.1 0 001.1-1.098 1.1 1.1 0 00-1.1-1.098zM9.927 10.311a.815.815 0 00-.808.817c0 .433.349.817.808.817a.823.823 0 00.816-.817.823.823 0 00-.816-.817zm.052-2.823h0a5.867 5.867 0 01.3-.236c.104-.081.208-.165.3-.257.185-.183.313-.386.313-.636a.534.534 0 00-.237-.464c-.15-.105-.369-.161-.623-.161-.259 0-.43.049-.553.116a.823.823 0 00-.272.253 3.238 3.238 0 00-.103.15c-.035.049-.072.1-.117.144a.51.51 0 01-.384.158.795.795 0 01-.49-.17.67.67 0 01-.25-.538c0-.648.725-1.53 2.201-1.53 1.398 0 2.373.782 2.372 1.86L9.979 7.488zm0 0h-.001m0 0h0m0 0c-.16.138-.348.323-.496.595m.496-.594l-.496.594m0 0c-.149.273-.254.629-.254 1.103m.254-1.103l-.254 1.103m0 0c0 .28.036.491.153.63m-.153-.63l.153.63m0 0c.122.144.308.185.534.185m-.534-.185l.534.185m0 0c.274 0 .46-.062.578-.17m-.578.17l.578-.17m0 0a.48.48 0 00.151-.368m-.15.369l.15-.369m0 0c0-.28.004-.481.073-.668m-.073.668l.073-.668m0 0c.067-.183.202-.364.486-.586m-.486.586l.486-.586m0 0a4.15 4.15 0 00.722-.702c.27-.344.511-.797.511-1.33L11.203 8.21z" fill="#F6C478" stroke="#F6C478" stroke-width=".2"/></svg>