<svg width="30" height="30" fill="none" xmlns="http://www.w3.org/2000/svg"><g clip-path="url(#clip0_94_456)" fill="#F6C478" stroke="#F6C478" stroke-width=".2"><path d="M18-.1h-6a.6.6 0 00-.6.6v14.4H8.5a1.6 1.6 0 00-1.6 1.6v12a1.6 1.6 0 001.6 1.6h13a1.6 1.6 0 001.6-1.6v-12a1.6 1.6 0 00-1.6-1.6h-2.9V.5a.6.6 0 00-.6-.6zm-5.4 1.2h4.8v13.8h-4.8V1.1zm9.3 15.4v12a.4.4 0 01-.4.4h-13a.4.4 0 01-.4-.4v-12c0-.22.18-.4.4-.4h13c.22 0 .4.18.4.4z"/><path d="M8.903 17.56h0a.601.601 0 01.597-.66h11v.1a.5.5 0 01.372.164l-11.97.396zm0 0l.91 9.1m-.91-9.1l.91 9.1m0 0s0 0 0 0c.08.819.77 1.442 1.592 1.44m-1.592-1.44l1.592 1.44m0 0s0 0 0 0h0zm7.19 0a1.595 1.595 0 001.592-1.44s0 0 0 0l-1.592 1.44zm-4.687-6.199h0l-.5 3s0 0 0 0A.6.6 0 0014 25.6h2a.6.6 0 00.591-.699s0 0 0 0l-.5-3h0a.6.6 0 00-.491-.493V18.1h4.24l-.845 8.44a.4.4 0 01-.4.36h0-7.19a.4.4 0 01-.398-.36s0 0 0 0l-.844-8.44H14.4v3.308a.6.6 0 00-.492.493zM18.595 27h-7.19a.5.5 0 01-.497-.45l7.687.45zm-3.886-2.6L15 22.65l.291 1.75h-.582z"/></g><defs><clipPath id="clip0_94_456"><path fill="#fff" d="M0 0h30v30H0z"/></clipPath></defs></svg>