<svg width="30" height="30" fill="none" xmlns="http://www.w3.org/2000/svg"><path d="M7.347 21.414v0a.59.59 0 00-1.18 0v.923a.59.59 0 001.18 0v-.923zM9.945 5.773h0l.001-.001.001-.003.003-.008a.66.66 0 011.229.001l-.14.056.14-.056.005.014 1.203 3.185h0a.59.59 0 01-.344.76M9.945 5.773L11.99 9.58M9.945 5.773h0L8.731 8.96l1.214-3.186zm2.098 3.948l-.053-.14m.053.14s0 0 0 0l-.053-.14m.053.14a.588.588 0 01-.76-.343l.14-.053a.44.44 0 00.567.256m-.862-.614l.155.41-1.396-.56m1.241.15h.104v-.15l-.14.053.036.097zm0 0H9.99m0 0l.037-.097-.14-.053m.103.15l-.157.412m.157-.412h-.103v-.15m0 0l-.054.562m0 0l-.14-.053.14.053a.59.59 0 01-.76.341h-.001l.053-.14a.44.44 0 01-.254-.567l.962.366zm.85-1.592h-.243l.122-.32.121.32zM22.99 9.174V7.831l1.112 1.612h0l.001.001.003.004h0l.002.003c.165.23.445.334.712.248h0c.274-.088.442-.343.442-.637v-.001l-.03-3.133h0a.59.59 0 00-.595-.584h0a.59.59 0 00-.584.595s0 0 0 0l.013 1.375-1.18-1.71h0a.59.59 0 00-.661-.228h0a.59.59 0 00-.415.563v3.235a.59.59 0 001.18 0zm-7.803-.596h.003a.59.59 0 01.59.586h0a.59.59 0 01-.586.593l-.795.003c-.358 0-.398-.003-.45-.013l1.238-1.169zm0 0l-.538.002m.538-.002l-.538.002m0 0V5.937a.59.59 0 10-1.18 0v3.23a.59.59 0 00.48.58l.7-1.167zM7.7 5.82h0a.59.59 0 01.07.83m-.07-.83l-.755.907h0v-.001a.59.59 0 00.825-.075M7.7 5.82a2.187 2.187 0 00-.552-.32 1.886 1.886 0 00-1.263-.076h0m1.814.396l-1.814-.396M7.77 6.651l-.114-.097.114.097s0 0 0 0zM5.885 5.424c-.511.154-.881.562-.954 1.07h0m.954-1.07l-.954 1.07m0 0c-.068.477.14.937.542 1.198l.082-.126-.082.126a.581.581 0 00.08.044c.02.009.47.21.978.397h0m-1.6-1.639l1.6 1.639m0 0a.945.945 0 01.217.112c.083.061.091.101.088.12h0m-.305-.232l.305.232m0 0c-.013.073-.136.215-.382.215m.382-.215l-.382.215m0 0a.94.94 0 01-.69-.285m.69.285l-.69-.285m0 0a.59.59 0 00-.832-.04l.832.04zm1.117-1.612c.037.022.059.04.063.043L4.932 8.254a.59.59 0 00-.04.833h0c.388.429.959.672 1.562.672.759 0 1.418-.488 1.543-1.187a1.241 1.241 0 00-.155-.85c-.167-.283-.458-.532-.903-.695a16.7 16.7 0 01-.838-.338.032.032 0 01-.002-.006.063.063 0 010-.023l-.149-.02.149.02a.095.095 0 01.019-.042c.013-.017.041-.045.107-.065l-.043-.143.043.143a.73.73 0 01.488.042c.069.029.127.062.168.088zm11.75 3.076c1.217 0 2.206-.99 2.206-2.206s-.99-2.206-2.206-2.206-2.205.99-2.205 2.206.989 2.206 2.205 2.206zm0-3.232c.566 0 1.027.46 1.027 1.026a1.028 1.028 0 01-2.053 0c0-.566.46-1.026 1.026-1.026z" fill="#F6C478" stroke="#F6C478" stroke-width=".3"/><mask id="a" maskUnits="userSpaceOnUse" x="-1" y="-.796" width="32" height="31" fill="#000"><path fill="#fff" d="M-1-.796h32v31H-1z"/><path d="M28.452 15.557v-3.551h.547c.552 0 1.001-.45 1.001-1.001V4.103c0-.552-.45-1-1.001-1h-1.81L26.134.75c-.072-.163-.241-.546-.686-.546H4.552c-.445 0-.614.383-.685.544L2.81 3.102H1c-.551 0-1 .45-1 1.001v6.902c0 .552.45 1 1.001 1h.547v14.292a1.76 1.76 0 00-1.513 1.74v1.02a.74.74 0 00.738.74h28.453a.739.739 0 00.737-.74v-1.02a1.76 1.76 0 00-1.511-1.74v-10.74zM4.67 1.105l.01-.022h20.64c.004.009.008.017.01.025l.896 1.994H3.774l.896-1.997zm11.25 10.9h11.653v3.113h-10.88c-.436 0-.791.317-.791.707v6.245c0 .396.347.707.791.707h10.88v3.502h-6.116a.44.44 0 100 .88h6.75a.88.88 0 01.877.879v.879H.914v-.88a.88.88 0 01.88-.878h17.632a.44.44 0 000-.88H13.13V16.174c0-.583-.474-1.056-1.056-1.056H5.33c-.581 0-1.054.473-1.054 1.056v10.105H2.427V12.006h11.464a.44.44 0 100-.88H1.001a.123.123 0 01-.122-.121V9.999h.866a.44.44 0 100-.88H.879V7.994h.866a.44.44 0 100-.88H.88V5.988h.866a.44.44 0 100-.88H.88V4.104c0-.066.056-.122.122-.122H29c.066 0 .122.056.122.122V5.11h-.868a.44.44 0 100 .879h.868v1.125h-.868a.44.44 0 100 .88h.868V9.12h-.868a.44.44 0 100 .88h.868v1.005a.123.123 0 01-.122.121H15.92a.44.44 0 100 .88zm11.653 3.992v5.9H16.78v-5.9h10.792zM5.154 26.279V16.174c0-.096.08-.177.175-.177h6.745c.096 0 .177.08.177.177v10.105H5.154z"/></mask><path d="M28.452 15.557v-3.551h.547c.552 0 1.001-.45 1.001-1.001V4.103c0-.552-.45-1-1.001-1h-1.81L26.134.75c-.072-.163-.241-.546-.686-.546H4.552c-.445 0-.614.383-.685.544L2.81 3.102H1c-.551 0-1 .45-1 1.001v6.902c0 .552.45 1 1.001 1h.547v14.292a1.76 1.76 0 00-1.513 1.74v1.02a.74.74 0 00.738.74h28.453a.739.739 0 00.737-.74v-1.02a1.76 1.76 0 00-1.511-1.74v-10.74zM4.67 1.105l.01-.022h20.64c.004.009.008.017.01.025l.896 1.994H3.774l.896-1.997zm11.25 10.9h11.653v3.113h-10.88c-.436 0-.791.317-.791.707v6.245c0 .396.347.707.791.707h10.88v3.502h-6.116a.44.44 0 100 .88h6.75a.88.88 0 01.877.879v.879H.914v-.88a.88.88 0 01.88-.878h17.632a.44.44 0 000-.88H13.13V16.174c0-.583-.474-1.056-1.056-1.056H5.33c-.581 0-1.054.473-1.054 1.056v10.105H2.427V12.006h11.464a.44.44 0 100-.88H1.001a.123.123 0 01-.122-.121V9.999h.866a.44.44 0 100-.88H.879V7.994h.866a.44.44 0 100-.88H.88V5.988h.866a.44.44 0 100-.88H.88V4.104c0-.066.056-.122.122-.122H29c.066 0 .122.056.122.122V5.11h-.868a.44.44 0 100 .879h.868v1.125h-.868a.44.44 0 100 .88h.868V9.12h-.868a.44.44 0 100 .88h.868v1.005a.123.123 0 01-.122.121H15.92a.44.44 0 100 .88zm11.653 3.992v5.9H16.78v-5.9h10.792zM5.154 26.279V16.174c0-.096.08-.177.175-.177h6.745c.096 0 .177.08.177.177v10.105H5.154z" fill="#F6C478"/><path d="M28.452 15.557v-3.551h.547c.552 0 1.001-.45 1.001-1.001V4.103c0-.552-.45-1-1.001-1h-1.81L26.134.75c-.072-.163-.241-.546-.686-.546H4.552c-.445 0-.614.383-.685.544L2.81 3.102H1c-.551 0-1 .45-1 1.001v6.902c0 .552.45 1 1.001 1h.547v14.292a1.76 1.76 0 00-1.513 1.74v1.02a.74.74 0 00.738.74h28.453a.739.739 0 00.737-.74v-1.02a1.76 1.76 0 00-1.511-1.74v-10.74h0zM4.67 1.105l.01-.022h20.64c.004.009.008.017.01.025l.896 1.994H3.774l.896-1.997zm11.25 10.9h11.653v3.113h-10.88c-.436 0-.791.317-.791.707v6.245c0 .396.347.707.791.707h10.88v3.502h-6.116a.44.44 0 100 .88h6.75a.88.88 0 01.877.879v.879H.914v-.88a.88.88 0 01.88-.878h17.632a.44.44 0 000-.88H13.13V16.174c0-.583-.474-1.056-1.056-1.056H5.33c-.581 0-1.054.473-1.054 1.056v10.105H2.427V12.006h11.464a.44.44 0 100-.88H1.001a.123.123 0 01-.122-.121V9.999h.866a.44.44 0 100-.88H.879V7.994h.866a.44.44 0 100-.88H.88V5.988h.866a.44.44 0 100-.88H.88V4.104c0-.066.056-.122.122-.122H29c.066 0 .122.056.122.122V5.11h-.868a.44.44 0 100 .879h.868v1.125h-.868a.44.44 0 100 .88h.868V9.12h-.868a.44.44 0 100 .88h.868v1.005a.123.123 0 01-.122.121H15.92a.44.44 0 100 .88zm11.653 3.992v5.9H16.78v-5.9h10.792zM5.154 26.279V16.174c0-.096.08-.177.175-.177h6.745c.096 0 .177.08.177.177v10.105H5.154z" stroke="#F6C478" stroke-width=".6" mask="url(#a)"/></svg>