<svg width="30" height="30" fill="none" xmlns="http://www.w3.org/2000/svg"><mask id="a" maskUnits="userSpaceOnUse" x="-.531" y="-.548" width="31" height="31" fill="#000"><path fill="#fff" d="M-.531-.548h31v31h-31z"/><path d="M29.063 7.031h-5.625V4.687a.469.469 0 00-.47-.468V.937a.47.47 0 00-.616-.444l-2.813.938a.469.469 0 00-.32.444v2.344a.469.469 0 00-.469.468v2.344h-1.606a5.157 5.157 0 10-9.913 0H.938a.469.469 0 00-.47.469v6.563a.469.469 0 00.47.468h.468V26.72H.938a.469.469 0 00-.47.468v1.875a.469.469 0 00.47.47h28.125a.47.47 0 00.468-.47v-1.875a.469.469 0 00-.468-.468h-.47V14.53h.47a.47.47 0 00.468-.469V7.5a.469.469 0 00-.468-.469zM22.5 5.156v3.75h-2.813v-3.75H22.5zm-2.813 4.688H22.5v1.875h-2.813V9.844zm.47-7.631l1.874-.625v2.63h-1.875V2.214zm-7.97-.807a4.223 4.223 0 013.807 6.04 4.18 4.18 0 01-1.164 1.46H9.545A4.18 4.18 0 017.97 5.625a4.223 4.223 0 014.218-4.219zm4.22 8.438a.469.469 0 01.468.469 1.406 1.406 0 01-1.406 1.406H8.906A1.406 1.406 0 017.5 10.313a.469.469 0 01.469-.47h8.437zm12.187 18.75H1.406v-.938h27.188v.938zM10.78 26.719H5.156V16.406h5.625V26.72zm16.875 0H11.72V15.937a.469.469 0 00-.469-.468H4.687a.469.469 0 00-.468.469v10.78H2.344V14.532h25.312V26.72zm.938-13.125H1.406V7.969h6.188c.17.334.376.648.616.937h-.241a1.406 1.406 0 00-1.407 1.406 2.347 2.347 0 002.344 2.344h6.563a2.346 2.346 0 002.344-2.344 1.406 1.406 0 00-1.407-1.406h-.239a5.07 5.07 0 00.614-.937h1.969v4.218a.469.469 0 00.469.47h3.75a.469.469 0 00.468-.47V7.97h5.157v5.625z"/></mask><path d="M29.063 7.031h-5.625V4.687a.469.469 0 00-.47-.468V.937a.47.47 0 00-.616-.444l-2.813.938a.469.469 0 00-.32.444v2.344a.469.469 0 00-.469.468v2.344h-1.606a5.157 5.157 0 10-9.913 0H.938a.469.469 0 00-.47.469v6.563a.469.469 0 00.47.468h.468V26.72H.938a.469.469 0 00-.47.468v1.875a.469.469 0 00.47.47h28.125a.47.47 0 00.468-.47v-1.875a.469.469 0 00-.468-.468h-.47V14.53h.47a.47.47 0 00.468-.469V7.5a.469.469 0 00-.468-.469zM22.5 5.156v3.75h-2.813v-3.75H22.5zm-2.813 4.688H22.5v1.875h-2.813V9.844zm.47-7.631l1.874-.625v2.63h-1.875V2.214zm-7.97-.807a4.223 4.223 0 013.807 6.04 4.18 4.18 0 01-1.164 1.46H9.545A4.18 4.18 0 017.97 5.625a4.223 4.223 0 014.218-4.219zm4.22 8.438a.469.469 0 01.468.469 1.406 1.406 0 01-1.406 1.406H8.906A1.406 1.406 0 017.5 10.313a.469.469 0 01.469-.47h8.437zm12.187 18.75H1.406v-.938h27.188v.938zM10.78 26.719H5.156V16.406h5.625V26.72zm16.875 0H11.72V15.937a.469.469 0 00-.469-.468H4.687a.469.469 0 00-.468.469v10.78H2.344V14.532h25.312V26.72zm.938-13.125H1.406V7.969h6.188c.17.334.376.648.616.937h-.241a1.406 1.406 0 00-1.407 1.406 2.347 2.347 0 002.344 2.344h6.563a2.346 2.346 0 002.344-2.344 1.406 1.406 0 00-1.407-1.406h-.239a5.07 5.07 0 00.614-.937h1.969v4.218a.469.469 0 00.469.47h3.75a.469.469 0 00.468-.47V7.97h5.157v5.625z" fill="#F6C478"/><path d="M29.063 7.031h-5.625V4.687a.469.469 0 00-.47-.468V.937a.47.47 0 00-.616-.444l-2.813.938a.469.469 0 00-.32.444v2.344a.469.469 0 00-.469.468v2.344h-1.606a5.157 5.157 0 10-9.913 0H.938a.469.469 0 00-.47.469v6.563a.469.469 0 00.47.468h.468V26.72H.938a.469.469 0 00-.47.468v1.875a.469.469 0 00.47.47h28.125a.47.47 0 00.468-.47v-1.875a.469.469 0 00-.468-.468h-.47V14.53h.47a.47.47 0 00.468-.469V7.5a.469.469 0 00-.468-.469zM22.5 5.156v3.75h-2.813v-3.75H22.5zm-2.813 4.688H22.5v1.875h-2.813V9.844zm.47-7.631l1.874-.625v2.63h-1.875V2.214zm-7.97-.807a4.223 4.223 0 013.807 6.04 4.18 4.18 0 01-1.164 1.46H9.545A4.18 4.18 0 017.97 5.625a4.223 4.223 0 014.218-4.219zm4.22 8.438a.469.469 0 01.468.469 1.406 1.406 0 01-1.406 1.406H8.906A1.406 1.406 0 017.5 10.313a.469.469 0 01.469-.47h8.437zm12.187 18.75H1.406v-.938h27.188v.938zM10.78 26.719H5.156V16.406h5.625V26.72zm16.875 0H11.72V15.937a.469.469 0 00-.469-.468H4.687a.469.469 0 00-.468.469v10.78H2.344V14.532h25.312V26.72zm.938-13.125H1.406V7.969h6.188c.17.334.376.648.616.937h-.241a1.406 1.406 0 00-1.407 1.406 2.347 2.347 0 002.344 2.344h6.563a2.346 2.346 0 002.344-2.344 1.406 1.406 0 00-1.407-1.406h-.239a5.07 5.07 0 00.614-.937h1.969v4.218a.469.469 0 00.469.47h3.75a.469.469 0 00.468-.47V7.97h5.157v5.625z" stroke="#F6C478" stroke-width=".6" mask="url(#a)"/><path d="M25.99 16.015h0c.103.105.16.247.16.394v8.182a.563.563 0 01-.16.394.545.545 0 01-.39.165H14.4a.545.545 0 01-.39-.165m11.98-8.97l-11.98 8.97s0 0 0 0m11.98-8.97a.545.545 0 00-.39-.165m.39.165l-.39-.165m-11.59 9.135a.563.563 0 01-.16-.394m.16.394l-.16-.394M25.6 15.85H14.4m11.2 0H14.4m0 0a.545.545 0 00-.39.165m.39-.165l-.39.165m0 0a.563.563 0 00-.16.394m.16-.394l-.16.394m0 0v8.182m0-8.182v8.182m1.1-7.623h10.1v7.064h-10.1v-7.064zm-6.044 3.507h-.15v1.238h1.238v-1.239H8.906zm6.713-14.85v0a3.432 3.432 0 10-3.431 3.431h0a3.435 3.435 0 003.43-3.43zM12.187 7.82a2.194 2.194 0 110-4.388 2.194 2.194 0 010 4.388z" fill="#F6C478" stroke="#F6C478" stroke-width=".3"/><path d="M17.227 21.655l-.106.106.106.106.488.488.106.106.106-.106 2.761-2.76.106-.107-.106-.106-.488-.488-.106-.106-.106.106-2.761 2.761zm2.451 0l-.106.106.106.106.488.488.106.107.106-.107 2.761-2.76.107-.107-.107-.106-.488-.488-.106-.106-.106.106-2.76 2.761z" fill="#F6C478" stroke="#F6C478" stroke-width=".3"/></svg>