<svg width="30" height="30" fill="none" xmlns="http://www.w3.org/2000/svg"><g clip-path="url(#clip0_94_398)" fill="#F6C478" stroke="#F6C478" stroke-width=".3"><path d="M27.215 1.382h0l.933 13.072h0a.65.65 0 01-.648.696h-1.85v8.792l.99 5.442.575-28.002zm0 0A1.655 1.655 0 0025.569-.15h0m1.646 1.532L25.569-.15m0 0H22.43h0m3.138 0H22.43m0 0a1.657 1.657 0 00-1.646 1.532h0M22.431-.15l-1.646 1.532m0 0l-.933 13.072s0 0 0 0a.65.65 0 00.602.694h0m.331-13.766l-.33 13.766m0 0a.69.69 0 00.045.002h1.85v8.791l-.99 5.443h0m-.906-14.236l.906 14.236m0 0a.65.65 0 00.524.756m-.524-.756l.524.756m0 0c.038.006.077.01.116.01m-.116-.01l.116.01m0 0h4m-4 0h4m0 0a.65.65 0 00.65-.65m-.65.65l.65-.65m0 0a.648.648 0 00-.01-.116l.01.116zm-2.193-4.85l.764 4.2h-2.442l.763-4.2h.915zm-.107-1.3h-.7v-8.2h.7v8.2zm1.568-21.874l.884 12.374h-5.604l.884-12.374s0 0 0 0a.352.352 0 01.35-.326h3.137c.183 0 .335.142.349.325 0 0 0 0 0 0zM14.633 30.15h0a2.66 2.66 0 002.482-1.723h0a47.13 47.13 0 001.3-4.004c.413-1.523.735-3.125.735-4.423 0-2.863-1.377-4.391-2.54-5.166h0a6.447 6.447 0 00-1.96-.866V10.5a.65.65 0 00-.65-.65H8a.65.65 0 00-.65.65v3.468c-.697.177-1.36.47-1.96.866h0C4.226 15.61 2.85 17.137 2.85 20c0 1.298.321 2.9.734 4.423a47.1 47.1 0 001.3 4.004h0a2.66 2.66 0 002.483 1.723h7.266zM9.637 19.412h0a4.655 4.655 0 00-4.285-.064h0l-1.202.6c.014-2.09.899-3.27 1.817-3.938a4.908 4.908 0 012.074-.86h5.917a4.93 4.93 0 011.939.765c.868.584 1.737 1.604 1.918 3.387l-2.185 1.39s0 0 0 0a3.353 3.353 0 01-3.387.124s0 0 0 0l-2.606-1.404zm1.99 2.549h0a4.654 4.654 0 004.7-.171h0l1.478-.94c-.166 1.706-.767 3.808-1.334 5.5H5.528c-.512-1.528-1.052-3.394-1.274-5l1.68-.84a3.354 3.354 0 013.086.047s0 0 0 0l2.607 1.404zM13.35 11.15v.7h-.85a.65.65 0 000 1.3h.85v.7h-4.7v-.7h1.85a.65.65 0 100-1.3H8.65v-.7h4.7zM6.103 27.972l-.12-.322h10.033c-.04.112-.08.22-.119.322a1.355 1.355 0 01-1.264.878H7.367a1.355 1.355 0 01-1.264-.878z"/></g><defs><clipPath id="clip0_94_398"><path fill="#fff" d="M0 0h30v30H0z"/></clipPath></defs></svg>