<svg width="30" height="30" fill="none" xmlns="http://www.w3.org/2000/svg"><g clip-path="url(#clip0_94_700)"><path d="M1.875 2.041C-.483 4.49 0 7.091 0 14.994c0 6.562-1.145 13.141 4.847 14.69 1.871.481 18.451.481 20.32-.003 2.495-.643 4.525-2.667 4.803-6.196.038-.492.038-16.481-.002-16.984C29.673 2.742 27.36.576 24.311.137c-.699-.1-.839-.13-4.424-.137C7.171.006 4.383-.56 1.875 2.041z" fill="url(#paint0_linear_94_700)"/><path d="M14.997 3.924c-4.538 0-8.848-.404-10.495 3.821-.68 1.745-.581 4.011-.581 7.256 0 2.848-.091 5.524.581 7.255 1.643 4.228 5.988 3.823 10.493 3.823 4.346 0 8.827.452 10.493-3.823.682-1.762.582-3.995.582-7.255 0-4.327.238-7.121-1.86-9.218-2.125-2.125-4.999-1.86-9.218-1.86h.005zm-.992 1.996c9.467-.015 10.672-1.067 10.007 13.554-.236 5.171-4.174 4.604-9.014 4.604-8.824 0-9.078-.253-9.078-9.082 0-8.931.7-9.071 8.085-9.078v.002zm6.905 1.839a1.329 1.329 0 100 2.658 1.329 1.329 0 000-2.658zm-5.913 1.554a5.688 5.688 0 000 11.376A5.686 5.686 0 0020.683 15a5.687 5.687 0 00-5.686-5.688zm0 1.996c4.881 0 4.888 7.385 0 7.385-4.88 0-4.887-7.385 0-7.385z" fill="#fff"/></g><defs><linearGradient id="paint0_linear_94_700" x1="1.932" y1="28.084" x2="29.814" y2="3.952" gradientUnits="userSpaceOnUse"><stop stop-color="#FD5"/><stop offset=".5" stop-color="#FF543E"/><stop offset="1" stop-color="#C837AB"/></linearGradient><clipPath id="clip0_94_700"><path fill="#fff" d="M0 0h30v30H0z"/></clipPath></defs></svg>