<svg width="70" height="68" fill="none" xmlns="http://www.w3.org/2000/svg"><g clip-path="url(#clip0_94_313)"><path d="M68.252 48.122c5.647-15.623-2.42-32.874-18.02-38.53-15.599-5.656-32.822 2.424-38.47 18.048-5.646 15.624 2.421 32.874 18.02 38.53 15.6 5.656 32.823-2.424 38.47-18.048z" fill="#FFCB7C"/><path d="M30.652 38.354c-4.215 0-7.64-3.43-7.64-7.653 0-4.222 3.425-7.653 7.64-7.653 4.216 0 7.642 3.43 7.642 7.653 0 4.223-3.426 7.653-7.642 7.653zm0-14.427c-3.776 0-6.762 3.08-6.762 6.774 0 3.783 3.074 6.774 6.762 6.774 3.69 0 6.763-3.08 6.763-6.774 0-3.782-3.074-6.774-6.763-6.774z" fill="#000"/><path d="M30.652 45.48c-8.168 0-14.843-6.686-14.843-14.867 0-8.093 6.675-14.778 14.843-14.778v.88c-7.729 0-13.965 6.245-13.965 13.986 0 7.654 6.236 13.987 13.965 13.987 7.641 0 13.965-6.245 13.965-13.987h.878c-.087 8.181-6.675 14.779-14.843 14.779z" fill="#000"/><path d="M30.652 55.157C17.127 55.157 6.148 44.16 6.148 30.7h.878c0 13.02 10.54 23.576 23.538 23.576 13 0 23.539-10.556 23.539-23.576 0-9.852-6.148-18.737-15.37-22.168l.263-.792c9.573 3.519 15.985 12.756 15.985 22.96.088 13.46-10.89 24.456-24.329 24.456z" fill="#000"/><path d="M30.652 61.402C13.703 61.402 0 47.592 0 30.702 0 13.722 13.701 0 30.652 0s30.653 13.723 30.653 30.701c0 6.422-2.02 12.668-5.709 17.858l-.703-.528c3.601-5.102 5.534-11.084 5.534-17.33C60.427 14.251 47.077.88 30.653.88 14.227.88.878 14.25.878 30.7c0 16.45 13.35 29.822 29.774 29.822v.88z" fill="#000"/></g><defs><clipPath id="clip0_94_313"><path fill="#fff" d="M0 0h70v68H0z"/></clipPath></defs></svg>