<svg width="100" height="96" fill="none" xmlns="http://www.w3.org/2000/svg"><path d="M97.503 67.937c8.067-22.057-3.458-46.41-25.742-54.395-22.285-7.985-46.89 3.422-54.956 25.48-8.068 22.056 3.458 46.41 25.742 54.395 22.284 7.985 46.889-3.423 54.956-25.48z" fill="#FFE667"/><path d="M43.789 54.147c-6.023 0-10.916-4.843-10.916-10.804s4.893-10.805 10.916-10.805c6.023 0 10.916 4.844 10.916 10.805 0 5.96-4.893 10.804-10.916 10.804zm0-20.367c-5.395 0-9.661 4.347-9.661 9.563 0 5.34 4.391 9.563 9.661 9.563s9.661-4.347 9.661-9.563c0-5.34-4.391-9.563-9.661-9.563z" fill="#242C36"/><path d="M43.789 64.207c-11.669 0-21.205-9.438-21.205-20.988 0-11.426 9.536-20.864 21.205-20.864v1.241c-11.041 0-19.95 8.818-19.95 19.747 0 10.804 8.909 19.746 19.95 19.746 10.916 0 19.95-8.817 19.95-19.746h1.255c-.126 11.55-9.536 20.864-21.205 20.864z" fill="#242C36"/><path d="M43.789 77.868c-19.323 0-35.006-15.524-35.006-34.525h1.254c0 18.38 15.057 33.283 33.627 33.283S77.29 61.723 77.29 43.343c0-13.91-8.783-26.453-21.958-31.296l.377-1.118c13.676 4.968 22.835 18.008 22.835 32.414.126 19.001-15.558 34.525-34.755 34.525z" fill="#242C36"/><path d="M43.79 86.686C19.572 86.686 0 67.188 0 43.343 0 19.373 19.573 0 43.79 0c24.215 0 43.788 19.374 43.788 43.343 0 9.066-2.885 17.883-8.155 25.21l-1.004-.745c5.144-7.203 7.905-15.648 7.905-24.465 0-23.224-19.072-42.101-42.535-42.101-23.463 0-42.534 18.877-42.534 42.1 0 23.225 19.071 42.102 42.534 42.102v1.242z" fill="#242C36"/></svg>