<svg width="112" height="108" fill="none" xmlns="http://www.w3.org/2000/svg"><g clip-path="url(#clip0_116_42)"><path d="M109.203 76.43c9.035-24.815-3.873-52.213-28.832-61.196-24.958-8.983-52.515 3.85-61.55 28.665-9.036 24.814 3.873 52.212 28.831 61.195 24.958 8.983 52.515-3.85 61.551-28.664z" fill="#88A585"/><path d="M49.044 60.916c-6.745 0-12.226-5.449-12.226-12.155 0-6.707 5.48-12.156 12.226-12.156 6.745 0 12.226 5.45 12.226 12.156s-5.48 12.155-12.226 12.155zm0-22.913c-6.042 0-10.82 4.89-10.82 10.758 0 6.008 4.918 10.758 10.82 10.758s10.82-4.89 10.82-10.758c0-6.008-4.918-10.758-10.82-10.758z" fill="#E5E5E5"/><path d="M49.044 72.233c-13.069 0-23.75-10.618-23.75-23.612 0-12.854 10.681-23.472 23.75-23.472v1.397c-12.366 0-22.344 9.92-22.344 22.215 0 12.155 9.978 22.215 22.344 22.215 12.226 0 22.344-9.92 22.344-22.215h1.405c-.14 12.993-10.68 23.472-23.749 23.472z" fill="#E5E5E5"/><path d="M49.044 87.602c-21.641 0-39.207-17.465-39.207-38.841h1.405c0 20.678 16.863 37.443 37.661 37.443 20.798 0 37.662-16.765 37.662-37.443 0-15.649-9.837-29.76-24.593-35.209l.422-1.257C77.711 17.884 87.97 32.554 87.97 48.76c.14 21.376-17.425 38.84-38.926 38.84z" fill="#E5E5E5"/><path d="M49.044 97.521C21.922 97.521 0 75.586 0 48.761 0 21.796 21.922 0 49.044 0c27.122 0 49.044 21.796 49.044 48.76 0 10.2-3.232 20.12-9.134 28.363l-1.125-.838c5.762-8.104 8.854-17.604 8.854-27.524 0-26.127-21.36-47.364-47.64-47.364-26.278 0-47.638 21.237-47.638 47.364s21.36 47.363 47.639 47.363v1.397z" fill="#E5E5E5"/></g><defs><clipPath id="clip0_116_42"><path fill="#fff" d="M0 0h112v108H0z"/></clipPath></defs></svg>