<svg width="50" height="50" fill="none" xmlns="http://www.w3.org/2000/svg"><path d="M3.125 26.532v18.75a3.128 3.128 0 003.125 3.126h15.625V26.531H3.125zm43.75-12.5h-9.888c.71-.484 1.32-.965 1.744-1.396 2.522-2.535 2.522-6.66 0-9.194-2.45-2.469-6.718-2.463-9.165 0-1.357 1.36-4.95 6.893-4.453 10.59h-.226c.494-3.697-3.1-9.23-4.453-10.59-2.45-2.463-6.718-2.463-9.165 0-2.519 2.534-2.519 6.66-.003 9.194.428.43 1.037.912 1.746 1.396H3.125A3.13 3.13 0 000 17.157v4.688c0 .862.7 1.562 1.563 1.562h20.312v-6.25h6.25v6.25h20.313c.862 0 1.562-.7 1.562-1.562v-4.688c0-1.722-1.4-3.125-3.125-3.125zm-25.184-.103s-.132.103-.578.103c-2.16 0-6.282-2.243-7.629-3.6a3.408 3.408 0 010-4.787 3.319 3.319 0 012.37-.988c.89 0 1.73.35 2.365.988 2.106 2.119 4.2 7.531 3.472 8.284zm7.193.103c-.443 0-.575-.1-.575-.103-.728-.753 1.366-6.165 3.472-8.284 1.26-1.272 3.463-1.278 4.735 0a3.403 3.403 0 010 4.787c-1.347 1.357-5.47 3.6-7.632 3.6zm-.759 12.5v21.875H43.75c1.725 0 3.125-1.4 3.125-3.124v-18.75h-18.75z" fill="#F6C478"/></svg>