<svg width="50" height="50" fill="none" xmlns="http://www.w3.org/2000/svg"><path d="M40.562 13.9h3.027v2.929h-3.027v-2.93zm6.412 0H50v2.929h-3.026v-2.93zm-3.157 3.157h2.929v3.026h-2.93v-3.026zm0-6.411h2.929v3.026h-2.93v-3.026zM30.409 3.254h3.026v2.93H30.41v-2.93zm6.411 0h3.026v2.93H36.82v-2.93zM33.663 6.41h2.929v3.027h-2.93V6.411zm0-6.41h2.929v3.027h-2.93V0zm-27.6 6.932H9.09v2.93H6.063v-2.93zm6.412 0H15.5v2.93h-3.026v-2.93zM9.318 10.09h2.929v3.026h-2.93V10.09zm0-6.412h2.929v3.027h-2.93V3.678zM0 20.477h8.65V49.17H0V20.477zM42.387 22.7h-12.9l2.003-6.92v-2.33a7.039 7.039 0 00-7.039-7.04.625.625 0 00-.625.626v2.753a6.873 6.873 0 01-2.39 5.21l-9.856 8.484v23.153l5.637 2.115a19.423 19.423 0 006.82 1.236h15.235a3.411 3.411 0 100-6.822h1.038a3.41 3.41 0 00.334-6.805l.002-.017h.703a3.411 3.411 0 00.562-6.775l-.044-.047h.52a3.411 3.411 0 100-6.822z" fill="#F3BB66"/></svg>