<svg width="30" height="30" fill="none" xmlns="http://www.w3.org/2000/svg"><path d="M15 4.22c.269-.383.419-.842.419-1.318V.938a.518.518 0 01.885-.367l.09.09a6.567 6.567 0 011.937 4.676v1.446c0 1.19-.322 2.35-.927 3.37l7.198 9.598a6.186 6.186 0 011.23 3.687v.263a6.147 6.147 0 01-1.48 3.998L22.895 29.4h0a.52.52 0 01-.621.129h0a.519.519 0 01-.282-.568h0l.287-1.434a8.907 8.907 0 00-1.746-7.264l.04-.03-.04.03-1.287-1.623L15 16.517l-4.245 2.123-1.287 1.623-.04-.03.04.03a8.889 8.889 0 00-1.746 7.264L14.999 4.22zm0 0a2.285 2.285 0 01-.419-1.318V.938a.52.52 0 00-.32-.48h0a.518.518 0 00-.565.113l1.303 3.65zm-.232 11.253a.519.519 0 01.464 0h-.464zm0 0l-2.489 1.244L15 13.287l2.72 3.43-2.488-1.244h-.464zm-6.76 13.488l-.286-1.433L13.696.57l-.09.09a6.568 6.568 0 00-1.937 4.676v1.446c0 1.187.328 2.353.929 3.368l-7.2 9.6a6.182 6.182 0 00-1.23 3.687v.263c0 1.465.526 2.885 1.48 3.998l1.458 1.7a.518.518 0 00.62.13h0a.519.519 0 00.282-.568h0zM16.456 2.9v-.507a5.54 5.54 0 01.838 2.943v1.446c0 .09-.003.18-.008.27a3.312 3.312 0 00-1.09-1.733h0l-.448-.372c.453-.58.708-1.3.708-2.046zm-3.75 2.436a5.54 5.54 0 01.838-2.943v.508c0 .99.437 1.924 1.198 2.559h0l.79.657a2.29 2.29 0 01.824 1.762v2.433a.51.51 0 00.104.31l1.061 1.416-1.482.889-2.125-2.68h0a5.595 5.595 0 01-1.208-3.465V5.337zM8.693 19.65l-.039-.031a9.951 9.951 0 00-2.035 7.618l-.183-.213h0a5.108 5.108 0 01-1.23-3.323v-.263c0-1.098.363-2.186 1.021-3.064l5.626-7.5 1.458.874-4.657 5.87.04.032zm14.871 7.374h0l-.183.214a9.933 9.933 0 00-2.036-7.62l-4.656-5.87 1.458-.875 5.626 7.5a5.142 5.142 0 011.02 3.065v.263a5.11 5.11 0 01-1.229 3.323zm-9.226-14.571l-.377.475-1.482-.89.744-.991 1.115 1.406z" fill="#000" stroke="#000" stroke-width=".1"/><path d="M13.125 6.981h-.05V8.02h1.038V6.98h-.988zM15 8.856h-.05v1.038h1.038V8.856H15z" fill="#000" stroke="#000" stroke-width=".1"/></svg>