<svg width="30" height="30" fill="none" xmlns="http://www.w3.org/2000/svg"><path d="M15.007.85h0C7.19.858.855 7.187.84 15.002h0a13.868 13.868 0 002.299 7.662L.906 28.012h0v.003a.828.828 0 00.46 1.076h0a.829.829 0 00.615 0h0l.002-.001 5.35-2.233c6.522 4.226 15.242 2.393 19.51-4.114 4.282-6.53 2.46-15.295-4.07-19.578A14.139 14.139 0 0015.006.85zm0 26.65h-.15v.012a12.62 12.62 0 01-6.963-2.262.828.828 0 00-.45-.149.816.816 0 00-.301.003l-.016.003-.014.006-3.902 1.67 1.632-3.887s0 0 0 0a.828.828 0 00-.083-.794l-.001-.002a12.226 12.226 0 01-2.263-7.097h0C2.488 8.093 8.084 2.486 14.993 2.478c6.91-.007 12.517 5.588 12.524 12.498.008 6.91-5.587 12.517-12.497 12.524h0-.001 0-.001 0-.001 0-.001 0-.001 0-.001 0-.001 0-.001 0-.001 0-.001 0-.001 0-.001 0-.001 0z" fill="#F6C478" stroke="#F6C478" stroke-width=".3"/><path d="M15.007 14.677a.828.828 0 00-.828.827v3.037a.828.828 0 001.655 0v-2.284a4.407 4.407 0 00-.83-8.751A4.393 4.393 0 0010.6 11.87v.002a.828.828 0 001.656.001 2.75 2.75 0 112.75 2.804zm0 0v.15m0-.15v.15m0 0a2.9 2.9 0 10-2.901-2.956l2.9-4.215a4.257 4.257 0 01.678 8.472v2.413a.678.678 0 01-1.355 0v-3.037c0-.374.303-.677.678-.677zm-.057 7.715a.892.892 0 100-1.783.892.892 0 000 1.783z" fill="#F6C478" stroke="#F6C478" stroke-width=".3"/></svg>