<svg width="30" height="30" fill="none" xmlns="http://www.w3.org/2000/svg"><path d="M24.75 29.063H9.16a2.522 2.522 0 01-2.523-2.522V3.459A2.522 2.522 0 019.16.937h7.153c.64.002 1.258.239 1.735.666l8.343 7.5a2.615 2.615 0 01.872 1.95v15.488a2.522 2.522 0 01-2.512 2.521zM9.16 2.813a.647.647 0 00-.648.646v23.082a.647.647 0 00.647.646h15.59a.647.647 0 00.648-.646V11.006a.732.732 0 00-.244-.543l-8.344-7.5a.731.731 0 00-.497-.15H9.16z" fill="#F6C478"/><path d="M26.325 11.194h-8.26a2.053 2.053 0 01-2.052-2.053V2.4h1.875v6.74a.178.178 0 00.178.179h8.26v1.875zM21.019 22.5h-7.5a.937.937 0 100 1.875h7.5a.938.938 0 000-1.875zm-5.625-4.04h-1.875a.937.937 0 100 1.874h1.875a.938.938 0 000-1.875zM5.072 24.994a2.362 2.362 0 01-2.335-2.353V7.359A2.344 2.344 0 015.55 5.062l2.015.338-.309 1.875-2.034-.366a.497.497 0 00-.432.085.469.469 0 00-.178.365v15.282a.478.478 0 00.572.459l2.119-.281.244 1.875-2.053.272c-.14.024-.281.034-.422.028z" fill="#F6C478"/></svg>