<svg width="30" height="30" fill="none" xmlns="http://www.w3.org/2000/svg"><path d="M13.494 2.574a5.493 5.493 0 00-.738 2.763v1.446c0 1.242.425 2.46 1.197 3.433h0l2.098 2.646 1.397-.838-1.028-1.37-2.926-8.08zm0 0v.328c0 1.006.443 1.953 1.216 2.597h0l.79.657a2.24 2.24 0 01.806 1.724v2.433c0 .122.04.242.114.34l-2.926-8.079zm1.875.328c0 .44-.132.867-.37 1.23L7.771 27.518a8.838 8.838 0 011.736-7.223l-.079-.063.079.062 1.28-1.614L15 16.573l4.213 2.107 1.28 1.614.079-.062-.079.062a8.856 8.856 0 011.736 7.224h0l-.287 1.433h0a.57.57 0 00.309.623h0a.57.57 0 00.681-.141h0l1.459-1.701a6.197 6.197 0 001.49-4.031v-.263 0c0-1.332-.44-2.651-1.239-3.717l-7.178-9.571c.599-1.02.917-2.18.917-3.367V5.337c0-1.78-.693-3.453-1.951-4.711l-.09-.09a.568.568 0 00-.971.402v1.964zm-7.312 26.05l-.286-1.434-.703 1.914a.567.567 0 00.68.142h0a.569.569 0 00.31-.623h0zm-2.447-1.22l1.458 1.7L13.731.606l-.07-.07h0l-.09.09a6.618 6.618 0 00-1.952 4.71v1.447a6.68 6.68 0 00.919 3.365l-7.18 9.573.08.06-.08-.06a6.232 6.232 0 00-1.24 3.717v.263c0 1.477.53 2.908 1.492 4.03zm10.896-24.83v-.328c.481.83.738 1.777.738 2.763v1.405a3.358 3.358 0 00-1.017-1.46h0l-.41-.342a3.38 3.38 0 00.69-2.038zM8.693 19.65l-.078-.063a10.001 10.001 0 00-2.07 7.488l-.071-.084h0a5.058 5.058 0 01-1.218-3.29v-.263c0-1.087.36-2.165 1.011-3.034l5.599-7.465 1.37.823-4.62 5.825.077.063zm14.834 7.341h0l-.073.085a9.983 9.983 0 00-2.07-7.488l-.077.062.078-.063-4.621-5.826 1.37-.822 5.599 7.465a5.092 5.092 0 011.01 3.034v.263a5.06 5.06 0 01-1.216 3.29zm-9.253-14.538l-.325.41-1.396-.839.671-.895 1.05 1.324zm.98 2.976a.568.568 0 00-.509 0l-2.287 1.143L15 13.368l2.541 3.204-2.287-1.143z" fill="#F6C478" stroke="#F6C478" stroke-width=".2"/><path d="M13.125 6.931h-.1V8.07h1.138V6.93h-1.038zM15 8.806h-.1v1.138h1.138V8.806H15z" fill="#F6C478" stroke="#F6C478" stroke-width=".2"/></svg>