<svg width="133" height="23" fill="none" xmlns="http://www.w3.org/2000/svg"><g clip-path="url(#clip0_94_326)" fill="#FFE667"><path d="M72.1 11.4c-2.9 0-5.4-1.3-7.1-3.7l-.6-.8a6.31 6.31 0 00-5.2-2.7c-2.1 0-4 1-5.2 2.7l-.5.6c-1.7 2.3-4.2 3.7-7.1 3.7-2.9 0-5.4-1.3-7.1-3.7l-.6-.9a6.31 6.31 0 00-5.2-2.7c-2.1 0-4 1-5.2 2.7l-.3.5c-1.7 2.3-4.2 3.7-7.1 3.7-2.9 0-5.4-1.3-7.1-3.7l-.3-.4C12.4 5 10.5 4 8.4 4c-2.1 0-4 1-5.2 2.7L1.9 8.6 0 7.2l1.3-1.8C3 3.1 5.5 1.7 8.4 1.7c2.9 0 5.4 1.3 7.1 3.7l.3.4C17 7.5 18.9 8.5 21 8.5s4-1 5.2-2.7l.3-.5c1.7-2.3 4.2-3.7 7.1-3.7 2.9 0 5.4 1.3 7.1 3.7l.6.9c1.2 1.7 3.1 2.7 5.2 2.7s4-1 5.2-2.7l.5-.6c1.7-2.3 4.2-3.7 7.1-3.7 2.9 0 5.4 1.3 7.1 3.7l.6.8C68.1 8.1 70 9 72.1 9c2.1 0 4-1 5.2-2.7l1-1.5c1.7-2.3 4.2-3.7 7.1-3.7 2.9 0 5.4 1.3 7.1 3.7 1.2 1.7 3.1 2.7 5.2 2.7s4-1 5.2-2.7l.9-1.2c1.7-2.3 4.2-3.7 7.1-3.7 2.9 0 5.4 1.3 7.1 3.7l1.7 2.4c1.2 1.7 3.1 2.7 5.2 2.7s4-1 5.2-2.7l1-1.4 1.9 1.3-1 1.4c-1.7 2.3-4.2 3.7-7.1 3.7-2.9 0-5.4-1.3-7.1-3.7L116.1 5a6.31 6.31 0 00-5.2-2.7c-2.1 0-4 1-5.2 2.7l-.9 1.2c-1.7 2.3-4.2 3.7-7.1 3.7-2.9 0-5.4-1.3-7.1-3.7a6.31 6.31 0 00-5.2-2.7c-2.1 0-4 1-5.2 2.7l-1 1.5c-1.6 2.3-4.2 3.7-7.1 3.7zm0 11.4c-2.9 0-5.4-1.3-7.1-3.7l-.6-.8a6.31 6.31 0 00-5.2-2.7c-2.1 0-4 1-5.2 2.7l-.5.6c-1.7 2.3-4.2 3.7-7.1 3.7-2.9 0-5.4-1.3-7.1-3.7l-.5-.9a6.31 6.31 0 00-5.2-2.7c-2.1 0-4 1-5.2 2.7l-.4.5c-1.7 2.3-4.2 3.7-7.1 3.7-2.9 0-5.4-1.3-7.1-3.7l-.3-.4a6.31 6.31 0 00-5.2-2.7c-2.1 0-4 1-5.2 2.7l-1.3 1.8L0 18.6l1.3-1.8c1.7-2.3 4.2-3.7 7.1-3.7 2.9 0 5.4 1.3 7.1 3.7l.3.4c1.2 1.7 3.1 2.7 5.2 2.7s4-1 5.2-2.7l.3-.5c1.7-2.3 4.2-3.7 7.1-3.7 2.9 0 5.4 1.3 7.1 3.7l.6.9c1.2 1.7 3.1 2.7 5.2 2.7s4-1 5.2-2.7l.5-.6c1.7-2.3 4.2-3.7 7.1-3.7 2.9 0 5.4 1.3 7.1 3.7l.6.8c1.2 1.7 3.1 2.7 5.2 2.7s4-1 5.2-2.7l1-1.5c1.7-2.3 4.2-3.7 7.1-3.7 2.9 0 5.4 1.3 7.1 3.7 1.2 1.7 3.1 2.7 5.2 2.7s4-1 5.2-2.7l.9-1.2c1.7-2.3 4.2-3.7 7.1-3.7 2.9 0 5.4 1.3 7.1 3.7l1.7 2.4c1.2 1.7 3.1 2.7 5.2 2.7s4-1 5.2-2.7l1-1.4 1.9 1.3-1 1.4c-1.7 2.3-4.2 3.7-7.1 3.7-2.9 0-5.4-1.3-7.1-3.7l-1.7-2.4a6.31 6.31 0 00-5.2-2.7c-2.1 0-4 1-5.2 2.7l-.9 1.2c-1.7 2.3-4.2 3.7-7.1 3.7-2.9 0-5.4-1.3-7.1-3.7a6.31 6.31 0 00-5.2-2.7c-2.1 0-4 1-5.2 2.7l-1 1.5c-1.7 2.3-4.3 3.7-7.2 3.7z"/></g><defs><clipPath id="clip0_94_326"><path fill="#fff" d="M0 0h133v22.8H0z"/></clipPath></defs></svg>