<svg width="103" height="99" fill="none" xmlns="http://www.w3.org/2000/svg"><path d="M100.428 70.06c8.309-22.746-3.562-47.86-26.515-56.095C50.961 5.73 25.618 17.495 17.31 40.24 9 62.986 20.871 88.101 43.824 96.336c22.953 8.234 48.296-3.53 56.605-26.276z" fill="#FFE667"/><path d="M45.103 55.84c-6.203 0-11.244-4.995-11.244-11.143 0-6.147 5.04-11.142 11.244-11.142 6.203 0 11.243 4.995 11.243 11.142 0 6.148-5.04 11.142-11.243 11.142zm0-21.004c-5.557 0-9.951 4.482-9.951 9.861 0 5.507 4.523 9.862 9.95 9.862 5.429 0 9.952-4.483 9.952-9.862 0-5.507-4.523-9.861-9.951-9.861z" fill="#242C36"/><path d="M45.103 66.213c-12.019 0-21.84-9.733-21.84-21.644 0-11.783 9.821-21.516 21.84-21.516v1.28c-11.373 0-20.548 9.094-20.548 20.364 0 11.142 9.175 20.364 20.548 20.364 11.243 0 20.548-9.093 20.548-20.364h1.293c-.13 11.911-9.822 21.516-21.841 21.516z" fill="#242C36"/><path d="M45.103 80.301c-19.902 0-36.057-16.009-36.057-35.604h1.293c0 18.955 15.508 34.324 34.635 34.324 19.126 0 34.635-15.37 34.635-34.324 0-14.344-9.047-27.28-22.617-32.274l.388-1.153C71.467 16.393 80.9 29.84 80.9 44.697c.13 19.595-16.024 35.604-35.797 35.604z" fill="#242C36"/><path d="M45.103 89.395C20.16 89.395 0 69.287 0 44.697 0 19.98 20.16 0 45.103 0c24.942 0 45.103 19.98 45.103 44.697 0 9.35-2.973 18.443-8.4 25.999l-1.034-.768c5.298-7.429 8.141-16.138 8.141-25.23 0-23.95-19.643-43.417-43.81-43.417S1.293 20.748 1.293 44.697c0 23.95 19.643 43.417 43.81 43.417v1.28z" fill="#242C36"/></svg>