<svg width="24" height="24" fill="none" xmlns="http://www.w3.org/2000/svg"><g clip-path="url(#clip0_94_528)" fill="#535353"><path d="M22.803 20.715H6.754a1.197 1.197 0 110-2.395h16.048a1.197 1.197 0 010 2.395zm0-7.517H6.754a1.197 1.197 0 110-2.395h16.048a1.197 1.197 0 010 2.395zm0-7.518H6.754a1.197 1.197 0 110-2.394h16.048a1.197 1.197 0 010 2.395zm-21.195.504a1.608 1.608 0 100-3.216 1.608 1.608 0 000 3.216zm0 7.424a1.608 1.608 0 100-3.216 1.608 1.608 0 000 3.216zm0 7.425a1.608 1.608 0 100-3.217 1.608 1.608 0 000 3.217z"/></g><defs><clipPath id="clip0_94_528"><path fill="#fff" d="M0 0h24v24H0z"/></clipPath></defs></svg>