<svg width="24" height="24" fill="none" xmlns="http://www.w3.org/2000/svg"><path d="M19.426 18.205c-1.115-.386-2.57-.678-4.183-.845.248-.376.502-.771.756-1.18 2.304-3.703 3.472-6.634 3.472-8.709 0-4.12-3.351-7.471-7.47-7.471-4.12 0-7.472 3.351-7.472 7.471 0 2.075 1.169 5.006 3.473 8.71.254.408.508.803.755 1.178-1.613.168-3.067.46-4.183.846-1.74.602-2.622 1.408-2.622 2.394 0 1.105 1.1 1.979 3.27 2.597C7.042 23.714 9.45 24 12 24s4.958-.286 6.779-.804c2.17-.618 3.27-1.492 3.27-2.597 0-.986-.883-1.792-2.623-2.394zM6.036 7.471A5.97 5.97 0 0112 1.507a5.97 5.97 0 015.964 5.964c0 1.762-1.12 4.494-3.237 7.9A58.624 58.624 0 0112 19.358a58.657 58.657 0 01-2.726-3.985c-2.118-3.408-3.237-6.14-3.237-7.903zm12.33 14.275c-1.69.482-3.951.747-6.366.747-2.414 0-4.675-.265-6.365-.747-1.798-.512-2.176-1.06-2.176-1.147 0-.082.286-.512 1.608-.97 1.192-.412 2.834-.708 4.66-.842a52.223 52.223 0 001.683 2.28.754.754 0 001.18 0c.045-.056.744-.94 1.684-2.28 1.826.134 3.468.43 4.66.842 1.321.458 1.607.888 1.607.97 0 .087-.378.635-2.175 1.147z" fill="#535353"/><path d="M12 3.98a3.496 3.496 0 00-3.492 3.49A3.496 3.496 0 0012 10.963a3.496 3.496 0 003.492-3.492A3.496 3.496 0 0012 3.979zm0 5.476a1.987 1.987 0 01-1.985-1.985c0-1.094.89-1.984 1.985-1.984 1.094 0 1.985.89 1.985 1.984 0 1.094-.89 1.985-1.985 1.985z" fill="#535353"/></svg>