<svg width="166" height="41" fill="none" xmlns="http://www.w3.org/2000/svg"><path d="M16.39 27.537l1.951-.976V15.439l-1.95-1.17v13.268z" fill="#FFE667"/><path d="M16.39 1v7.805l1.951.975V4.317l28.683 16.585-28.683 16.586v-5.269l-1.95.976V41l34.536-20.098L16.39 1z" fill="#FFE667"/><path d="M0 1l34.732 19.902L.195 41 0 1zm30.83 19.902L1.95 4.512l.195 33.17 28.683-16.78z" fill="#FFCB7C"/><path d="M62.05 16.79V.69h3.266l7.544 9.913V.69h3.496v16.1h-3.013L65.546 6.555V16.79H62.05zm21.299.23c-1.211 0-2.223-.337-3.036-1.012-.797-.675-1.196-1.61-1.196-2.806 0-1.303.445-2.285 1.334-2.944.905-.66 2.116-.989 3.634-.989 1.027 0 2.032.169 3.013.506v-.207c0-1.503-.882-2.254-2.645-2.254-1.058 0-2.193.222-3.404.667l-.874-2.668a11.776 11.776 0 014.784-.989c1.855 0 3.243.46 4.163 1.38.89.89 1.334 2.2 1.334 3.933v7.153h-3.381v-1.334c-.935 1.043-2.177 1.564-3.726 1.564zm1.058-2.415c.813 0 1.472-.2 1.978-.598.506-.414.759-.935.759-1.564v-.621c-.66-.307-1.403-.46-2.231-.46-.767 0-1.365.153-1.794.46-.414.291-.621.72-.621 1.288 0 .46.176.828.529 1.104.353.26.813.391 1.38.391zm9.126-11.5V0h3.68v3.105h-3.68zm.092 13.685V4.462h3.496V16.79h-3.496zm6.941 0V0h3.496v16.79h-3.496zm21.587.276c-2.362 0-4.332-.797-5.911-2.392-1.564-1.61-2.346-3.588-2.346-5.934 0-2.33.789-4.301 2.369-5.911 1.579-1.61 3.588-2.415 6.026-2.415 1.395 0 2.568.23 3.519.69.95.445 1.855 1.089 2.714 1.932l-2.116 2.438c-.69-.629-1.342-1.081-1.955-1.357-.598-.291-1.327-.437-2.185-.437-1.35 0-2.469.49-3.358 1.472-.874.966-1.311 2.162-1.311 3.588 0 1.41.437 2.607 1.311 3.588.889.981 2.008 1.472 3.358 1.472.858 0 1.602-.153 2.231-.46.628-.307 1.295-.782 2.001-1.426l2.254 2.415c-.874.935-1.825 1.625-2.852 2.07-1.012.445-2.262.667-3.749.667zm9.229-.276V0h3.496v16.79h-3.496zm10.873.23c-1.318 0-2.346-.406-3.082-1.219-.736-.813-1.104-1.932-1.104-3.358V4.462h3.496v6.877c0 .813.184 1.434.552 1.863.368.43.89.644 1.564.644.675 0 1.204-.215 1.587-.644.399-.43.598-1.05.598-1.863V4.462h3.496V16.79h-3.496v-1.748c-1.027 1.319-2.231 1.978-3.611 1.978zm17.574 0c-1.534 0-2.814-.613-3.841-1.84v1.61h-3.496V0h3.496v6.233c.981-1.334 2.261-2.001 3.841-2.001 1.533 0 2.852.575 3.956 1.725 1.104 1.15 1.656 2.714 1.656 4.692 0 1.963-.552 3.519-1.656 4.669-1.089 1.135-2.408 1.702-3.956 1.702zm-3.036-3.91c.582.629 1.295.943 2.139.943.843 0 1.556-.314 2.139-.943.582-.644.874-1.48.874-2.507 0-.997-.292-1.81-.874-2.438-.583-.644-1.296-.966-2.139-.966-.844 0-1.557.322-2.139.966-.568.629-.851 1.457-.851 2.484 0 .997.283 1.817.851 2.461zM66.88 40.042c-1.708 0-3.115-.539-4.221-1.617C61.553 37.333 61 35.919 61 34.183c0-1.638.525-3.024 1.575-4.158 1.05-1.134 2.38-1.701 3.99-1.701 1.778 0 3.136.588 4.074 1.764.938 1.176 1.407 2.625 1.407 4.347 0 .168-.014.448-.042.84h-7.833c.154.714.469 1.26.945 1.638.476.378 1.078.567 1.806.567.994 0 1.904-.385 2.73-1.155l1.827 1.617c-1.134 1.4-2.667 2.1-4.599 2.1zm-2.751-6.762h4.809c-.098-.728-.357-1.309-.777-1.743-.406-.434-.938-.651-1.596-.651-.644 0-1.183.217-1.617.651-.42.42-.693 1.001-.819 1.743zM79.045 40c-1.4 0-2.604-.525-3.612-1.575-1.008-1.05-1.512-2.478-1.512-4.284 0-1.792.497-3.206 1.49-4.242 1.009-1.05 2.22-1.575 3.634-1.575 1.4 0 2.569.56 3.507 1.68V24.46h3.192v15.33h-3.192v-1.617C81.656 39.391 80.487 40 79.045 40zm-1.134-3.57c.532.574 1.183.861 1.953.861s1.414-.287 1.932-.861c.532-.588.798-1.351.798-2.289 0-.91-.266-1.652-.798-2.226-.518-.588-1.162-.882-1.932-.882s-1.421.294-1.953.882c-.532.574-.798 1.33-.798 2.268 0 .91.266 1.659.798 2.247zM92.334 40c-1.204 0-2.142-.371-2.814-1.113-.672-.742-1.008-1.764-1.008-3.066v-7.287h3.192v6.279c0 .742.168 1.309.504 1.701.336.392.812.588 1.428.588.616 0 1.099-.196 1.449-.588.364-.392.546-.959.546-1.701v-6.279h3.192V39.79H95.63v-1.596C94.693 39.398 93.594 40 92.334 40zm14.659.042c-1.68 0-3.08-.567-4.2-1.701-1.106-1.134-1.659-2.52-1.659-4.158 0-1.624.56-3.003 1.68-4.137 1.12-1.148 2.527-1.722 4.221-1.722 1.806 0 3.297.658 4.473 1.974l-1.869 1.89c-.784-.742-1.659-1.113-2.625-1.113-.784 0-1.435.301-1.953.903-.518.602-.777 1.337-.777 2.205 0 .882.259 1.624.777 2.226.532.588 1.225.882 2.079.882.882 0 1.743-.399 2.583-1.197l1.869 1.89c-.616.672-1.274 1.183-1.974 1.533-.7.35-1.575.525-2.625.525zm9.876-.042c-1.106 0-2.03-.308-2.772-.924-.728-.616-1.092-1.47-1.092-2.562 0-1.19.406-2.086 1.218-2.688.826-.602 1.932-.903 3.318-.903.938 0 1.855.154 2.751.462v-.189c0-1.372-.805-2.058-2.415-2.058-.966 0-2.002.203-3.108.609l-.798-2.436a10.752 10.752 0 014.368-.903c1.694 0 2.961.42 3.801 1.26.812.812 1.218 2.009 1.218 3.591v6.531h-3.087v-1.218c-.854.952-1.988 1.428-3.402 1.428zm.966-2.205c.742 0 1.344-.182 1.806-.546.462-.378.693-.854.693-1.428v-.567c-.602-.28-1.281-.42-2.037-.42-.7 0-1.246.14-1.638.42-.378.266-.567.658-.567 1.176 0 .42.161.756.483 1.008.322.238.742.357 1.26.357zm11.968 2.184c-1.05 0-1.862-.252-2.436-.756-.56-.518-.84-1.393-.84-2.625v-5.334h-1.344v-2.73h1.344v-2.877h3.192v2.877h2.646v2.73h-2.646v4.809c0 .728.343 1.092 1.029 1.092a3.25 3.25 0 001.575-.399v2.562c-.728.434-1.568.651-2.52.651zm4.978-12.684V24.46h3.36v2.835h-3.36zm.084 12.495V28.534h3.192V39.79h-3.192zm16.06-1.449c-1.162 1.134-2.611 1.701-4.347 1.701-1.736 0-3.185-.56-4.347-1.68-1.148-1.134-1.722-2.527-1.722-4.179 0-1.638.581-3.024 1.743-4.158 1.176-1.134 2.632-1.701 4.368-1.701 1.736 0 3.178.567 4.326 1.701 1.162 1.12 1.743 2.506 1.743 4.158 0 1.638-.588 3.024-1.764 4.158zm-4.305-1.05c.882 0 1.589-.294 2.121-.882.532-.602.798-1.344.798-2.226 0-.854-.28-1.582-.84-2.184-.546-.616-1.253-.924-2.121-.924-.882 0-1.589.301-2.121.903-.532.588-.798 1.323-.798 2.205 0 .854.273 1.589.819 2.205.56.602 1.274.903 2.142.903zM155 39.79V28.534h3.192v1.596c.938-1.204 2.037-1.806 3.297-1.806 1.204 0 2.142.371 2.814 1.113.672.742 1.008 1.764 1.008 3.066v7.287h-3.192v-6.279c0-.742-.168-1.309-.504-1.701-.336-.392-.812-.588-1.428-.588-.616 0-1.106.196-1.47.588-.35.392-.525.959-.525 1.701v6.279H155z" fill="#F6C478"/></svg>