<svg width="154" height="42" fill="none" xmlns="http://www.w3.org/2000/svg"><path d="M48.997 17.923v-16.1h3.266l7.544 9.913V1.823h3.496v16.1H60.29L52.493 7.688v10.235h-3.496zm21.299.23c-1.211 0-2.223-.337-3.036-1.012-.797-.675-1.196-1.61-1.196-2.806 0-1.303.445-2.285 1.334-2.944.905-.66 2.116-.989 3.634-.989 1.027 0 2.032.169 3.013.506v-.207c0-1.503-.882-2.254-2.645-2.254-1.058 0-2.193.222-3.404.667l-.874-2.668a11.776 11.776 0 014.784-.989c1.855 0 3.243.46 4.163 1.38.89.89 1.334 2.2 1.334 3.933v7.153h-3.381V16.59c-.935 1.043-2.177 1.564-3.726 1.564zm1.058-2.415c.813 0 1.472-.2 1.978-.598.506-.414.759-.935.759-1.564v-.62c-.66-.308-1.403-.46-2.231-.46-.767 0-1.365.152-1.794.46-.414.29-.621.72-.621 1.287 0 .46.176.828.529 1.104.353.26.813.391 1.38.391zm9.126-11.5V1.133h3.68v3.105h-3.68zm.092 13.685V5.595h3.496v12.328h-3.496zm6.941 0V1.133h3.496v16.79h-3.496zm21.587.277c-2.362 0-4.332-.798-5.911-2.393-1.564-1.61-2.346-3.588-2.346-5.934 0-2.33.789-4.3 2.369-5.91 1.579-1.61 3.588-2.416 6.026-2.416 1.395 0 2.568.23 3.519.69.95.445 1.855 1.089 2.714 1.932l-2.116 2.438c-.69-.629-1.342-1.08-1.955-1.357-.598-.291-1.327-.437-2.185-.437-1.35 0-2.469.49-3.358 1.472-.874.966-1.311 2.162-1.311 3.588 0 1.41.437 2.607 1.311 3.588.889.981 2.008 1.472 3.358 1.472.858 0 1.602-.153 2.231-.46.628-.307 1.295-.782 2.001-1.426l2.254 2.415c-.874.935-1.825 1.625-2.852 2.07-1.012.445-2.262.667-3.749.667zm9.229-.277V1.133h3.496v16.79h-3.496zm10.874.23c-1.319 0-2.346-.406-3.082-1.219-.736-.813-1.104-1.932-1.104-3.358v-7.98h3.496v6.876c0 .813.184 1.434.552 1.863.368.43.889.644 1.564.644.674 0 1.203-.215 1.587-.644.398-.43.598-1.05.598-1.863V5.595h3.496v12.328h-3.496v-1.748c-1.028 1.319-2.231 1.978-3.611 1.978zm17.573 0c-1.534 0-2.814-.613-3.841-1.84v1.61h-3.496V1.133h3.496v6.233c.981-1.334 2.261-2 3.841-2 1.533 0 2.852.574 3.956 1.724s1.656 2.714 1.656 4.692c0 1.963-.552 3.52-1.656 4.67-1.089 1.134-2.408 1.701-3.956 1.701zm-3.036-3.91c.582.629 1.295.943 2.139.943.843 0 1.556-.314 2.139-.943.582-.644.874-1.48.874-2.507 0-.997-.292-1.81-.874-2.438-.583-.644-1.296-.966-2.139-.966-.844 0-1.557.322-2.139.966-.568.629-.851 1.457-.851 2.484 0 .997.283 1.817.851 2.461zm-94.91 26.68v-14.7h11.087V29.1h-7.875v2.982h6.93v2.877h-6.93v3.087h7.98v2.877H48.83zm18.146.21c-1.4 0-2.604-.525-3.612-1.575-1.008-1.05-1.512-2.478-1.512-4.284 0-1.792.497-3.206 1.491-4.242 1.008-1.05 2.22-1.575 3.633-1.575 1.4 0 2.57.56 3.507 1.68v-5.544h3.192v15.33h-3.192v-1.617c-.896 1.218-2.065 1.827-3.507 1.827zm-1.134-3.57c.532.574 1.183.861 1.953.861s1.414-.287 1.932-.86c.532-.589.798-1.352.798-2.29 0-.91-.266-1.652-.798-2.226-.518-.588-1.162-.882-1.932-.882s-1.42.294-1.953.882c-.532.574-.798 1.33-.798 2.268 0 .91.266 1.66.798 2.247zm14.423 3.57c-1.204 0-2.142-.37-2.814-1.113-.672-.742-1.008-1.764-1.008-3.066v-7.287h3.192v6.28c0 .741.168 1.308.504 1.7.336.392.812.588 1.428.588.616 0 1.1-.196 1.45-.588.363-.392.545-.959.545-1.7v-6.28h3.192v11.256h-3.192v-1.596c-.938 1.204-2.037 1.806-3.297 1.806zm14.659.042c-1.68 0-3.08-.567-4.2-1.7-1.106-1.135-1.659-2.52-1.659-4.159 0-1.624.56-3.003 1.68-4.137 1.12-1.148 2.527-1.722 4.221-1.722 1.806 0 3.297.658 4.473 1.974l-1.869 1.89c-.784-.742-1.659-1.113-2.625-1.113-.784 0-1.435.301-1.953.903-.518.602-.777 1.337-.777 2.205 0 .882.26 1.624.777 2.226.532.588 1.225.882 2.08.882.881 0 1.742-.399 2.582-1.197l1.87 1.89c-.617.672-1.275 1.183-1.975 1.533-.7.35-1.575.525-2.625.525zm9.876-.042c-1.106 0-2.03-.308-2.772-.924-.728-.616-1.092-1.47-1.092-2.562 0-1.19.406-2.086 1.218-2.688.826-.602 1.932-.903 3.318-.903.938 0 1.855.154 2.751.462v-.189c0-1.372-.805-2.058-2.415-2.058-.966 0-2.002.203-3.108.61l-.798-2.437a10.752 10.752 0 014.368-.903c1.694 0 2.961.42 3.801 1.26.812.812 1.218 2.01 1.218 3.591v6.531h-3.087v-1.218c-.854.952-1.988 1.428-3.402 1.428zm.966-2.205c.742 0 1.344-.182 1.806-.546.462-.378.693-.854.693-1.428v-.567c-.602-.28-1.281-.42-2.037-.42-.7 0-1.246.14-1.638.42-.378.266-.567.658-.567 1.176 0 .42.161.756.483 1.008.322.238.742.357 1.26.357zm11.969 2.184c-1.05 0-1.862-.252-2.436-.756-.56-.518-.84-1.393-.84-2.625v-5.334h-1.344v-2.73h1.344V26.79h3.192v2.877h2.646v2.73h-2.646v4.81c0 .727.343 1.091 1.029 1.091a3.25 3.25 0 001.575-.399v2.562c-.728.434-1.568.651-2.52.651zm4.977-12.684v-2.835h3.36v2.835h-3.36zm.084 12.495V29.667h3.192v11.256h-3.192zm16.06-1.449c-1.162 1.134-2.611 1.701-4.347 1.701-1.736 0-3.185-.56-4.347-1.68-1.148-1.134-1.722-2.527-1.722-4.179 0-1.638.581-3.024 1.743-4.158 1.176-1.134 2.632-1.7 4.368-1.7 1.736 0 3.178.566 4.326 1.7 1.162 1.12 1.743 2.506 1.743 4.158 0 1.638-.588 3.024-1.764 4.158zm-4.305-1.05c.882 0 1.589-.294 2.121-.882.532-.602.798-1.344.798-2.226 0-.854-.28-1.582-.84-2.184-.546-.616-1.253-.924-2.121-.924-.882 0-1.589.301-2.121.903-.532.588-.798 1.323-.798 2.205 0 .854.273 1.59.819 2.205.56.602 1.274.903 2.142.903zm8.381 2.499V29.667h3.192v1.596c.938-1.204 2.037-1.806 3.297-1.806 1.204 0 2.142.371 2.814 1.113.672.742 1.008 1.764 1.008 3.066v7.287h-3.192v-6.279c0-.742-.168-1.309-.504-1.7-.336-.393-.812-.589-1.428-.589-.616 0-1.106.196-1.47.588-.35.392-.525.96-.525 1.701v6.28h-3.192z" fill="#F6C478"/><path d="M.85 1L37 20.969.85 41.133V1zm32.066 19.969L2.892 4.329v33.28l30.024-16.64z" fill="#F6C478" stroke="#F6C478"/></svg>