<svg width="30" height="30" fill="none" xmlns="http://www.w3.org/2000/svg"><path d="M18.113 9.3a.586.586 0 00-.817.14l-.012.015a.586.586 0 10.956.678l.012-.016a.586.586 0 00-.14-.817zm-1.335 1.661a.586.586 0 00-.825-.081 7.263 7.263 0 01-2.749 1.412.586.586 0 10.302 1.133 8.426 8.426 0 003.19-1.64.586.586 0 00.082-.824z" fill="#000"/><path d="M28.242 13.27a1.76 1.76 0 00-1.758 1.758v.292a4.987 4.987 0 01-4.133 4.907c.307-.451.486-.995.486-1.58v-.408a2.828 2.828 0 00-2.825-2.824 2.828 2.828 0 00-2.824 2.824v.407c0 .57.17 1.102.462 1.546a4.989 4.989 0 01-3.947-4.872v-.293a1.76 1.76 0 00-1.757-1.757 1.76 1.76 0 00-1.758 1.758v.292c0 1.19.242 2.34.709 3.402H6.91v-5.9a.586.586 0 00-.425-.564 7.358 7.358 0 01-5.313-7.043v-.293a.587.587 0 011.172 0v.293a6.16 6.16 0 006.152 6.152h2.82a6.16 6.16 0 006.152-6.152v-.293a.587.587 0 011.172 0v.293c0 .9-.162 1.78-.482 2.615a.586.586 0 001.094.42c.372-.97.56-1.99.56-3.035v-.293a1.76 1.76 0 00-1.758-1.758 1.76 1.76 0 00-1.757 1.758v.293a4.988 4.988 0 01-4.133 4.907 2.81 2.81 0 00.485-1.581v-.407a2.828 2.828 0 00-2.825-2.825A2.828 2.828 0 007 8.134v.407c0 .57.17 1.101.462 1.546a4.989 4.989 0 01-3.946-4.872v-.293a1.76 1.76 0 00-1.758-1.758A1.76 1.76 0 000 4.922v.293c0 1.881.605 3.665 1.749 5.158a8.584 8.584 0 003.989 2.878v6.057c0 .324.262.586.586.586h.107v9.52a.586.586 0 001.172 0v-9.52h3.923c.128.2.265.394.41.585l.12.15v8.785a.586.586 0 001.172 0v-7.588a8.563 8.563 0 002.698 1.53v6.058a.586.586 0 001.172 0v-6.487a.586.586 0 00-.425-.563 7.358 7.358 0 01-5.313-7.044v-.293a.587.587 0 011.172 0v.293a6.16 6.16 0 006.152 6.153h2.82a6.16 6.16 0 006.152-6.152v-.293a.587.587 0 011.172 0v.292a7.335 7.335 0 01-5.436 7.078.586.586 0 00-.435.566v4.243a.586.586 0 001.172 0v-3.805A8.51 8.51 0 0030 15.32v-.293a1.76 1.76 0 00-1.758-1.757zM8.172 8.134c0-.912.741-1.653 1.652-1.653.912 0 1.653.741 1.653 1.653v.407c0 .91-.742 1.652-1.653 1.652a1.654 1.654 0 01-1.652-1.652v-.407zm13.493 10.512c0 .912-.742 1.653-1.653 1.653a1.654 1.654 0 01-1.652-1.653v-.407a1.653 1.653 0 013.305 0v.407zM23.957 29a.59.59 0 00-.414-.172.59.59 0 00-.586.586.59.59 0 00.586.586.59.59 0 00.586-.586.59.59 0 00-.172-.414z" fill="#000"/><path d="M9.824 21.914a.586.586 0 00-.586.586v6.914a.586.586 0 001.172 0V22.5a.586.586 0 00-.586-.586zM27.305 4.805a.586.586 0 00-.586.586v.728a.586.586 0 001.172 0v-.728a.586.586 0 00-.586-.586zm0 3.49a.586.586 0 00-.586.586v.728a.586.586 0 001.172 0v-.728a.586.586 0 00-.586-.586zm2.109-1.381h-.729a.586.586 0 000 1.172h.729a.586.586 0 000-1.172zm-3.49 0h-.729a.586.586 0 000 1.172h.729a.586.586 0 000-1.172zM12.883 0a.586.586 0 00-.586.586v.728a.586.586 0 001.172 0V.586A.586.586 0 0012.883 0zm0 3.49a.586.586 0 00-.586.586v.729a.586.586 0 101.172 0v-.729a.586.586 0 00-.586-.586zm2.109-1.38h-.728a.586.586 0 100 1.171h.729a.586.586 0 000-1.172zm-3.49 0h-.728a.586.586 0 000 1.171h.728a.586.586 0 100-1.172z" fill="#000"/></svg>