<svg width="30" height="30" fill="none" xmlns="http://www.w3.org/2000/svg"><path d="M15.586 23.79a.586.586 0 11-1.172 0 .586.586 0 011.172 0zm12.48-5.274A3.52 3.52 0 0024.551 15a3.52 3.52 0 00-3.516 3.516 3.52 3.52 0 003.516 3.515 3.52 3.52 0 003.515-3.515zm-3.515 2.343a2.347 2.347 0 01-2.344-2.343 2.347 2.347 0 012.344-2.344 2.347 2.347 0 012.344 2.344 2.347 2.347 0 01-2.344 2.343z" fill="#fff"/><path d="M24.55 22.031c-1.476 0-2.948.613-3.951 1.607A6.998 6.998 0 0015 20.859c-2.148 0-4.23.98-5.599 2.779-1.003-.994-2.475-1.607-3.952-1.607C2.495 22.031 0 24.446 0 27.305v1.172c0 .323.262.585.586.585h28.828a.586.586 0 00.586-.585v-1.172c0-2.859-2.495-5.274-5.45-5.274zM1.173 27.305c0-2.224 1.959-4.102 4.277-4.102 1.269 0 2.527.562 3.306 1.456a7.031 7.031 0 00-.786 3.232H1.172v-.586zM15 22.03a5.86 5.86 0 015.86 5.86H9.14c0-3.257 2.653-5.86 5.86-5.86zm13.828 5.86h-6.797a7.031 7.031 0 00-.786-3.232c.779-.894 2.037-1.456 3.306-1.456 2.318 0 4.277 1.878 4.277 4.102v.586z" fill="#fff"/><path d="M8.965 18.516A3.52 3.52 0 005.449 15a3.52 3.52 0 00-3.515 3.516 3.52 3.52 0 003.515 3.515 3.52 3.52 0 003.516-3.515zm-3.516 2.343a2.347 2.347 0 01-2.344-2.343 2.347 2.347 0 012.344-2.344 2.347 2.347 0 012.344 2.344 2.347 2.347 0 01-2.344 2.343zm14.239-4.687A4.693 4.693 0 0015 11.484a4.693 4.693 0 00-4.688 4.688A4.693 4.693 0 0015 20.859a4.693 4.693 0 004.688-4.687zM15 19.687a3.52 3.52 0 01-3.516-3.515A3.52 3.52 0 0115 12.656a3.52 3.52 0 013.516 3.516A3.52 3.52 0 0115 19.687zm4.637-15.342a.586.586 0 00-.473-.398l-2.527-.367-1.132-2.314a.585.585 0 00-1.053 0l-1.13 2.314-2.528.366a.586.586 0 00-.325 1l1.83 1.784-.432 2.518a.585.585 0 00.85.618l2.262-1.19 2.262 1.19a.586.586 0 00.85-.618L17.66 6.73l1.83-1.784a.586.586 0 00.148-.6zm-3.017 1.76a.586.586 0 00-.169.52l.284 1.651-1.483-.78a.586.586 0 00-.546 0l-1.483.78.283-1.652a.587.587 0 00-.168-.519l-1.2-1.17 1.658-.24a.585.585 0 00.442-.323l.74-1.515.742 1.515c.085.175.25.295.442.323l1.659.24-1.201 1.17zm11.775 2.632a.586.586 0 00-.473-.399L26.21 8.09l-.766-1.551a.586.586 0 00-1.05 0l-.767 1.551-1.712.25a.586.586 0 00-.325.998l1.239 1.209-.293 1.705a.586.586 0 00.85.618l1.533-.805 1.531.805a.586.586 0 00.85-.618l-.292-1.705 1.239-1.209a.586.586 0 00.148-.6zM25.97 9.922a.585.585 0 00-.168.518l.144.839-.753-.396a.586.586 0 00-.546 0l-.754.396.144-.839a.586.586 0 00-.168-.518l-.61-.595.843-.122a.586.586 0 00.44-.32l.378-.764.376.763c.085.173.25.293.441.32l.843.123-.61.595zM8.473 8.737A.586.586 0 008 8.338L6.288 8.09l-.766-1.551a.585.585 0 00-1.05 0L3.705 8.09l-1.712.25a.586.586 0 00-.325.998l1.24 1.209-.293 1.705a.586.586 0 00.85.618l1.532-.805 1.531.805a.586.586 0 00.85-.618l-.292-1.705 1.24-1.209a.586.586 0 00.147-.6zM6.047 9.922a.586.586 0 00-.168.518l.144.839-.754-.396a.585.585 0 00-.545 0l-.754.396.144-.839a.585.585 0 00-.168-.518l-.61-.595.843-.122a.586.586 0 00.44-.32l.378-.764.376.763c.085.173.25.293.441.32l.843.123-.61.595zm11.52 14.048a.586.586 0 10-.643.98c.542.356.975.852 1.252 1.434a.585.585 0 101.058-.503 4.705 4.705 0 00-1.667-1.91z" fill="#fff"/></svg>