<svg width="100" height="41" viewBox="0 0 100 41" fill="none" xmlns="http://www.w3.org/2000/svg">
<g clip-path="url(#clip0_94_288)">
<path d="M32.6289 -8.42186e-06L67.1992 20.4L32.6289 41L32.6289 -8.42186e-06ZM63.293 20.4L34.582 3.4L34.582 37.4L63.293 20.4Z" fill="#F6C478"/>
<path d="M-3.58433e-06 -8.42186e-06L34.5703 20.4L0.195309 41L-3.58433e-06 -8.42186e-06ZM30.6641 20.4L1.75781 3.59999L1.95312 37.6L30.6641 20.4Z" fill="#CC7722"/>
<path d="M65.2573 -8.42186e-06L99.8276 20.4L65.2573 41L65.2573 -8.42186e-06ZM95.9214 20.4L67.2104 3.4L67.2104 37.4L95.9214 20.4Z" fill="#FFD4E4"/>
</g>
<defs>
<clipPath id="clip0_94_288">
<rect width="100" height="41" fill="white" transform="translate(100 41) rotate(180)"/>
</clipPath>
</defs>
</svg>
