<svg width="103" height="42" viewBox="0 0 103 42" fill="none" xmlns="http://www.w3.org/2000/svg">
<g clip-path="url(#clip0_116_17)">
<path d="M69.3926 -4.51649e-06L33.7852 20.8976L69.3926 42L69.3926 -4.51649e-06ZM37.8086 20.8976L67.3809 3.48292L67.3809 38.3122L37.8086 20.8976Z" fill="white"/>
<path d="M103 -7.01797e-07L67.3926 20.8976L102.799 42L103 -7.01797e-07ZM71.416 20.8976L101.189 3.6878L100.988 38.5171L71.416 20.8976Z" fill="#CC7722"/>
<path d="M35.7852 -7.01798e-07L0.177736 20.8976L35.7852 42L35.7852 -7.01798e-07ZM4.20117 20.8976L33.7734 3.48293L33.7734 38.3122L4.20117 20.8976Z" fill="#86A380"/>
</g>
<defs>
<clipPath id="clip0_116_17">
<rect width="103" height="42" fill="white" transform="matrix(1 8.74228e-08 8.74228e-08 -1 0 42)"/>
</clipPath>
</defs>
</svg>
