<svg width="30" height="30" viewBox="0 0 30 30" fill="none" xmlns="http://www.w3.org/2000/svg">
<mask id="path-1-outside-1_94_437" maskUnits="userSpaceOnUse" x="-0.53125" y="-0.547729" width="31" height="31" fill="black">
<rect fill="white" x="-0.53125" y="-0.547729" width="31" height="31"/>
<path d="M29.0625 7.03121H23.4375V4.68746C23.4375 4.56314 23.3881 4.44391 23.3002 4.356C23.2123 4.2681 23.0931 4.21871 22.9688 4.21871V0.937461C22.9688 0.863098 22.9511 0.789797 22.9172 0.723614C22.8833 0.657431 22.8341 0.600264 22.7738 0.556836C22.7137 0.513167 22.644 0.48458 22.5706 0.473485C22.4972 0.46239 22.4222 0.469113 22.3519 0.493086L19.5394 1.43059C19.4461 1.46166 19.3649 1.52129 19.3074 1.60104C19.2498 1.68079 19.2188 1.77662 19.2188 1.87496V4.21871C19.0944 4.21871 18.9752 4.2681 18.8873 4.356C18.7994 4.44391 18.75 4.56314 18.75 4.68746V7.03121H17.1436C17.3639 6.26358 17.403 5.45526 17.2576 4.66997C17.1122 3.88468 16.7864 3.14389 16.3059 2.50601C15.8254 1.86812 15.2032 1.35058 14.4885 0.994182C13.7738 0.637783 12.9861 0.452271 12.1875 0.452271C11.3889 0.452271 10.6012 0.637783 9.88646 0.994182C9.17176 1.35058 8.54962 1.86812 8.06909 2.50601C7.58855 3.14389 7.26276 3.88468 7.11739 4.66997C6.97202 5.45526 7.01105 6.26358 7.23141 7.03121H0.9375C0.81318 7.03121 0.693951 7.0806 0.606044 7.1685C0.518136 7.25641 0.46875 7.37564 0.46875 7.49996V14.0625C0.46875 14.1868 0.518136 14.306 0.606044 14.3939C0.693951 14.4818 0.81318 14.5312 0.9375 14.5312H1.40625V26.7187H0.9375C0.81318 26.7187 0.693951 26.7681 0.606044 26.856C0.518136 26.9439 0.46875 27.0631 0.46875 27.1875V29.0625C0.46875 29.1868 0.518136 29.306 0.606044 29.3939C0.693951 29.4818 0.81318 29.5312 0.9375 29.5312H29.0625C29.1868 29.5312 29.306 29.4818 29.394 29.3939C29.4819 29.306 29.5312 29.1868 29.5312 29.0625V27.1875C29.5312 27.0631 29.4819 26.9439 29.394 26.856C29.306 26.7681 29.1868 26.7187 29.0625 26.7187H28.5938V14.5312H29.0625C29.1868 14.5312 29.306 14.4818 29.394 14.3939C29.4819 14.306 29.5312 14.1868 29.5312 14.0625V7.49996C29.5312 7.37564 29.4819 7.25641 29.394 7.1685C29.306 7.0806 29.1868 7.03121 29.0625 7.03121ZM22.5 5.15621V8.90621H19.6875V5.15621H22.5ZM19.6875 9.84371H22.5V11.7187H19.6875V9.84371ZM20.1562 2.21293L22.0312 1.58809V4.21871H20.1562V2.21293ZM12.1875 1.40621C13.306 1.40745 14.3783 1.85232 15.1692 2.64322C15.9601 3.43412 16.405 4.50646 16.4062 5.62496C16.4079 6.25536 16.267 6.87797 15.994 7.44619C15.721 8.01441 15.323 8.51354 14.8298 8.90621H9.54516C9.05202 8.51352 8.65407 8.01439 8.38108 7.44617C8.10809 6.87795 7.96713 6.25535 7.96875 5.62496C7.96999 4.50646 8.41486 3.43412 9.20576 2.64322C9.99666 1.85232 11.069 1.40745 12.1875 1.40621ZM16.4062 9.84371C16.5306 9.84371 16.6498 9.8931 16.7377 9.981C16.8256 10.0689 16.875 10.1881 16.875 10.3125C16.875 10.6854 16.7268 11.0431 16.4631 11.3068C16.1994 11.5706 15.8417 11.7187 15.4688 11.7187H8.90625C8.53329 11.7187 8.1756 11.5706 7.91188 11.3068C7.64816 11.0431 7.5 10.6854 7.5 10.3125C7.5 10.1881 7.54939 10.0689 7.63729 9.981C7.7252 9.8931 7.84443 9.84371 7.96875 9.84371H16.4062ZM28.5938 28.5937H1.40625V27.6562H28.5938V28.5937ZM10.7812 26.7187H5.15625V16.4062H10.7812V26.7187ZM27.6562 26.7187H11.7188V15.9375C11.7188 15.8131 11.6694 15.6939 11.5815 15.606C11.4935 15.5181 11.3743 15.4687 11.25 15.4687H4.6875C4.56318 15.4687 4.44395 15.5181 4.35604 15.606C4.26814 15.6939 4.21875 15.8131 4.21875 15.9375V26.7187H2.34375V14.5312H27.6562V26.7187ZM28.5938 13.5937H1.40625V7.96871H7.59375C7.76376 8.30303 7.97033 8.61745 8.20969 8.90621H7.96875C7.59579 8.90621 7.2381 9.05437 6.97438 9.31809C6.71066 9.58182 6.5625 9.9395 6.5625 10.3125C6.56324 10.9338 6.81041 11.5295 7.24979 11.9689C7.68917 12.4083 8.28488 12.6555 8.90625 12.6562H15.4688C16.0901 12.6555 16.6858 12.4083 17.1252 11.9689C17.5646 11.5295 17.8118 10.9338 17.8125 10.3125C17.8125 9.9395 17.6643 9.58182 17.4006 9.31809C17.1369 9.05437 16.7792 8.90621 16.4062 8.90621H16.1672C16.4059 8.61736 16.6118 8.30294 16.7812 7.96871H18.75V12.1875C18.75 12.3118 18.7994 12.431 18.8873 12.5189C18.9752 12.6068 19.0944 12.6562 19.2188 12.6562H22.9688C23.0931 12.6562 23.2123 12.6068 23.3002 12.5189C23.3881 12.431 23.4375 12.3118 23.4375 12.1875V7.96871H28.5938V13.5937Z"/>
</mask>
<path d="M29.0625 7.03121H23.4375V4.68746C23.4375 4.56314 23.3881 4.44391 23.3002 4.356C23.2123 4.2681 23.0931 4.21871 22.9688 4.21871V0.937461C22.9688 0.863098 22.9511 0.789797 22.9172 0.723614C22.8833 0.657431 22.8341 0.600264 22.7738 0.556836C22.7137 0.513167 22.644 0.48458 22.5706 0.473485C22.4972 0.46239 22.4222 0.469113 22.3519 0.493086L19.5394 1.43059C19.4461 1.46166 19.3649 1.52129 19.3074 1.60104C19.2498 1.68079 19.2188 1.77662 19.2188 1.87496V4.21871C19.0944 4.21871 18.9752 4.2681 18.8873 4.356C18.7994 4.44391 18.75 4.56314 18.75 4.68746V7.03121H17.1436C17.3639 6.26358 17.403 5.45526 17.2576 4.66997C17.1122 3.88468 16.7864 3.14389 16.3059 2.50601C15.8254 1.86812 15.2032 1.35058 14.4885 0.994182C13.7738 0.637783 12.9861 0.452271 12.1875 0.452271C11.3889 0.452271 10.6012 0.637783 9.88646 0.994182C9.17176 1.35058 8.54962 1.86812 8.06909 2.50601C7.58855 3.14389 7.26276 3.88468 7.11739 4.66997C6.97202 5.45526 7.01105 6.26358 7.23141 7.03121H0.9375C0.81318 7.03121 0.693951 7.0806 0.606044 7.1685C0.518136 7.25641 0.46875 7.37564 0.46875 7.49996V14.0625C0.46875 14.1868 0.518136 14.306 0.606044 14.3939C0.693951 14.4818 0.81318 14.5312 0.9375 14.5312H1.40625V26.7187H0.9375C0.81318 26.7187 0.693951 26.7681 0.606044 26.856C0.518136 26.9439 0.46875 27.0631 0.46875 27.1875V29.0625C0.46875 29.1868 0.518136 29.306 0.606044 29.3939C0.693951 29.4818 0.81318 29.5312 0.9375 29.5312H29.0625C29.1868 29.5312 29.306 29.4818 29.394 29.3939C29.4819 29.306 29.5312 29.1868 29.5312 29.0625V27.1875C29.5312 27.0631 29.4819 26.9439 29.394 26.856C29.306 26.7681 29.1868 26.7187 29.0625 26.7187H28.5938V14.5312H29.0625C29.1868 14.5312 29.306 14.4818 29.394 14.3939C29.4819 14.306 29.5312 14.1868 29.5312 14.0625V7.49996C29.5312 7.37564 29.4819 7.25641 29.394 7.1685C29.306 7.0806 29.1868 7.03121 29.0625 7.03121ZM22.5 5.15621V8.90621H19.6875V5.15621H22.5ZM19.6875 9.84371H22.5V11.7187H19.6875V9.84371ZM20.1562 2.21293L22.0312 1.58809V4.21871H20.1562V2.21293ZM12.1875 1.40621C13.306 1.40745 14.3783 1.85232 15.1692 2.64322C15.9601 3.43412 16.405 4.50646 16.4062 5.62496C16.4079 6.25536 16.267 6.87797 15.994 7.44619C15.721 8.01441 15.323 8.51354 14.8298 8.90621H9.54516C9.05202 8.51352 8.65407 8.01439 8.38108 7.44617C8.10809 6.87795 7.96713 6.25535 7.96875 5.62496C7.96999 4.50646 8.41486 3.43412 9.20576 2.64322C9.99666 1.85232 11.069 1.40745 12.1875 1.40621ZM16.4062 9.84371C16.5306 9.84371 16.6498 9.8931 16.7377 9.981C16.8256 10.0689 16.875 10.1881 16.875 10.3125C16.875 10.6854 16.7268 11.0431 16.4631 11.3068C16.1994 11.5706 15.8417 11.7187 15.4688 11.7187H8.90625C8.53329 11.7187 8.1756 11.5706 7.91188 11.3068C7.64816 11.0431 7.5 10.6854 7.5 10.3125C7.5 10.1881 7.54939 10.0689 7.63729 9.981C7.7252 9.8931 7.84443 9.84371 7.96875 9.84371H16.4062ZM28.5938 28.5937H1.40625V27.6562H28.5938V28.5937ZM10.7812 26.7187H5.15625V16.4062H10.7812V26.7187ZM27.6562 26.7187H11.7188V15.9375C11.7188 15.8131 11.6694 15.6939 11.5815 15.606C11.4935 15.5181 11.3743 15.4687 11.25 15.4687H4.6875C4.56318 15.4687 4.44395 15.5181 4.35604 15.606C4.26814 15.6939 4.21875 15.8131 4.21875 15.9375V26.7187H2.34375V14.5312H27.6562V26.7187ZM28.5938 13.5937H1.40625V7.96871H7.59375C7.76376 8.30303 7.97033 8.61745 8.20969 8.90621H7.96875C7.59579 8.90621 7.2381 9.05437 6.97438 9.31809C6.71066 9.58182 6.5625 9.9395 6.5625 10.3125C6.56324 10.9338 6.81041 11.5295 7.24979 11.9689C7.68917 12.4083 8.28488 12.6555 8.90625 12.6562H15.4688C16.0901 12.6555 16.6858 12.4083 17.1252 11.9689C17.5646 11.5295 17.8118 10.9338 17.8125 10.3125C17.8125 9.9395 17.6643 9.58182 17.4006 9.31809C17.1369 9.05437 16.7792 8.90621 16.4062 8.90621H16.1672C16.4059 8.61736 16.6118 8.30294 16.7812 7.96871H18.75V12.1875C18.75 12.3118 18.7994 12.431 18.8873 12.5189C18.9752 12.6068 19.0944 12.6562 19.2188 12.6562H22.9688C23.0931 12.6562 23.2123 12.6068 23.3002 12.5189C23.3881 12.431 23.4375 12.3118 23.4375 12.1875V7.96871H28.5938V13.5937Z" fill="#F6C478"/>
<path d="M29.0625 7.03121H23.4375V4.68746C23.4375 4.56314 23.3881 4.44391 23.3002 4.356C23.2123 4.2681 23.0931 4.21871 22.9688 4.21871V0.937461C22.9688 0.863098 22.9511 0.789797 22.9172 0.723614C22.8833 0.657431 22.8341 0.600264 22.7738 0.556836C22.7137 0.513167 22.644 0.48458 22.5706 0.473485C22.4972 0.46239 22.4222 0.469113 22.3519 0.493086L19.5394 1.43059C19.4461 1.46166 19.3649 1.52129 19.3074 1.60104C19.2498 1.68079 19.2188 1.77662 19.2188 1.87496V4.21871C19.0944 4.21871 18.9752 4.2681 18.8873 4.356C18.7994 4.44391 18.75 4.56314 18.75 4.68746V7.03121H17.1436C17.3639 6.26358 17.403 5.45526 17.2576 4.66997C17.1122 3.88468 16.7864 3.14389 16.3059 2.50601C15.8254 1.86812 15.2032 1.35058 14.4885 0.994182C13.7738 0.637783 12.9861 0.452271 12.1875 0.452271C11.3889 0.452271 10.6012 0.637783 9.88646 0.994182C9.17176 1.35058 8.54962 1.86812 8.06909 2.50601C7.58855 3.14389 7.26276 3.88468 7.11739 4.66997C6.97202 5.45526 7.01105 6.26358 7.23141 7.03121H0.9375C0.81318 7.03121 0.693951 7.0806 0.606044 7.1685C0.518136 7.25641 0.46875 7.37564 0.46875 7.49996V14.0625C0.46875 14.1868 0.518136 14.306 0.606044 14.3939C0.693951 14.4818 0.81318 14.5312 0.9375 14.5312H1.40625V26.7187H0.9375C0.81318 26.7187 0.693951 26.7681 0.606044 26.856C0.518136 26.9439 0.46875 27.0631 0.46875 27.1875V29.0625C0.46875 29.1868 0.518136 29.306 0.606044 29.3939C0.693951 29.4818 0.81318 29.5312 0.9375 29.5312H29.0625C29.1868 29.5312 29.306 29.4818 29.394 29.3939C29.4819 29.306 29.5312 29.1868 29.5312 29.0625V27.1875C29.5312 27.0631 29.4819 26.9439 29.394 26.856C29.306 26.7681 29.1868 26.7187 29.0625 26.7187H28.5938V14.5312H29.0625C29.1868 14.5312 29.306 14.4818 29.394 14.3939C29.4819 14.306 29.5312 14.1868 29.5312 14.0625V7.49996C29.5312 7.37564 29.4819 7.25641 29.394 7.1685C29.306 7.0806 29.1868 7.03121 29.0625 7.03121ZM22.5 5.15621V8.90621H19.6875V5.15621H22.5ZM19.6875 9.84371H22.5V11.7187H19.6875V9.84371ZM20.1562 2.21293L22.0312 1.58809V4.21871H20.1562V2.21293ZM12.1875 1.40621C13.306 1.40745 14.3783 1.85232 15.1692 2.64322C15.9601 3.43412 16.405 4.50646 16.4062 5.62496C16.4079 6.25536 16.267 6.87797 15.994 7.44619C15.721 8.01441 15.323 8.51354 14.8298 8.90621H9.54516C9.05202 8.51352 8.65407 8.01439 8.38108 7.44617C8.10809 6.87795 7.96713 6.25535 7.96875 5.62496C7.96999 4.50646 8.41486 3.43412 9.20576 2.64322C9.99666 1.85232 11.069 1.40745 12.1875 1.40621ZM16.4062 9.84371C16.5306 9.84371 16.6498 9.8931 16.7377 9.981C16.8256 10.0689 16.875 10.1881 16.875 10.3125C16.875 10.6854 16.7268 11.0431 16.4631 11.3068C16.1994 11.5706 15.8417 11.7187 15.4688 11.7187H8.90625C8.53329 11.7187 8.1756 11.5706 7.91188 11.3068C7.64816 11.0431 7.5 10.6854 7.5 10.3125C7.5 10.1881 7.54939 10.0689 7.63729 9.981C7.7252 9.8931 7.84443 9.84371 7.96875 9.84371H16.4062ZM28.5938 28.5937H1.40625V27.6562H28.5938V28.5937ZM10.7812 26.7187H5.15625V16.4062H10.7812V26.7187ZM27.6562 26.7187H11.7188V15.9375C11.7188 15.8131 11.6694 15.6939 11.5815 15.606C11.4935 15.5181 11.3743 15.4687 11.25 15.4687H4.6875C4.56318 15.4687 4.44395 15.5181 4.35604 15.606C4.26814 15.6939 4.21875 15.8131 4.21875 15.9375V26.7187H2.34375V14.5312H27.6562V26.7187ZM28.5938 13.5937H1.40625V7.96871H7.59375C7.76376 8.30303 7.97033 8.61745 8.20969 8.90621H7.96875C7.59579 8.90621 7.2381 9.05437 6.97438 9.31809C6.71066 9.58182 6.5625 9.9395 6.5625 10.3125C6.56324 10.9338 6.81041 11.5295 7.24979 11.9689C7.68917 12.4083 8.28488 12.6555 8.90625 12.6562H15.4688C16.0901 12.6555 16.6858 12.4083 17.1252 11.9689C17.5646 11.5295 17.8118 10.9338 17.8125 10.3125C17.8125 9.9395 17.6643 9.58182 17.4006 9.31809C17.1369 9.05437 16.7792 8.90621 16.4062 8.90621H16.1672C16.4059 8.61736 16.6118 8.30294 16.7812 7.96871H18.75V12.1875C18.75 12.3118 18.7994 12.431 18.8873 12.5189C18.9752 12.6068 19.0944 12.6562 19.2188 12.6562H22.9688C23.0931 12.6562 23.2123 12.6068 23.3002 12.5189C23.3881 12.431 23.4375 12.3118 23.4375 12.1875V7.96871H28.5938V13.5937Z" stroke="#F6C478" stroke-width="0.6" mask="url(#path-1-outside-1_94_437)"/>
<path d="M25.9901 16.015L25.9901 16.015C26.0929 16.12 26.15 16.2619 26.15 16.4091V24.5909C26.15 24.7381 26.0929 24.88 25.9901 24.985C25.8872 25.0903 25.747 25.15 25.6 25.15H14.4C14.253 25.15 14.1128 25.0903 14.0099 24.985M25.9901 16.015L14.0099 24.985C14.0099 24.985 14.0099 24.985 14.0099 24.985M25.9901 16.015C25.8872 15.9097 25.747 15.85 25.6 15.85M25.9901 16.015L25.6 15.85M14.0099 24.985C13.9071 24.88 13.85 24.7381 13.85 24.5909M14.0099 24.985L13.85 24.5909M25.6 15.85H14.4M25.6 15.85H14.4M14.4 15.85C14.253 15.85 14.1128 15.9097 14.0099 16.015M14.4 15.85L14.0099 16.015M14.0099 16.015C13.9071 16.12 13.85 16.2619 13.85 16.4091M14.0099 16.015L13.85 16.4091M13.85 16.4091V24.5909M13.85 16.4091V24.5909M14.95 16.9682H25.05V24.0318H14.95V16.9682Z" fill="#F6C478" stroke="#F6C478" stroke-width="0.3"/>
<path d="M8.90625 20.475H8.75625V20.625V21.5625V21.7125H8.90625H9.84375H9.99375V21.5625V20.625V20.475H9.84375H8.90625Z" fill="#F6C478" stroke="#F6C478" stroke-width="0.3"/>
<path d="M15.6188 5.62517V5.625C15.6188 4.94636 15.4175 4.28297 15.0405 3.7187C14.6635 3.15443 14.1276 2.71464 13.5006 2.45494C12.8736 2.19524 12.1837 2.12729 11.5181 2.25968C10.8525 2.39208 10.2411 2.71887 9.76124 3.19874C9.28137 3.67861 8.95458 4.29 8.82218 4.9556C8.68979 5.62119 8.75774 6.3111 9.01744 6.93808C9.27714 7.56506 9.71694 8.10094 10.2812 8.47798C10.8455 8.85501 11.5089 9.05624 12.1875 9.05624H12.1877C13.0973 9.05521 13.9694 8.69339 14.6127 8.05016C15.2559 7.40693 15.6177 6.53483 15.6188 5.62517ZM12.1873 7.81875C11.7535 7.81871 11.3294 7.69005 10.9687 7.44903C10.608 7.20798 10.3268 6.86536 10.1607 6.46451C9.9947 6.06365 9.95126 5.62256 10.0359 5.19702C10.1206 4.77147 10.3295 4.38059 10.6363 4.07378C10.9431 3.76698 11.334 3.55805 11.7595 3.4734C12.1851 3.38876 12.6262 3.4322 13.027 3.59824C13.4279 3.76428 13.7705 4.04546 14.0115 4.40622C14.2526 4.76693 14.3812 5.191 14.3813 5.62482C14.3806 6.20647 14.1492 6.7641 13.7379 7.17539C13.3266 7.58668 12.769 7.81805 12.1873 7.81875Z" fill="#F6C478" stroke="#F6C478" stroke-width="0.3"/>
<path d="M17.2269 21.655L17.1209 21.7611L17.2269 21.8672L17.715 22.3553L17.8211 22.4613L17.9272 22.3553L20.6882 19.5942L20.7943 19.4881L20.6882 19.3821L20.2001 18.894L20.0941 18.7879L19.988 18.894L17.2269 21.655Z" fill="#F6C478" stroke="#F6C478" stroke-width="0.3"/>
<path d="M19.6781 21.6553L19.572 21.7614L19.6781 21.8674L20.1662 22.3555L20.2723 22.4616L20.3783 22.3555L23.1394 19.5944L23.2455 19.4884L23.1394 19.3823L22.6513 18.8942L22.5453 18.7882L22.4392 18.8942L19.6781 21.6553Z" fill="#F6C478" stroke="#F6C478" stroke-width="0.3"/>
</svg>
