<svg width="30" height="30" viewBox="0 0 30 30" fill="none" xmlns="http://www.w3.org/2000/svg">
<path d="M15.0065 0.850006L15.0065 0.850006C7.19116 0.857519 0.855334 7.18717 0.840243 15.0025L0.840242 15.0026C0.837316 17.7275 1.63709 20.3922 3.13889 22.6643L0.906023 28.0125L0.906008 28.0125L0.905184 28.0145C0.735304 28.4389 0.941666 28.9207 1.36605 29.0906L1.36609 29.0906C1.56352 29.1696 1.78381 29.1696 1.98128 29.0907L1.98129 29.0907L1.98336 29.0898L7.33231 26.8566C13.8553 31.0827 22.5752 29.2505 26.8427 22.7427C31.1249 16.2126 29.3025 7.44753 22.7724 3.16542C20.4651 1.6524 17.7656 0.847565 15.0065 0.850006ZM15.0067 27.5001H14.8567V27.5115C12.3646 27.462 9.94161 26.6756 7.89441 25.2496C7.76209 25.1573 7.60577 25.1057 7.44472 25.101C7.34477 25.0831 7.24228 25.0839 7.14257 25.1036L7.12709 25.1066L7.11257 25.1128L3.21056 26.7834L4.84266 22.8963C4.8427 22.8962 4.84275 22.8961 4.84279 22.896C4.95314 22.6345 4.92192 22.3346 4.75985 22.1016L4.75892 22.1003C3.28462 20.0275 2.49351 17.5465 2.49583 15.0029L2.49583 15.0026C2.48842 8.09307 8.0837 2.48581 14.9933 2.4784C21.9028 2.47099 27.5101 8.06626 27.5175 14.9758C27.5249 21.8854 21.9296 27.4926 15.0201 27.5001H15.0201H15.02H15.02H15.02H15.0199H15.0199H15.0199H15.0199H15.0198H15.0198H15.0198H15.0198H15.0197H15.0197H15.0197H15.0197H15.0196H15.0196H15.0196H15.0196H15.0195H15.0195H15.0195H15.0194H15.0194H15.0194H15.0194H15.0193H15.0193H15.0193H15.0193H15.0192H15.0192H15.0192H15.0192H15.0191H15.0191H15.0191H15.019H15.019H15.019H15.019H15.0189H15.0189H15.0189H15.0189H15.0188H15.0188H15.0188H15.0188H15.0187H15.0187H15.0187H15.0187H15.0186H15.0186H15.0186H15.0185H15.0185H15.0185H15.0185H15.0184H15.0184H15.0184H15.0184H15.0183H15.0183H15.0183H15.0183H15.0182H15.0182H15.0182H15.0181H15.0181H15.0181H15.0181H15.018H15.018H15.018H15.018H15.0179H15.0179H15.0179H15.0179H15.0178H15.0178H15.0178H15.0178H15.0177H15.0177H15.0177H15.0176H15.0176H15.0176H15.0176H15.0175H15.0175H15.0175H15.0175H15.0174H15.0174H15.0174H15.0174H15.0173H15.0173H15.0173H15.0173H15.0172H15.0172H15.0172H15.0171H15.0171H15.0171H15.0171H15.017H15.017H15.017H15.017H15.0169H15.0169H15.0169H15.0169H15.0168H15.0168H15.0168H15.0167H15.0167H15.0167H15.0167H15.0166H15.0166H15.0166H15.0166H15.0165H15.0165H15.0165H15.0165H15.0164H15.0164H15.0164H15.0164H15.0163H15.0163H15.0163H15.0162H15.0162H15.0162H15.0162H15.0161H15.0161H15.0161H15.0161H15.016H15.016H15.016H15.016H15.0159H15.0159H15.0159H15.0159H15.0158H15.0158H15.0158H15.0157H15.0157H15.0157H15.0157H15.0156H15.0156H15.0156H15.0156H15.0155H15.0155H15.0155H15.0155H15.0154H15.0154H15.0154H15.0153H15.0153H15.0153H15.0153H15.0152H15.0152H15.0152H15.0152H15.0151H15.0151H15.0151H15.0151H15.015H15.015H15.015H15.015H15.0149H15.0149H15.0149H15.0148H15.0148H15.0148H15.0148H15.0147H15.0147H15.0147H15.0147H15.0146H15.0146H15.0146H15.0146H15.0145H15.0145H15.0145H15.0144H15.0144H15.0144H15.0144H15.0143H15.0143H15.0143H15.0143H15.0142H15.0142H15.0142H15.0142H15.0141H15.0141H15.0141H15.0141H15.014H15.014H15.014H15.0139H15.0139H15.0139H15.0139H15.0138H15.0138H15.0138H15.0138H15.0137H15.0137H15.0137H15.0137H15.0136H15.0136H15.0136H15.0135H15.0135H15.0135H15.0135H15.0134H15.0134H15.0134H15.0134H15.0133H15.0133H15.0133H15.0133H15.0132H15.0132H15.0132H15.0132H15.0131H15.0131H15.0131H15.013H15.013H15.013H15.013H15.0129H15.0129H15.0129H15.0129H15.0128H15.0128H15.0128H15.0128H15.0127H15.0127H15.0127H15.0127H15.0126H15.0126H15.0126H15.0125H15.0125H15.0125H15.0125H15.0124H15.0124H15.0124H15.0124H15.0123H15.0123H15.0123H15.0123H15.0122H15.0122H15.0122H15.0121H15.0121H15.0121H15.0121H15.012H15.012H15.012H15.012H15.0119H15.0119H15.0119H15.0119H15.0118H15.0118H15.0118H15.0118H15.0117H15.0117H15.0117H15.0116H15.0116H15.0116H15.0116H15.0115H15.0115H15.0115H15.0115H15.0114H15.0114H15.0114H15.0114H15.0113H15.0113H15.0113H15.0113H15.0112H15.0112H15.0112H15.0111H15.0111H15.0111H15.0111H15.011H15.011H15.011H15.011H15.0109H15.0109H15.0109H15.0109H15.0108H15.0108H15.0108H15.0107H15.0107H15.0107H15.0107H15.0106H15.0106H15.0106H15.0106H15.0105H15.0105H15.0105H15.0105H15.0104H15.0104H15.0104H15.0104H15.0103H15.0103H15.0103H15.0102H15.0102H15.0102H15.0102H15.0101H15.0101H15.0101H15.0101H15.01H15.01H15.01H15.01H15.0099H15.0099H15.0099H15.0098H15.0098H15.0098H15.0098H15.0097H15.0097H15.0097H15.0097H15.0096H15.0096H15.0096H15.0096H15.0095H15.0095H15.0095H15.0095H15.0094H15.0094H15.0094H15.0093H15.0093H15.0093H15.0093H15.0092H15.0092H15.0092H15.0092H15.0091H15.0091H15.0091H15.0091H15.009H15.009H15.009H15.009H15.0089H15.0089H15.0089H15.0088H15.0088H15.0088H15.0088H15.0087H15.0087H15.0087H15.0087H15.0086H15.0086H15.0086H15.0086H15.0085H15.0085H15.0085H15.0084H15.0084H15.0084H15.0084H15.0083H15.0083H15.0083H15.0083H15.0082H15.0082H15.0082H15.0082H15.0081H15.0081H15.0081H15.0081H15.008H15.008H15.008H15.0079H15.0079H15.0079H15.0079H15.0078H15.0078H15.0078H15.0078H15.0077H15.0077H15.0077H15.0077H15.0076H15.0076H15.0076H15.0075H15.0075H15.0075H15.0075H15.0074H15.0074H15.0074H15.0074H15.0073H15.0073H15.0073H15.0073H15.0072H15.0072H15.0072H15.0072H15.0071H15.0071H15.0071H15.007H15.007H15.007H15.007H15.0069H15.0069H15.0069H15.0069H15.0068H15.0068H15.0068H15.0068H15.0067H15.0067Z" fill="#F6C478" stroke="#F6C478" stroke-width="0.3"/>
<path d="M15.0065 14.6766C14.5493 14.6766 14.1787 15.0472 14.1787 15.5044V18.5409C14.1787 18.998 14.5493 19.3687 15.0065 19.3687C15.4637 19.3687 15.8343 18.998 15.8343 18.5409V16.2569C18.1758 15.8656 19.7961 13.6796 19.4712 11.3121C19.1665 9.09225 17.2447 7.45456 15.0049 7.50571C12.5852 7.49902 10.6155 9.45053 10.6 11.8705V11.8715C10.6 12.3287 10.9706 12.6993 11.4278 12.6993C11.8845 12.6993 12.2548 12.3295 12.2556 11.873C12.2847 10.3546 13.5388 9.14695 15.0574 9.17532C16.5764 9.2037 17.7847 10.4581 17.7564 11.9772C17.7283 13.476 16.5055 14.6764 15.0065 14.6766ZM15.0065 14.6766V14.8266M15.0065 14.6766V14.8266M15.0065 14.8266C16.5873 14.8264 17.8768 13.5605 17.9063 11.98C17.9363 10.3781 16.6621 9.05527 15.0602 9.02535C13.4583 8.99542 12.1355 10.2697 12.1056 11.8715L15.0064 7.65571C17.1708 7.60532 19.0282 9.18757 19.3226 11.3325C19.6421 13.6614 18.0132 15.8085 15.6843 16.128V18.5409C15.6843 18.9152 15.3808 19.2187 15.0065 19.2187C14.6322 19.2187 14.3287 18.9152 14.3287 18.5409V15.5044C14.3287 15.1301 14.6322 14.8266 15.0065 14.8266Z" fill="#F6C478" stroke="#F6C478" stroke-width="0.3"/>
<path d="M14.9503 22.5424C15.4429 22.5424 15.8422 22.1431 15.8422 21.6505C15.8422 21.158 15.4429 20.7587 14.9503 20.7587C14.4578 20.7587 14.0585 21.158 14.0585 21.6505C14.0585 22.1431 14.4578 22.5424 14.9503 22.5424Z" fill="#F6C478" stroke="#F6C478" stroke-width="0.3"/>
</svg>
