<svg width="30" height="30" viewBox="0 0 30 30" fill="none" xmlns="http://www.w3.org/2000/svg">
<g clip-path="url(#clip0_94_464)">
<path d="M12.4324 22.0537C12.3676 21.8198 12.505 21.5776 12.7389 21.5128C13.4626 21.3126 14.2136 21.2109 14.9707 21.2109C16.9872 21.2109 18.9066 21.9273 20.4224 23.2368L20.5205 23.1233C20.4838 23.0915 20.4468 23.0601 20.4096 23.0291C21.5789 21.7312 22.2914 20.0147 22.2914 18.1348V10.1074C22.2914 8.58907 21.4841 7.20159 20.1597 6.18884C18.8353 5.17604 17.0003 4.54453 14.9707 4.54453C12.9411 4.54453 11.1061 5.17604 9.78169 6.18884C8.45734 7.20159 7.65 8.58907 7.65 10.1074V18.1348C7.65 20.0152 8.36292 21.7317 9.53259 23.0298C9.96995 22.6652 10.4431 22.3442 10.9456 22.0734L10.9457 22.0733C11.232 21.9193 11.5897 22.026 11.7442 22.3128M12.4324 22.0537L11.6121 22.384M12.4324 22.0537C12.4972 22.2874 12.7396 22.4245 12.9733 22.3599L12.4324 22.0537ZM11.7442 22.3128L11.6121 22.384M11.7442 22.3128C11.7441 22.3128 11.7441 22.3128 11.7441 22.3128L11.6121 22.384M11.7442 22.3128C11.8986 22.5993 11.7914 22.9569 11.5047 23.1113M11.6121 22.384C11.7272 22.5975 11.6473 22.8642 11.4336 22.9793M11.5047 23.1113C11.5047 23.1113 11.5047 23.1113 11.5047 23.1113L11.4336 22.9793M11.5047 23.1113L11.4336 22.9793M11.5047 23.1113L11.4336 22.9793M23.4703 7.30815C25.172 9.3171 26.107 11.8624 26.107 14.502V29.5605C26.107 29.8862 25.8433 30.15 25.5176 30.15C25.1919 30.15 24.9281 29.8862 24.9281 29.5605V14.502C24.9281 12.6589 24.4181 10.8674 23.4703 9.31558V18.1348C23.4703 20.518 22.4839 22.6747 20.8991 24.2192C20.8898 24.2307 20.879 24.2432 20.8668 24.2558M23.4703 7.30815L9.18251 24.1516M23.4703 7.30815V6.5918C23.4703 4.75678 22.5601 3.04713 20.9258 1.77627C19.326 0.531752 17.2102 -0.15 14.9707 -0.15C12.7312 -0.15 10.6154 0.531758 9.01557 1.77629C7.38128 3.04715 6.47109 4.75679 6.47109 6.5918V7.30816L23.4703 7.30815ZM20.8668 24.2558C20.844 24.2797 20.8204 24.2997 20.7975 24.3169C19.2751 25.7527 17.2239 26.6344 14.9707 26.6344C12.7172 26.6344 10.6658 25.7525 9.14335 24.3166C9.12144 24.2998 9.0973 24.2797 9.07386 24.255M20.8668 24.2558C20.8666 24.256 20.8664 24.2563 20.8661 24.2565L20.7589 24.1516L20.8675 24.255C20.8673 24.2553 20.8671 24.2555 20.8668 24.2558ZM9.07386 24.255L9.18251 24.1516M9.07386 24.255C9.07396 24.2551 9.07406 24.2552 9.07416 24.2553L9.18251 24.1516M9.07386 24.255C9.06258 24.2432 9.05204 24.2312 9.04222 24.219M9.18251 24.1516C9.17221 24.1409 9.1626 24.1296 9.15367 24.1182M9.04222 24.219C9.04452 24.2213 9.04681 24.2235 9.04911 24.2257L9.15367 24.1182M9.04222 24.219C9.03991 24.2162 9.03763 24.2133 9.0354 24.2104L9.15367 24.1182M9.04222 24.219L9.15367 24.1182M10.2776 23.9427C10.2381 23.9108 10.1989 23.8784 10.1601 23.8456C10.1989 23.8128 10.2381 23.7805 10.2777 23.7485C10.3168 23.7813 10.3563 23.8137 10.3962 23.8457C10.3563 23.8776 10.3168 23.91 10.2776 23.9427ZM19.6638 23.7482C19.7033 23.7802 19.7424 23.8126 19.7813 23.8454C19.7425 23.8781 19.7033 23.9105 19.6638 23.9425C19.6246 23.9097 19.5851 23.8773 19.5453 23.8454C19.5851 23.8134 19.6246 23.781 19.6638 23.7482ZM6.47109 9.03332C6.52004 8.95732 6.57004 8.88192 6.62109 8.80714V9.07763C6.56994 9.15629 6.51993 9.23562 6.47109 9.31559V9.03332ZM14.9707 1.02891C17.0003 1.02891 18.8353 1.66041 20.1597 2.67322C21.4841 3.68596 22.2914 5.07344 22.2914 6.5918V6.67025C21.9181 6.17089 21.4609 5.70777 20.9258 5.29167C19.326 4.04738 17.2102 3.36562 14.9707 3.36562C12.7312 3.36562 10.6154 4.04737 9.01561 5.29188C8.48056 5.7078 8.0233 6.17089 7.65 6.67037V6.5918C7.65 5.07344 8.45734 3.68596 9.78169 2.67322C11.1061 1.66041 12.9411 1.02891 14.9707 1.02891Z" fill="#F6C478" stroke="#F6C478" stroke-width="0.3"/>
</g>
<defs>
<clipPath id="clip0_94_464">
<rect width="30" height="30" fill="white"/>
</clipPath>
</defs>
</svg>
