<svg width="30" height="30" viewBox="0 0 30 30" fill="none" xmlns="http://www.w3.org/2000/svg">
<g clip-path="url(#clip0_94_398)">
<path d="M27.2146 1.38197L27.2147 1.38246L28.1483 14.4537L28.1483 14.4541C28.1493 14.4691 28.1499 14.4844 28.1499 14.5C28.1499 14.8589 27.8589 15.15 27.4999 15.15H25.6499V23.9418L26.6394 29.3837L27.2146 1.38197ZM27.2146 1.38197C27.1502 0.520015 26.4336 -0.147239 25.5692 -0.15H25.5688M27.2146 1.38197L25.5688 -0.15M25.5688 -0.15L22.4312 -0.150001L22.4307 -0.149999M25.5688 -0.15L22.4307 -0.149999M22.4307 -0.149999C21.5665 -0.147101 20.8499 0.52014 20.7855 1.38198L20.7855 1.38246M22.4307 -0.149999L20.7855 1.38246M20.7855 1.38246L19.8517 14.4537C19.8517 14.4537 19.8517 14.4537 19.8517 14.4537C19.8261 14.8118 20.0957 15.1228 20.4537 15.1484L20.4541 15.1484M20.7855 1.38246L20.4541 15.1484M20.4541 15.1484C20.4691 15.1494 20.4844 15.15 20.5 15.15H22.35V23.9411L21.3604 29.384L21.3604 29.3841M20.4541 15.1484L21.3604 29.3841M21.3604 29.3841C21.2963 29.7373 21.5308 30.0756 21.884 30.1396M21.3604 29.3841L21.884 30.1396M21.884 30.1396C21.9222 30.1465 21.961 30.1501 22 30.1501M21.884 30.1396L22 30.1501M22 30.1501H26M22 30.1501H26M26 30.1501C26.359 30.1501 26.6499 29.8591 26.6499 29.5001M26 30.1501L26.6499 29.5001M26.6499 29.5001C26.6499 29.4611 26.6464 29.4222 26.6394 29.3838L26.6499 29.5001ZM24.4574 24.65L25.221 28.85H22.7788L23.5424 24.65H24.4574ZM24.35 23.35H23.65V15.15H24.35V23.35ZM25.9178 1.47561L26.8019 13.85H21.1981L22.082 1.4756C22.082 1.47553 22.082 1.47545 22.082 1.47538C22.0958 1.29232 22.248 1.15065 22.4315 1.14997H25.5685C25.7519 1.1507 25.904 1.29235 25.9178 1.47539C25.9178 1.47546 25.9178 1.47553 25.9178 1.47561Z" fill="#F6C478" stroke="#F6C478" stroke-width="0.3"/>
<path d="M14.6328 30.15H14.6332C15.7382 30.147 16.7262 29.4612 17.1153 28.427L17.1155 28.4266C17.4945 27.4089 18.0024 25.9496 18.4158 24.4233C18.8285 22.8995 19.1499 21.2982 19.1499 20C19.1499 17.1375 17.7727 15.609 16.6105 14.8342L16.6099 14.8338C16.0092 14.4376 15.3467 14.145 14.6499 13.9677V10.5C14.6499 10.141 14.3589 9.85 13.9999 9.85H7.99996C7.64095 9.85 7.34998 10.1411 7.34998 10.5V13.9677C6.65316 14.1449 5.9907 14.4376 5.39003 14.8338L5.38941 14.8342C4.22718 15.609 2.85 17.1375 2.85 20C2.85 21.2982 3.17144 22.8996 3.58411 24.4233C3.99745 25.9496 4.50538 27.4089 4.8844 28.4266L4.88458 28.427C5.27367 29.4612 6.26172 30.147 7.36668 30.15H7.36707H14.6328ZM9.6366 19.4121L9.63651 19.4121C8.30376 18.6955 6.70596 18.6715 5.35227 19.3475L5.35219 19.3475L4.15014 19.9486C4.16439 17.8584 5.04879 16.6787 5.96654 16.0103C6.88324 15.3426 7.84468 15.1776 8.0415 15.15H13.9584C14.1477 15.1766 15.0243 15.3276 15.8967 15.9148C16.7646 16.4991 17.6343 17.5185 17.8154 19.3019L15.6299 20.6925C15.6299 20.6925 15.6298 20.6925 15.6298 20.6926C14.6063 21.3431 13.3114 21.3902 12.2433 20.8157C12.2433 20.8157 12.2433 20.8157 12.2432 20.8157L9.6366 19.4121ZM11.6268 21.9605L11.6269 21.9605C13.1094 22.7578 14.9069 22.6924 16.3276 21.7895L16.3276 21.7895L17.8047 20.8496C17.639 22.5557 17.0384 24.6584 16.4714 26.3501H5.52835C5.0164 24.822 4.4759 22.956 4.25418 21.3499L5.93326 20.5103C6.90866 20.0232 8.05991 20.0405 9.02011 20.5569C9.02013 20.5569 9.02016 20.5569 9.02018 20.5569L11.6268 21.9605ZM13.35 11.15V11.85H12.4999C12.1409 11.85 11.85 12.1411 11.85 12.5C11.85 12.8589 12.141 13.15 12.4999 13.15H13.35V13.85H8.64994V13.15H10.4999C10.859 13.15 11.1499 12.8589 11.1499 12.5C11.1499 12.141 10.8589 11.85 10.4999 11.85H8.64994V11.15H13.35ZM6.10266 27.9725C6.06435 27.8697 6.0246 27.7619 5.98373 27.6499H16.0163C15.9755 27.762 15.9358 27.8698 15.8974 27.9723C15.699 28.4992 15.1955 28.8486 14.6325 28.8499H7.36743C6.8045 28.8486 6.30107 28.4993 6.10266 27.9725Z" fill="#F6C478" stroke="#F6C478" stroke-width="0.3"/>
</g>
<defs>
<clipPath id="clip0_94_398">
<rect width="30" height="30" fill="white"/>
</clipPath>
</defs>
</svg>
