<svg width="30" height="30" viewBox="0 0 30 30" fill="none" xmlns="http://www.w3.org/2000/svg">
<path d="M7.34713 21.4139V21.4138C7.34705 21.0882 7.08319 20.8242 6.7575 20.8242C6.43184 20.8242 6.16787 21.0882 6.16787 21.4139V22.3374C6.16787 22.663 6.43184 22.927 6.7575 22.927C7.08316 22.927 7.34713 22.663 7.34713 22.3374V21.4139Z" fill="#F6C478" stroke="#F6C478" stroke-width="0.3"/>
<path d="M9.9455 5.77287L9.94551 5.77287C9.94614 5.77123 9.94609 5.77135 9.94602 5.77154C9.94591 5.7718 9.94576 5.77217 9.94707 5.76879C9.94779 5.76692 9.94891 5.76404 9.95035 5.76066C10.0525 5.51019 10.2937 5.34792 10.5642 5.34792C10.8353 5.34792 11.0769 5.51092 11.1787 5.76214L11.0397 5.81849L11.1784 5.7615C11.1803 5.76603 11.1822 5.77084 11.1841 5.77594L12.3865 8.96104L12.3865 8.96106C12.5015 9.26573 12.3477 9.60592 12.0431 9.7209M9.9455 5.77287L11.9901 9.58056M9.9455 5.77287L9.94519 5.77369L8.73108 8.95942L9.9455 5.77287ZM12.0431 9.7209L11.9901 9.58056M12.0431 9.7209C12.0431 9.72088 12.0432 9.72087 12.0432 9.72085L11.9901 9.58056M12.0431 9.7209C11.9748 9.74674 11.9043 9.75904 11.835 9.75904C11.597 9.75904 11.3725 9.61384 11.2833 9.37755L11.4236 9.32457C11.4901 9.50058 11.6574 9.60904 11.835 9.60904C11.8865 9.60904 11.939 9.5999 11.9901 9.58056M11.1282 8.96668L11.2833 9.37754L9.8869 8.81667M11.1282 8.96668H11.2319V8.81667L11.0915 8.86966L11.1282 8.96668ZM11.1282 8.96668H9.99025M9.99025 8.96668L10.0271 8.8701L9.8869 8.81667M9.99025 8.96668L9.83296 9.3793M9.99025 8.96668H9.8869V8.81667M9.8869 8.81667L9.83296 9.3793M9.83296 9.3793L9.69278 9.32591L9.83294 9.37934C9.71704 9.6836 9.37632 9.83644 9.07209 9.72033C9.07205 9.72031 9.072 9.7203 9.07196 9.72028L9.12548 9.58015C8.89854 9.49373 8.78476 9.23972 8.87124 9.01285L9.83296 9.3793ZM10.683 7.78742H10.4396L10.5619 7.46661L10.683 7.78742Z" fill="#F6C478" stroke="#F6C478" stroke-width="0.3"/>
<path d="M22.9897 9.17427V7.83098L24.1022 9.44281L24.1022 9.44282L24.1031 9.4441L24.1062 9.44847L24.1062 9.44849L24.1079 9.45092C24.2728 9.68138 24.5527 9.78511 24.8205 9.69926L24.8206 9.69923C25.0944 9.6113 25.2618 9.35578 25.2618 9.06212L25.2618 9.06069L25.2319 5.92814L25.2319 5.92809C25.2287 5.60242 24.9619 5.3411 24.6367 5.34417L24.6367 5.34417C24.3111 5.34731 24.0496 5.61376 24.0527 5.93938C24.0527 5.93939 24.0527 5.93939 24.0527 5.9394L24.0659 7.31414L22.8853 5.60378L22.8853 5.60373C22.7388 5.39157 22.4713 5.29908 22.2247 5.37584L22.2247 5.37586C21.9783 5.45263 21.8104 5.68068 21.8104 5.93877V9.17432C21.8104 9.49993 22.0744 9.7639 22.4001 9.7639C22.7257 9.7639 22.9897 9.49992 22.9897 9.17427Z" fill="#F6C478" stroke="#F6C478" stroke-width="0.3"/>
<path d="M15.1868 8.578L15.1876 8.57799L15.1877 8.578H15.1877H15.1877H15.1877H15.1877H15.1877H15.1877H15.1877H15.1877H15.1877H15.1877H15.1877H15.1877H15.1877H15.1877H15.1877H15.1877H15.1877H15.1878H15.1878H15.1878H15.1878H15.1878H15.1878H15.1878H15.1878H15.1878H15.1878H15.1878H15.1878H15.1878H15.1878H15.1878H15.1878H15.1878H15.1878H15.1879H15.1879H15.1879H15.1879H15.1879H15.1879H15.1879H15.1879H15.1879H15.1879H15.1879H15.1879H15.1879H15.1879H15.1879H15.1879H15.1879H15.1879H15.1879H15.188H15.188H15.188H15.188H15.188H15.188H15.188H15.188H15.188H15.188H15.188H15.188H15.188H15.188H15.188H15.188H15.188H15.188H15.1881H15.1881H15.1881H15.1881H15.1881H15.1881H15.1881H15.1881H15.1881H15.1881H15.1881H15.1881H15.1881H15.1881H15.1881H15.1881H15.1881H15.1881H15.1881H15.1882H15.1882H15.1882H15.1882H15.1882H15.1882H15.1882H15.1882H15.1882H15.1882H15.1882H15.1882H15.1882H15.1882H15.1882H15.1882H15.1882H15.1882H15.1883H15.1883H15.1883H15.1883H15.1883H15.1883H15.1883H15.1883H15.1883H15.1883H15.1883H15.1883H15.1883H15.1883H15.1883H15.1883H15.1883H15.1883H15.1883H15.1884H15.1884H15.1884H15.1884H15.1884H15.1884H15.1884H15.1884H15.1884H15.1884H15.1884H15.1884H15.1884H15.1884H15.1884H15.1884H15.1884H15.1884H15.1885H15.1885H15.1885H15.1885H15.1885H15.1885H15.1885H15.1885H15.1885H15.1885H15.1885H15.1885H15.1885H15.1885H15.1885H15.1885H15.1885H15.1885H15.1885H15.1886H15.1886H15.1886H15.1886H15.1886H15.1886H15.1886H15.1886H15.1886H15.1886H15.1886H15.1886H15.1886H15.1886H15.1886H15.1886H15.1886H15.1886H15.1886H15.1887H15.1887H15.1887H15.1887H15.1887H15.1887H15.1887H15.1887H15.1887H15.1887H15.1887H15.1887H15.1887H15.1887H15.1887H15.1887H15.1887H15.1887H15.1887H15.1888H15.1888H15.1888H15.1888H15.1888H15.1888H15.1888H15.1888H15.1888H15.1888H15.1888H15.1888H15.1888H15.1888H15.1888H15.1888H15.1888H15.1888H15.1889H15.1889H15.1889H15.1889H15.1889H15.1889H15.1889H15.1889H15.1889H15.1889H15.1889H15.1889H15.1889H15.1889H15.1889H15.1889H15.1889H15.1889H15.1889H15.189H15.189H15.189H15.189H15.189H15.189H15.189H15.189H15.189H15.189H15.189H15.189H15.189H15.189H15.189H15.189H15.189H15.189H15.189H15.1891H15.1891H15.1891H15.1891H15.1891H15.1891H15.1891H15.1891H15.1891H15.1891H15.1891H15.1891H15.1891H15.1891H15.1891H15.1891H15.1891H15.1891H15.1891H15.1892H15.1892H15.1892H15.1892H15.1892H15.1892H15.1892H15.1892H15.1892H15.1892H15.1892H15.1892H15.1892H15.1892H15.1892H15.1892H15.1892H15.1892H15.1892H15.1893H15.1893H15.1893H15.1893H15.1893H15.1893H15.1893H15.1893H15.1893H15.1893H15.1893H15.1893H15.1893H15.1893H15.1893H15.1893H15.1893H15.1893H15.1894H15.1894H15.1894H15.1894H15.1894H15.1894H15.1894H15.1894H15.1894H15.1894H15.1894H15.1894H15.1894H15.1894H15.1894H15.1894H15.1894H15.1894H15.1894H15.1895H15.1895H15.1895H15.1895H15.1895H15.1895H15.1895H15.1895H15.1895H15.1895H15.1895H15.1895H15.1895H15.1895H15.1895H15.1895H15.1895H15.1895H15.1895H15.1896H15.1896H15.1896H15.1896H15.1896H15.1896H15.1896H15.1896H15.1896H15.1896H15.1896H15.1896H15.1896H15.1896H15.1896H15.1896H15.1896H15.1896H15.1896H15.1897H15.1897H15.1897H15.1897H15.1897H15.1897H15.1897H15.1897H15.1897H15.1897H15.1897H15.1897H15.1897H15.1897H15.1897H15.1897H15.1897H15.1897H15.1898H15.1898H15.1898H15.1898H15.1898H15.1898H15.1898H15.1898H15.1898H15.1898H15.1898H15.1898H15.1898H15.1898H15.1898H15.1898H15.1898H15.1898H15.1898H15.1899H15.1899H15.1899H15.1899H15.1899H15.1899H15.1899H15.1899H15.1899H15.1899H15.1899H15.1899H15.1899H15.1899H15.1899H15.1899H15.1899H15.1899H15.19H15.19H15.19H15.19H15.19H15.19H15.19H15.19H15.19H15.19H15.19H15.19H15.19H15.19H15.19H15.19H15.19H15.19H15.19H15.1901H15.1901H15.1901H15.1901H15.1901H15.1901H15.1901H15.1901H15.1901H15.1901H15.1901H15.1901H15.1901H15.1901H15.1901H15.1901H15.1901H15.1901H15.1902H15.1902H15.1902H15.1902H15.1902H15.1902H15.1902H15.1902H15.1902H15.1902H15.1902H15.1902H15.1902H15.1902H15.1902H15.1902H15.1902H15.1902H15.1902H15.1903H15.1903H15.1903H15.1903H15.1903H15.1903H15.1903H15.1903H15.1903H15.1903H15.1903H15.1903H15.1903H15.1903H15.1903H15.1903H15.1903H15.1903H15.1904H15.1904H15.1904H15.1904H15.1904H15.1904H15.1904H15.1904H15.1904H15.1904C15.5144 8.578 15.7779 8.83961 15.78 9.16398L15.78 9.16402C15.7819 9.48965 15.5196 9.75529 15.1939 9.75725C14.8258 9.75948 14.5736 9.76048 14.3992 9.76048C14.0411 9.76048 14.0009 9.75673 13.9489 9.74681L15.1868 8.578ZM15.1868 8.578C15.0062 8.57907 14.8179 8.57994 14.6489 8.58045M15.1868 8.578L14.6489 8.58045M14.6489 8.58045V5.93706C14.6489 5.61141 14.3849 5.34744 14.0593 5.34744C13.7336 5.34744 13.4696 5.61141 13.4696 5.93706V9.16763C13.4696 9.4507 13.6709 9.69381 13.9489 9.7468L14.6489 8.58045Z" fill="#F6C478" stroke="#F6C478" stroke-width="0.3"/>
<path d="M7.69907 5.81991L7.6991 5.81994C7.94823 6.02977 7.97996 6.40172 7.77023 6.65075M7.69907 5.81991L6.94508 6.72656L6.94507 6.72655C6.94503 6.72652 6.94478 6.72632 6.94433 6.72597C7.19345 6.93132 7.56193 6.89809 7.77023 6.65075M7.69907 5.81991C7.67678 5.80114 7.47008 5.63103 7.14827 5.50056C6.82586 5.36985 6.37872 5.27547 5.88511 5.42399L5.88502 5.42402M7.69907 5.81991L5.88502 5.42402M7.77023 6.65075L7.65576 6.55433L7.77024 6.65074C7.77023 6.65074 7.77023 6.65074 7.77023 6.65075ZM5.88502 5.42402C5.37393 5.57815 5.00372 5.98584 4.93116 6.49425L4.93116 6.49428M5.88502 5.42402L4.93116 6.49428M4.93116 6.49428C4.86327 6.97061 5.07108 7.43085 5.47326 7.69211L5.55496 7.56634L5.47302 7.69196C5.49857 7.70863 5.52538 7.72322 5.55308 7.73562C5.57336 7.74477 6.02269 7.94539 6.53069 8.13296L6.53076 8.13298M4.93116 6.49428L6.53076 8.13298M6.53076 8.13298C6.57848 8.15057 6.67292 8.18987 6.74808 8.24504C6.83145 8.30624 6.83942 8.3464 6.83606 8.36524L6.83604 8.36532M6.53076 8.13298L6.83604 8.36532M6.83604 8.36532C6.82315 8.43772 6.70028 8.57964 6.45386 8.57964M6.83604 8.36532L6.45386 8.57964M6.45386 8.57964C6.17997 8.57964 5.92276 8.46918 5.7645 8.29475M6.45386 8.57964L5.7645 8.29475M5.7645 8.29475C5.54571 8.05358 5.17271 8.03549 4.93165 8.25421L5.7645 8.29475ZM6.88124 6.68254C6.9177 6.70549 6.94003 6.72262 6.94432 6.72597L4.93163 8.25422C4.69046 8.47301 4.67232 8.84589 4.8911 9.08707L4.8911 9.08707C5.2802 9.51599 5.85061 9.7589 6.45386 9.7589C7.21293 9.7589 7.87244 9.27127 7.997 8.57233C8.04421 8.30771 8.00805 8.00312 7.84183 7.72157C7.67503 7.43907 7.38371 7.19045 6.93887 7.02658C6.57815 6.89341 6.24031 6.74907 6.10144 6.68855C6.10067 6.68686 6.09998 6.68489 6.09943 6.68255C6.09756 6.67471 6.09788 6.66602 6.09866 6.66047L5.95013 6.63955L6.09861 6.66081C6.09963 6.65371 6.1035 6.63643 6.11773 6.61775C6.13075 6.60065 6.15939 6.57301 6.22534 6.55312L6.18204 6.40951L6.2252 6.55316C6.39803 6.50123 6.57162 6.53722 6.7125 6.5953C6.78192 6.62392 6.84001 6.65658 6.88124 6.68254Z" fill="#F6C478" stroke="#F6C478" stroke-width="0.3"/>
<path d="M18.6313 9.75884C19.8477 9.75884 20.837 8.76948 20.837 7.55314C20.837 6.3368 19.8477 5.34744 18.6313 5.34744C17.415 5.34744 16.4257 6.33681 16.4257 7.55314C16.4257 8.76947 17.415 9.75884 18.6313 9.75884ZM18.6313 6.52664C19.1972 6.52664 19.6578 6.98724 19.6578 7.55314C19.6578 8.11905 19.1972 8.57964 18.6313 8.57964C18.0655 8.57964 17.6049 8.11905 17.6049 7.55314C17.6049 6.98723 18.0655 6.52664 18.6313 6.52664Z" fill="#F6C478" stroke="#F6C478" stroke-width="0.3"/>
<mask id="path-7-outside-1_94_428" maskUnits="userSpaceOnUse" x="-1" y="-0.796021" width="32" height="31" fill="black">
<rect fill="white" x="-1" y="-0.796021" width="32" height="31"/>
<path d="M28.452 15.5573V12.0056H28.999C29.5509 12.0056 30 11.5566 30 11.0047V4.10333C30 3.55144 29.5509 3.10238 28.999 3.10238H27.1892L26.1341 0.749956C26.0619 0.586597 25.8928 0.203979 25.448 0.203979H4.55203C4.10713 0.203979 3.93814 0.586597 3.86689 0.74773L2.8108 3.10238H1.00096C0.449063 3.10238 0 3.55144 0 4.10333V11.0047C0 11.5566 0.449063 12.0056 1.00096 12.0056H1.54793V26.2968C0.694043 26.4166 0.0348047 27.1515 0.0348047 28.0378V29.0576C0.0348047 29.4649 0.366094 29.7962 0.773379 29.7962H29.2264C29.6328 29.7962 29.9634 29.4649 29.9634 29.0576V28.0378C29.9634 27.1515 29.3049 26.4167 28.452 26.2969V22.3374V15.5573H28.452ZM4.6701 1.10533C4.67291 1.099 4.67631 1.09138 4.67988 1.08324H25.3201C25.324 1.09203 25.3277 1.10041 25.3309 1.10755L26.2256 3.10238H3.77437L4.6701 1.10533ZM15.9193 12.0056H27.5728V15.1177H16.6933C16.2568 15.1177 15.9016 15.4348 15.9016 15.8247V22.0699C15.9016 22.4663 16.2493 22.7769 16.6933 22.7769H27.5728V26.2794H21.4568C21.214 26.2794 21.0172 26.4762 21.0172 26.719C21.0172 26.9618 21.214 27.1586 21.4568 27.1586H28.2068C28.6906 27.1586 29.0842 27.553 29.0842 28.0378V28.917H0.914062V28.0378C0.914062 27.553 1.30846 27.1586 1.79326 27.1586H4.7148H12.6905H19.4271C19.6699 27.1586 19.8667 26.9618 19.8667 26.7189C19.8667 26.4761 19.6699 26.2793 19.4271 26.2793H13.1301V16.1735C13.1301 15.5913 12.6565 15.1177 12.0743 15.1177H5.32934C4.74803 15.1177 4.27518 15.5913 4.27518 16.1735V26.2794H2.42719V12.0056H13.8913C14.1341 12.0056 14.3309 11.8088 14.3309 11.566C14.3309 11.3232 14.1341 11.1264 13.8913 11.1264H1.00096C0.93498 11.1264 0.879199 11.0706 0.879199 11.0046V9.99916H1.74504C1.98785 9.99916 2.18467 9.80234 2.18467 9.55953C2.18467 9.31671 1.98785 9.1199 1.74504 9.1199H0.879258V7.99267H1.7451C1.98791 7.99267 2.18473 7.79585 2.18473 7.55304C2.18473 7.31023 1.98791 7.11341 1.7451 7.11341H0.879258V5.98789H1.7451C1.98791 5.98789 2.18473 5.79107 2.18473 5.54826C2.18473 5.30544 1.98791 5.10863 1.7451 5.10863H0.879258V4.10316C0.879258 4.03718 0.935039 3.9814 1.00102 3.9814H28.999C29.065 3.9814 29.1208 4.03718 29.1208 4.10316V5.10863H28.2533C28.0104 5.10863 27.8136 5.30544 27.8136 5.54826C27.8136 5.79107 28.0104 5.98789 28.2533 5.98789H29.1208V7.11341H28.2533C28.0104 7.11341 27.8136 7.31023 27.8136 7.55304C27.8136 7.79585 28.0104 7.99267 28.2533 7.99267H29.1208V9.1199H28.2533C28.0104 9.1199 27.8136 9.31671 27.8136 9.55953C27.8136 9.80234 28.0104 9.99916 28.2533 9.99916H29.1208V11.0046C29.1208 11.0706 29.065 11.1264 28.999 11.1264H15.9193C15.6765 11.1264 15.4797 11.3232 15.4797 11.566C15.4797 11.8088 15.6765 12.0056 15.9193 12.0056ZM27.5728 15.9969V21.8977L16.7808 21.8974V15.9969H27.5728ZM5.15443 26.2794V16.1735C5.15443 16.0778 5.23453 15.9969 5.32934 15.9969H12.0743C12.17 15.9969 12.2509 16.0778 12.2509 16.1735V26.2794H5.15443Z"/>
</mask>
<path d="M28.452 15.5573V12.0056H28.999C29.5509 12.0056 30 11.5566 30 11.0047V4.10333C30 3.55144 29.5509 3.10238 28.999 3.10238H27.1892L26.1341 0.749956C26.0619 0.586597 25.8928 0.203979 25.448 0.203979H4.55203C4.10713 0.203979 3.93814 0.586597 3.86689 0.74773L2.8108 3.10238H1.00096C0.449063 3.10238 0 3.55144 0 4.10333V11.0047C0 11.5566 0.449063 12.0056 1.00096 12.0056H1.54793V26.2968C0.694043 26.4166 0.0348047 27.1515 0.0348047 28.0378V29.0576C0.0348047 29.4649 0.366094 29.7962 0.773379 29.7962H29.2264C29.6328 29.7962 29.9634 29.4649 29.9634 29.0576V28.0378C29.9634 27.1515 29.3049 26.4167 28.452 26.2969V22.3374V15.5573H28.452ZM4.6701 1.10533C4.67291 1.099 4.67631 1.09138 4.67988 1.08324H25.3201C25.324 1.09203 25.3277 1.10041 25.3309 1.10755L26.2256 3.10238H3.77437L4.6701 1.10533ZM15.9193 12.0056H27.5728V15.1177H16.6933C16.2568 15.1177 15.9016 15.4348 15.9016 15.8247V22.0699C15.9016 22.4663 16.2493 22.7769 16.6933 22.7769H27.5728V26.2794H21.4568C21.214 26.2794 21.0172 26.4762 21.0172 26.719C21.0172 26.9618 21.214 27.1586 21.4568 27.1586H28.2068C28.6906 27.1586 29.0842 27.553 29.0842 28.0378V28.917H0.914062V28.0378C0.914062 27.553 1.30846 27.1586 1.79326 27.1586H4.7148H12.6905H19.4271C19.6699 27.1586 19.8667 26.9618 19.8667 26.7189C19.8667 26.4761 19.6699 26.2793 19.4271 26.2793H13.1301V16.1735C13.1301 15.5913 12.6565 15.1177 12.0743 15.1177H5.32934C4.74803 15.1177 4.27518 15.5913 4.27518 16.1735V26.2794H2.42719V12.0056H13.8913C14.1341 12.0056 14.3309 11.8088 14.3309 11.566C14.3309 11.3232 14.1341 11.1264 13.8913 11.1264H1.00096C0.93498 11.1264 0.879199 11.0706 0.879199 11.0046V9.99916H1.74504C1.98785 9.99916 2.18467 9.80234 2.18467 9.55953C2.18467 9.31671 1.98785 9.1199 1.74504 9.1199H0.879258V7.99267H1.7451C1.98791 7.99267 2.18473 7.79585 2.18473 7.55304C2.18473 7.31023 1.98791 7.11341 1.7451 7.11341H0.879258V5.98789H1.7451C1.98791 5.98789 2.18473 5.79107 2.18473 5.54826C2.18473 5.30544 1.98791 5.10863 1.7451 5.10863H0.879258V4.10316C0.879258 4.03718 0.935039 3.9814 1.00102 3.9814H28.999C29.065 3.9814 29.1208 4.03718 29.1208 4.10316V5.10863H28.2533C28.0104 5.10863 27.8136 5.30544 27.8136 5.54826C27.8136 5.79107 28.0104 5.98789 28.2533 5.98789H29.1208V7.11341H28.2533C28.0104 7.11341 27.8136 7.31023 27.8136 7.55304C27.8136 7.79585 28.0104 7.99267 28.2533 7.99267H29.1208V9.1199H28.2533C28.0104 9.1199 27.8136 9.31671 27.8136 9.55953C27.8136 9.80234 28.0104 9.99916 28.2533 9.99916H29.1208V11.0046C29.1208 11.0706 29.065 11.1264 28.999 11.1264H15.9193C15.6765 11.1264 15.4797 11.3232 15.4797 11.566C15.4797 11.8088 15.6765 12.0056 15.9193 12.0056ZM27.5728 15.9969V21.8977L16.7808 21.8974V15.9969H27.5728ZM5.15443 26.2794V16.1735C5.15443 16.0778 5.23453 15.9969 5.32934 15.9969H12.0743C12.17 15.9969 12.2509 16.0778 12.2509 16.1735V26.2794H5.15443Z" fill="#F6C478"/>
<path d="M28.452 15.5573V12.0056H28.999C29.5509 12.0056 30 11.5566 30 11.0047V4.10333C30 3.55144 29.5509 3.10238 28.999 3.10238H27.1892L26.1341 0.749956C26.0619 0.586597 25.8928 0.203979 25.448 0.203979H4.55203C4.10713 0.203979 3.93814 0.586597 3.86689 0.74773L2.8108 3.10238H1.00096C0.449063 3.10238 0 3.55144 0 4.10333V11.0047C0 11.5566 0.449063 12.0056 1.00096 12.0056H1.54793V26.2968C0.694043 26.4166 0.0348047 27.1515 0.0348047 28.0378V29.0576C0.0348047 29.4649 0.366094 29.7962 0.773379 29.7962H29.2264C29.6328 29.7962 29.9634 29.4649 29.9634 29.0576V28.0378C29.9634 27.1515 29.3049 26.4167 28.452 26.2969V22.3374V15.5573H28.452ZM4.6701 1.10533C4.67291 1.099 4.67631 1.09138 4.67988 1.08324H25.3201C25.324 1.09203 25.3277 1.10041 25.3309 1.10755L26.2256 3.10238H3.77437L4.6701 1.10533ZM15.9193 12.0056H27.5728V15.1177H16.6933C16.2568 15.1177 15.9016 15.4348 15.9016 15.8247V22.0699C15.9016 22.4663 16.2493 22.7769 16.6933 22.7769H27.5728V26.2794H21.4568C21.214 26.2794 21.0172 26.4762 21.0172 26.719C21.0172 26.9618 21.214 27.1586 21.4568 27.1586H28.2068C28.6906 27.1586 29.0842 27.553 29.0842 28.0378V28.917H0.914062V28.0378C0.914062 27.553 1.30846 27.1586 1.79326 27.1586H4.7148H12.6905H19.4271C19.6699 27.1586 19.8667 26.9618 19.8667 26.7189C19.8667 26.4761 19.6699 26.2793 19.4271 26.2793H13.1301V16.1735C13.1301 15.5913 12.6565 15.1177 12.0743 15.1177H5.32934C4.74803 15.1177 4.27518 15.5913 4.27518 16.1735V26.2794H2.42719V12.0056H13.8913C14.1341 12.0056 14.3309 11.8088 14.3309 11.566C14.3309 11.3232 14.1341 11.1264 13.8913 11.1264H1.00096C0.93498 11.1264 0.879199 11.0706 0.879199 11.0046V9.99916H1.74504C1.98785 9.99916 2.18467 9.80234 2.18467 9.55953C2.18467 9.31671 1.98785 9.1199 1.74504 9.1199H0.879258V7.99267H1.7451C1.98791 7.99267 2.18473 7.79585 2.18473 7.55304C2.18473 7.31023 1.98791 7.11341 1.7451 7.11341H0.879258V5.98789H1.7451C1.98791 5.98789 2.18473 5.79107 2.18473 5.54826C2.18473 5.30544 1.98791 5.10863 1.7451 5.10863H0.879258V4.10316C0.879258 4.03718 0.935039 3.9814 1.00102 3.9814H28.999C29.065 3.9814 29.1208 4.03718 29.1208 4.10316V5.10863H28.2533C28.0104 5.10863 27.8136 5.30544 27.8136 5.54826C27.8136 5.79107 28.0104 5.98789 28.2533 5.98789H29.1208V7.11341H28.2533C28.0104 7.11341 27.8136 7.31023 27.8136 7.55304C27.8136 7.79585 28.0104 7.99267 28.2533 7.99267H29.1208V9.1199H28.2533C28.0104 9.1199 27.8136 9.31671 27.8136 9.55953C27.8136 9.80234 28.0104 9.99916 28.2533 9.99916H29.1208V11.0046C29.1208 11.0706 29.065 11.1264 28.999 11.1264H15.9193C15.6765 11.1264 15.4797 11.3232 15.4797 11.566C15.4797 11.8088 15.6765 12.0056 15.9193 12.0056ZM27.5728 15.9969V21.8977L16.7808 21.8974V15.9969H27.5728ZM5.15443 26.2794V16.1735C5.15443 16.0778 5.23453 15.9969 5.32934 15.9969H12.0743C12.17 15.9969 12.2509 16.0778 12.2509 16.1735V26.2794H5.15443Z" stroke="#F6C478" stroke-width="0.6" mask="url(#path-7-outside-1_94_428)"/>
</svg>
