<svg width="30" height="30" viewBox="0 0 30 30" fill="none" xmlns="http://www.w3.org/2000/svg">
<path d="M13.4937 2.57421C13.0127 3.40476 12.7562 4.35093 12.7562 5.33679V6.78335C12.7562 8.02453 13.1813 9.24387 13.9529 10.2162L13.9529 10.2162L16.0513 12.8624L17.448 12.0243L16.4201 10.6539L13.4937 2.57421ZM13.4937 2.57421V2.90163C13.4937 3.90773 13.9373 4.85461 14.7105 5.49937L14.7106 5.49942L15.4994 6.15607C16.0119 6.58381 16.3062 7.21194 16.3062 7.87976V10.3126C16.3062 10.4353 16.346 10.5553 16.42 10.6538L13.4937 2.57421ZM15.3687 2.90163C15.3687 3.34242 15.2374 3.76921 14.9994 4.13159L7.77056 27.5176C7.6575 26.9505 7.6 26.3697 7.6 25.7663C7.6 23.7873 8.27721 21.8442 9.50678 20.2944L9.42844 20.2323L9.50678 20.2944L10.7872 18.6801L15 16.5734L19.2128 18.6801L20.4932 20.2944L20.5716 20.2323L20.4932 20.2944C21.7227 21.8441 22.4 23.7876 22.4 25.7907C22.4 26.3696 22.3425 26.9508 22.229 27.5176L22.229 27.5176L21.9421 28.9511L21.9421 28.9511C21.8915 29.2048 22.0183 29.4607 22.2509 29.5739L22.251 29.5739C22.3305 29.6125 22.4158 29.6313 22.5 29.6313C22.662 29.6313 22.8212 29.562 22.9321 29.4329L22.9322 29.4328L24.3905 27.7317C25.3524 26.6097 25.8817 25.178 25.8817 23.701V23.4376V23.4375C25.8812 22.1062 25.4416 20.7868 24.6425 19.7213L17.4639 10.15C18.0626 9.12909 18.3812 7.97071 18.3812 6.78335V5.33679C18.3812 3.55714 17.6882 1.88404 16.4296 0.625908L16.3396 0.535922C16.1765 0.372786 15.9324 0.324389 15.7197 0.412533C15.507 0.500664 15.3687 0.707735 15.3687 0.93757V2.90163ZM8.05743 28.9511L7.77057 27.5177L7.0683 29.4323C7.17916 29.5619 7.33793 29.6313 7.5 29.6313C7.58434 29.6313 7.66914 29.6125 7.74853 29.5739L7.74859 29.5739C7.98124 29.4607 8.10805 29.2048 8.05744 28.9511L8.05743 28.9511ZM5.61002 27.7312L7.06822 29.4323L13.7311 0.606164L13.6604 0.535453L13.6603 0.535576L13.5704 0.62544C12.3118 1.88358 11.6187 3.55715 11.6187 5.33679V6.78335C11.6187 7.96764 11.9437 9.13166 12.538 10.1476L5.3575 19.7213L5.4375 19.7813L5.3575 19.7213C4.55842 20.7868 4.11875 22.1062 4.11875 23.4376V23.7005C4.11875 25.178 4.64807 26.6092 5.61002 27.7312ZM16.5062 2.90163V2.57421C16.9873 3.40476 17.2437 4.35093 17.2437 5.33679V6.74159C17.0444 6.17961 16.6983 5.6744 16.2275 5.282L16.2274 5.28194L15.8167 4.94031C16.2579 4.35773 16.5062 3.64365 16.5062 2.90163ZM8.69344 19.6496L8.61508 19.5875C7.22708 21.3377 6.4625 23.5323 6.4625 25.7907C6.4625 26.2195 6.49035 26.6495 6.54582 27.0752L6.4739 26.9912L6.47388 26.9912C5.68834 26.0751 5.25625 24.9067 5.25625 23.7005V23.4376C5.25625 22.3511 5.61533 21.2734 6.2675 20.4038L11.866 12.9394L13.236 13.7616L8.61509 19.5875L8.69344 19.6496ZM23.5266 26.9912L23.5265 26.9913L23.4542 27.0758C23.5096 26.6473 23.5375 26.2114 23.5375 25.7663C23.5375 23.5317 22.7728 21.3376 21.3849 19.5875L21.3066 19.6496L21.3849 19.5875L16.764 13.7611L18.134 12.9389L23.7325 20.4038C24.3842 21.2734 24.7437 22.3511 24.7437 23.4376V23.7005C24.7437 24.9067 24.3117 26.0752 23.5266 26.9912ZM14.2742 12.4529L13.9492 12.8625L12.5525 12.0243L13.2242 11.1288L14.2742 12.4529ZM15.2544 15.4287C15.0944 15.3484 14.9056 15.3484 14.7453 15.4286L12.4584 16.5719L15 13.368L17.5412 16.5723L15.2544 15.4287Z" fill="#F6C478" stroke="#F6C478" stroke-width="0.2"/>
<path d="M13.125 6.93125H13.025V7.03125V7.96875V8.06875H13.125H14.0625H14.1625V7.96875V7.03125V6.93125H14.0625H13.125Z" fill="#F6C478" stroke="#F6C478" stroke-width="0.2"/>
<path d="M15 8.80625H14.9V8.90625V9.84375V9.94375H15H15.9375H16.0375V9.84375V8.90625V8.80625H15.9375H15Z" fill="#F6C478" stroke="#F6C478" stroke-width="0.2"/>
</svg>
