<svg width="30" height="30" viewBox="0 0 30 30" fill="none" xmlns="http://www.w3.org/2000/svg">
<g clip-path="url(#clip0_94_456)">
<path d="M18 -0.1H12C11.6686 -0.1 11.4 0.168648 11.4 0.5V14.9H8.5C7.6164 14.9 6.9 15.6164 6.9 16.5V28.5C6.9 29.3836 7.6164 30.1 8.5 30.1H21.5C22.3836 30.1 23.1 29.3836 23.1 28.5V16.5C23.1 15.6164 22.3836 14.9 21.5 14.9H18.6V0.5C18.6 0.168648 18.3314 -0.1 18 -0.1ZM12.6 1.1H17.4V14.9H12.6V1.1ZM21.9 16.5V28.5C21.9 28.7209 21.7209 28.9 21.5 28.9H8.5C8.27911 28.9 8.1 28.7209 8.1 28.5V16.5C8.1 16.2791 8.27911 16.1 8.5 16.1H21.5C21.7209 16.1 21.9 16.2791 21.9 16.5Z" fill="#F6C478" stroke="#F6C478" stroke-width="0.2"/>
<path d="M8.90293 17.56L8.90292 17.5599C8.88623 17.3912 8.94156 17.2232 9.05522 17.0975C9.1689 16.9718 9.33061 16.9 9.49999 16.9H20.4997H20.5V17C20.6418 16.9993 20.7771 17.0588 20.8725 17.1636L8.90293 17.56ZM8.90293 17.56L9.81306 26.6596M8.90293 17.56L9.81306 26.6596M9.81306 26.6596C9.81307 26.6597 9.81307 26.6597 9.81308 26.6598C9.8931 27.4785 10.5824 28.1022 11.405 28.1M9.81306 26.6596L11.405 28.1M11.405 28.1C11.4051 28.1 11.4052 28.1 11.4053 28.1L11.405 28.1ZM18.595 28.1C19.4176 28.1022 20.1069 27.4785 20.1869 26.6597C20.1869 26.6597 20.1869 26.6596 20.1869 26.6596L18.595 28.1ZM13.9084 21.901L13.9084 21.901L13.4085 24.9009C13.4084 24.9009 13.4084 24.901 13.4084 24.901C13.3792 25.0751 13.4282 25.2529 13.542 25.3876C13.656 25.5224 13.8236 25.6 14 25.6H16C16.1764 25.6 16.3439 25.5224 16.4579 25.3876C16.5718 25.2529 16.6208 25.0751 16.5915 24.901C16.5915 24.901 16.5915 24.9009 16.5915 24.9009L16.0915 21.901L16.0915 21.901C16.0488 21.6454 15.8483 21.4502 15.6 21.4083V18.1H19.8394L18.9955 26.5401C18.975 26.7451 18.8018 26.901 18.5954 26.9H18.595H11.405C11.1995 26.9 11.0275 26.7443 11.007 26.5401C11.007 26.5401 11.007 26.5401 11.007 26.5401L10.163 18.1H14.4V21.4083C14.1516 21.4502 13.9512 21.6454 13.9084 21.901ZM18.595 27H11.405C11.1482 27 10.9331 26.8054 10.9075 26.55L18.595 27ZM14.7086 24.4L15 22.6499L15.2914 24.4H14.7086Z" fill="#F6C478" stroke="#F6C478" stroke-width="0.2"/>
</g>
<defs>
<clipPath id="clip0_94_456">
<rect width="30" height="30" fill="white"/>
</clipPath>
</defs>
</svg>
