<svg width="30" height="30" viewBox="0 0 30 30" fill="none" xmlns="http://www.w3.org/2000/svg">
<path d="M6.48491 17.6656L6.48614 17.6643L6.48615 17.6643L9.99765 14.1717M6.48491 17.6656L10.5455 14.0455C10.3668 14.0455 10.195 14.1163 10.0682 14.2426L9.99772 14.1717M6.48491 17.6656C6.44995 17.7016 6.41811 17.7119 6.39314 17.7143C6.36569 17.7169 6.33932 17.7102 6.31903 17.702C6.29777 17.6933 6.27279 17.679 6.25357 17.6563C6.23588 17.6354 6.21868 17.6025 6.21868 17.5466V14.7221C6.21868 14.2929 5.87125 13.9455 5.44208 13.9455H4.5007C3.37143 13.9455 2.45272 13.0267 2.45272 11.8975V4.36508C2.45272 3.23581 3.37143 2.3171 4.5007 2.3171H15.7991C16.3453 2.3171 16.8584 2.5302 17.2462 2.91795L17.2462 2.91799C17.6339 3.30525 17.847 3.81885 17.847 4.36463V11.897C17.847 13.0263 16.9279 13.945 15.7986 13.945H10.5455H10.4455V13.9519M6.48491 17.6656L10.4455 13.9519M9.99765 14.1717L9.99772 14.1717M9.99765 14.1717C9.99768 14.1717 9.9977 14.1717 9.99772 14.1717M9.99765 14.1717L10.4455 13.9519M9.99772 14.1717C10.1194 14.0505 10.2772 13.9738 10.4455 13.9519M18.3448 1.81981L18.3448 1.81979C17.6639 1.13942 16.7599 0.763892 15.7995 0.763892H4.5007C2.5149 0.763892 0.899512 2.37928 0.899512 4.36508V11.8975C0.899512 13.8833 2.5149 15.4987 4.5007 15.4987H4.66548V17.5466C4.66548 18.2519 5.08547 18.8783 5.73608 19.1418C5.94534 19.2266 6.16334 19.2673 6.3794 19.2673C6.82908 19.2673 7.26807 19.0888 7.59085 18.7563C7.59106 18.7561 7.59128 18.7559 7.59149 18.7557L10.5952 15.7682V21.8652C10.5952 23.8506 12.2125 25.4659 14.2 25.4659H19.13L22.3977 28.7162C22.3979 28.7164 22.3981 28.7166 22.3983 28.7168C22.7276 29.0553 23.1682 29.2359 23.6206 29.2359C23.8368 29.2359 24.0548 29.1947 24.2643 29.1096C24.914 28.8465 25.3336 28.221 25.3336 27.5171V25.4655H25.4948C27.4827 25.4655 29.1 23.8507 29.1 21.8647V14.3319C29.1 12.3473 27.4827 10.732 25.4948 10.732H19.4007V4.36508C19.4007 3.40476 19.0252 2.50022 18.3448 1.81981ZM23.504 27.6267L23.503 27.6257L19.9982 24.1394L19.9981 24.1393C19.8528 23.995 19.6561 23.9132 19.4505 23.9132H14.2C13.0688 23.9132 12.1484 22.9943 12.1484 21.8656V15.4987H15.7986C17.6535 15.4987 19.1817 14.0894 19.3763 12.2857H25.4943C26.6261 12.2857 27.5464 13.2042 27.5464 14.3328V21.8652V21.9084C27.5232 23.0172 26.612 23.9127 25.4948 23.9127H24.557C24.1283 23.9127 23.7804 24.2606 23.7804 24.6893V27.5175C23.7804 27.5722 23.7634 27.6046 23.7457 27.6254C23.7266 27.6479 23.7017 27.6622 23.6811 27.6706C23.6599 27.679 23.6336 27.6856 23.6056 27.6826C23.5798 27.6799 23.5446 27.6683 23.504 27.6267Z" fill="#F6C478" stroke="#F6C478" stroke-width="0.2"/>
<path d="M15.6589 17.0051C15.0533 17.0051 14.5606 17.4983 14.5606 18.1033C14.5606 18.7084 15.0538 19.2015 15.6589 19.2015C16.2648 19.2015 16.758 18.7085 16.758 18.1033C16.758 17.4982 16.2653 17.0051 15.6589 17.0051Z" fill="#F6C478" stroke="#F6C478" stroke-width="0.2"/>
<path d="M19.8473 17.0051C19.2418 17.0051 18.7491 17.4983 18.7491 18.1033C18.7491 18.7084 19.2423 19.2015 19.8473 19.2015C20.4533 19.2015 20.9465 18.7085 20.9465 18.1033C20.9465 17.4982 20.4533 17.0051 19.8473 17.0051Z" fill="#F6C478" stroke="#F6C478" stroke-width="0.2"/>
<path d="M24.0363 17.0051C23.4307 17.0051 22.9381 17.4983 22.9381 18.1033C22.9381 18.7084 23.4312 19.2015 24.0363 19.2015C24.6422 19.2015 25.1354 18.7085 25.1354 18.1033C25.1354 17.4982 24.6422 17.0051 24.0363 17.0051Z" fill="#F6C478" stroke="#F6C478" stroke-width="0.2"/>
<path d="M9.92651 10.3113C9.47898 10.3113 9.11924 10.6834 9.11924 11.128C9.11924 11.5614 9.4678 11.9447 9.92651 11.9447C10.3835 11.9447 10.7433 11.5632 10.7433 11.128C10.7433 10.6817 10.3728 10.3113 9.92651 10.3113Z" fill="#F6C478" stroke="#F6C478" stroke-width="0.2"/>
<path d="M9.97851 7.48826L9.97851 7.48826C10.0445 7.43227 10.1195 7.37466 10.1953 7.31644C10.2231 7.29511 10.251 7.2737 10.2786 7.25226C10.3833 7.17085 10.487 7.08653 10.5792 6.99495C10.7639 6.81152 10.8923 6.60897 10.8923 6.35925C10.8923 6.14752 10.8024 5.99656 10.6553 5.89477C10.5041 5.79004 10.2862 5.73393 10.0324 5.73393C9.77319 5.73393 9.6013 5.78276 9.47925 5.84989C9.35733 5.91695 9.27695 6.00667 9.20656 6.10345C9.18372 6.13485 9.16366 6.16444 9.1431 6.19479C9.13038 6.21356 9.11746 6.23261 9.10357 6.25257C9.06919 6.30196 9.03162 6.35252 8.98748 6.39723C8.89477 6.49116 8.77654 6.55532 8.60296 6.55532C8.43854 6.55532 8.2557 6.50098 8.11205 6.38509C7.96565 6.26699 7.86289 6.08688 7.86289 5.84728C7.86289 5.19902 8.5881 4.31785 10.0644 4.31785C11.462 4.31785 12.4365 5.09944 12.436 6.17747L9.97851 7.48826ZM9.97851 7.48826L9.97795 7.48874M9.97851 7.48826L9.97795 7.48874M9.97795 7.48874C9.81884 7.62581 9.63009 7.81103 9.48187 8.08342M9.97795 7.48874L9.48187 8.08342M9.48187 8.08342C9.33332 8.35642 9.22827 8.71177 9.22827 9.18609M9.48187 8.08342L9.22827 9.18609M9.22827 9.18609C9.22827 9.46548 9.26421 9.67698 9.38113 9.81581M9.22827 9.18609L9.38113 9.81581M9.38113 9.81581C9.50285 9.96036 9.68898 10.0006 9.91511 10.0006M9.38113 9.81581L9.91511 10.0006M9.91511 10.0006C10.1893 10.0006 10.3755 9.93933 10.4932 9.83177M9.91511 10.0006L10.4932 9.83177M10.4932 9.83177C10.6129 9.72244 10.6444 9.58155 10.6444 9.46305M10.4932 9.83177L10.6444 9.46305M10.6444 9.46305C10.6444 9.18256 10.6481 8.98204 10.7169 8.79486M10.6444 9.46305L10.7169 8.79486M10.7169 8.79486C10.7843 8.61169 10.9186 8.43111 11.2031 8.20852M10.7169 8.79486L11.2031 8.20852M11.2031 8.20852C11.3484 8.09535 11.6549 7.8519 11.9254 7.50727C12.1955 7.16298 12.436 6.70965 12.436 6.17751L11.2031 8.20852Z" fill="#F6C478" stroke="#F6C478" stroke-width="0.2"/>
</svg>
