<svg width="30" height="30" viewBox="0 0 30 30" fill="none" xmlns="http://www.w3.org/2000/svg">
<path d="M24.7497 29.0625H9.15908C8.49024 29.0625 7.84879 28.7968 7.37585 28.3239C6.9029 27.8509 6.63721 27.2095 6.63721 26.5406V3.45938C6.63721 2.79053 6.9029 2.14908 7.37585 1.67614C7.84879 1.2032 8.49024 0.9375 9.15908 0.9375H16.3122C16.9525 0.938807 17.5698 1.17575 18.0466 1.60313L26.3903 9.10312C26.6647 9.34851 26.8842 9.64904 27.0344 9.98507C27.1846 10.3211 27.2623 10.685 27.2622 11.0531V26.5406C27.2622 27.2078 26.9978 27.8479 26.5269 28.3206C26.056 28.7932 25.4169 29.06 24.7497 29.0625ZM9.15908 2.8125C8.98752 2.8125 8.82298 2.88065 8.70167 3.00197C8.58036 3.12328 8.51221 3.28781 8.51221 3.45938V26.5406C8.51221 26.7122 8.58036 26.8767 8.70167 26.998C8.82298 27.1193 8.98752 27.1875 9.15908 27.1875H24.7497C24.9213 27.1875 25.0858 27.1193 25.2071 26.998C25.3284 26.8767 25.3966 26.7122 25.3966 26.5406V11.0062C25.3964 10.9036 25.3746 10.8021 25.3326 10.7084C25.2906 10.6147 25.2294 10.5309 25.1528 10.4625L16.8091 2.9625C16.6674 2.85343 16.4906 2.80006 16.3122 2.8125H9.15908Z" fill="#F6C478"/>
<path d="M26.3252 11.1938H18.0658C17.5213 11.1938 16.9991 10.9775 16.614 10.5924C16.229 10.2074 16.0127 9.68517 16.0127 9.14065V2.40002H17.8877V9.14065C17.8877 9.18789 17.9065 9.2332 17.9399 9.2666C17.9733 9.30001 18.0186 9.31877 18.0658 9.31877H26.3252V11.1938Z" fill="#F6C478"/>
<path d="M21.0186 22.5H13.5186C13.0008 22.5 12.5811 22.9197 12.5811 23.4375C12.5811 23.9553 13.0008 24.375 13.5186 24.375H21.0186C21.5363 24.375 21.9561 23.9553 21.9561 23.4375C21.9561 22.9197 21.5363 22.5 21.0186 22.5Z" fill="#F6C478"/>
<path d="M15.3936 18.4594H13.5186C13.0008 18.4594 12.5811 18.8791 12.5811 19.3969C12.5811 19.9146 13.0008 20.3344 13.5186 20.3344H15.3936C15.9113 20.3344 16.3311 19.9146 16.3311 19.3969C16.3311 18.8791 15.9113 18.4594 15.3936 18.4594Z" fill="#F6C478"/>
<path d="M5.07168 24.9937C4.45161 24.9864 3.85931 24.7355 3.42258 24.2952C2.98585 23.855 2.73972 23.2607 2.7373 22.6406V7.35936C2.73723 7.01178 2.81447 6.66853 2.96343 6.35448C3.11239 6.04043 3.32933 5.76344 3.59855 5.54358C3.86777 5.32372 4.18252 5.16649 4.52 5.08328C4.85748 5.00007 5.20924 4.99297 5.5498 5.06249L7.56543 5.39999L7.25605 7.27499L5.22168 6.90936C5.14814 6.88942 5.071 6.88666 4.99622 6.90129C4.92144 6.91592 4.85103 6.94755 4.79043 6.99374C4.73519 7.03739 4.69049 7.09293 4.65965 7.15623C4.62881 7.21953 4.61263 7.28896 4.6123 7.35936V22.6406C4.61369 22.7106 4.6304 22.7793 4.66126 22.8421C4.69212 22.9049 4.73638 22.9601 4.79091 23.0039C4.84544 23.0477 4.90892 23.079 4.97688 23.0956C5.04483 23.1122 5.11559 23.1137 5.18418 23.1L7.30293 22.8187L7.54668 24.6937L5.49355 24.9656C5.35434 24.99 5.21291 24.9995 5.07168 24.9937Z" fill="#F6C478"/>
</svg>
