<svg width="103" height="99" viewBox="0 0 103 99" fill="none" xmlns="http://www.w3.org/2000/svg">
<path d="M100.428 70.0605C108.737 47.3141 96.8662 22.1992 73.9134 13.9648C50.9607 5.73035 25.6179 17.4946 17.3088 40.2409C8.99958 62.9872 20.8705 88.1021 43.8233 96.3365C66.776 104.571 92.1188 92.8068 100.428 70.0605Z" fill="#FFE667"/>
<path d="M45.1028 55.8395C38.8995 55.8395 33.8594 50.8447 33.8594 44.6972C33.8594 38.5498 38.8995 33.5549 45.1028 33.5549C51.3061 33.5549 56.3462 38.5498 56.3462 44.6972C56.3462 50.8447 51.3061 55.8395 45.1028 55.8395ZM45.1028 34.8357C39.5457 34.8357 35.1517 39.3182 35.1517 44.6972C35.1517 50.2043 39.6749 54.5588 45.1028 54.5588C50.5307 54.5588 55.0539 50.0763 55.0539 44.6972C55.0539 39.1901 50.5307 34.8357 45.1028 34.8357Z" fill="#242C36"/>
<path d="M45.1029 66.2134C33.084 66.2134 23.2622 56.4799 23.2622 44.5691C23.2622 32.7865 33.084 23.053 45.1029 23.053V24.3337C33.7302 24.3337 24.5546 33.4268 24.5546 44.6972C24.5546 55.8395 33.7302 65.0607 45.1029 65.0607C56.3463 65.0607 65.6512 55.9676 65.6512 44.6972H66.9435C66.8143 56.608 57.1217 66.2134 45.1029 66.2134Z" fill="#242C36"/>
<path d="M45.1029 80.3013C25.2007 80.3013 9.04639 64.2923 9.04639 44.6972H10.3387C10.3387 63.6519 25.8469 79.0206 44.9736 79.0206C64.1003 79.0206 79.6085 63.6519 79.6085 44.6972C79.6085 30.3531 70.5621 17.4177 56.9924 12.4229L57.3801 11.2703C71.4667 16.3932 80.9008 29.8408 80.9008 44.6972C81.0301 64.2923 64.8758 80.3013 45.1029 80.3013Z" fill="#242C36"/>
<path d="M45.1029 89.3946C20.1606 89.3946 0 69.2872 0 44.6973C0 19.9793 20.1606 0 45.1029 0C70.0452 0 90.2058 19.9793 90.2058 44.6973C90.2058 54.0466 87.2334 63.1397 81.8055 70.696L80.7716 69.9276C86.0703 62.4993 88.9134 53.7904 88.9134 44.6973C88.9134 20.7477 69.2698 1.28072 45.1029 1.28072C20.936 1.28072 1.29235 20.7477 1.29235 44.6973C1.29235 68.6468 20.936 88.1138 45.1029 88.1138V89.3946Z" fill="#242C36"/>
</svg>
