<svg width="100" height="96" viewBox="0 0 100 96" fill="none" xmlns="http://www.w3.org/2000/svg">
<path d="M97.5029 67.9374C105.57 45.8803 94.0448 21.5265 71.7606 13.5416C49.4764 5.55665 24.8718 16.9644 16.8046 39.0214C8.73747 61.0785 20.2627 85.4323 42.5469 93.4172C64.8311 101.402 89.4357 89.9944 97.5029 67.9374Z" fill="#FFE667"/>
<path d="M43.789 54.1474C37.7664 54.1474 32.873 49.3039 32.873 43.3427C32.873 37.3816 37.7664 32.5381 43.789 32.5381C49.8116 32.5381 54.7049 37.3816 54.7049 43.3427C54.7049 49.3039 49.8116 54.1474 43.789 54.1474ZM43.789 33.78C38.3938 33.78 34.1278 38.1267 34.1278 43.3427C34.1278 48.683 38.5192 52.9055 43.789 52.9055C49.0588 52.9055 53.4502 48.5588 53.4502 43.3427C53.4502 38.0025 49.0588 33.78 43.789 33.78Z" fill="#242C36"/>
<path d="M43.789 64.207C32.1202 64.207 22.5845 54.7685 22.5845 43.2187C22.5845 31.793 32.1202 22.3545 43.789 22.3545V23.5964C32.7476 23.5964 23.8392 32.414 23.8392 43.3428C23.8392 54.1475 32.7476 63.0893 43.789 63.0893C54.7049 63.0893 63.7388 54.2717 63.7388 43.3428H64.9935C64.868 54.8927 55.4578 64.207 43.789 64.207Z" fill="#242C36"/>
<path d="M43.789 77.8682C24.4665 77.8682 8.78271 62.3442 8.78271 43.3429H10.0374C10.0374 61.7233 25.0939 76.6262 43.6635 76.6262C62.2332 76.6262 77.2896 61.7233 77.2896 43.3429C77.2896 29.4335 68.5067 16.8901 55.3323 12.0467L55.7087 10.929C69.385 15.8966 78.5443 28.9367 78.5443 43.3429C78.6698 62.3442 62.986 77.8682 43.789 77.8682Z" fill="#242C36"/>
<path d="M43.7892 86.6856C19.5734 86.6856 0 67.1876 0 43.3428C0 19.3739 19.5734 0 43.7892 0C68.005 0 87.5784 19.3739 87.5784 43.3428C87.5784 52.4088 84.6926 61.2264 79.4228 68.5537L78.4191 67.8085C83.5634 60.6054 86.3237 52.1604 86.3237 43.3428C86.3237 20.119 67.2522 1.24191 43.7892 1.24191C20.3262 1.24191 1.25471 20.119 1.25471 43.3428C1.25471 66.5666 20.3262 85.4437 43.7892 85.4437V86.6856Z" fill="#242C36"/>
</svg>
