<svg width="22" height="91" viewBox="0 0 22 91" fill="none" xmlns="http://www.w3.org/2000/svg">
<path d="M8 68.8L8 76.8L-1.53624e-06 76.8L-8.77853e-07 82.8L8 82.8L8 90.8L14 90.8L14 82.8L22 82.8L22 76.8L14 76.8L14 68.8L8 68.8Z" fill="#FFCB7C"/>
<path d="M7.99999 34.3999L8 42.3999L-3.85653e-06 42.3999L-2.23128e-06 48.2999L8 48.2999L8 56.3999L14 56.3999L14 48.2999L22 48.2999L22 42.3999L14 42.3999L14 34.3999L7.99999 34.3999Z" fill="white"/>
<path d="M7.99999 -5.54894e-08L8 8L-3.85653e-06 8L-2.23128e-06 13.9L8 13.9L8 22L14 22L14 13.9L22 13.9L22 8L14 8L14 -9.71064e-08L7.99999 -5.54894e-08Z" fill="#FFE667"/>
</svg>
