<svg width="133" height="23" viewBox="0 0 133 23" fill="none" xmlns="http://www.w3.org/2000/svg">
<g clip-path="url(#clip0_94_326)">
<path d="M72.1 11.3999C69.2 11.3999 66.7 10.0999 65 7.6999L64.4 6.8999C63.2 5.1999 61.3 4.1999 59.2 4.1999C57.1 4.1999 55.2 5.1999 54 6.8999L53.5 7.4999C51.8 9.7999 49.3 11.1999 46.4 11.1999C43.5 11.1999 41 9.8999 39.3 7.4999L38.7 6.5999C37.5 4.8999 35.6 3.8999 33.5 3.8999C31.4 3.8999 29.5 4.8999 28.3 6.5999L28 7.0999C26.3 9.3999 23.8 10.7999 20.9 10.7999C18 10.7999 15.5 9.4999 13.8 7.0999L13.5 6.6999C12.4 4.9999 10.5 3.9999 8.4 3.9999C6.3 3.9999 4.4 4.9999 3.2 6.6999L1.9 8.5999L0 7.1999L1.3 5.3999C3 3.0999 5.5 1.6999 8.4 1.6999C11.3 1.6999 13.8 2.9999 15.5 5.3999L15.8 5.7999C17 7.4999 18.9 8.4999 21 8.4999C23.1 8.4999 25 7.4999 26.2 5.7999L26.5 5.2999C28.2 2.9999 30.7 1.5999 33.6 1.5999C36.5 1.5999 39 2.8999 40.7 5.2999L41.3 6.1999C42.5 7.8999 44.4 8.8999 46.5 8.8999C48.6 8.8999 50.5 7.8999 51.7 6.1999L52.2 5.5999C53.9 3.2999 56.4 1.8999 59.3 1.8999C62.2 1.8999 64.7 3.1999 66.4 5.5999L67 6.3999C68.1 8.0999 70 8.9999 72.1 8.9999C74.2 8.9999 76.1 7.9999 77.3 6.2999L78.3 4.7999C80 2.4999 82.5 1.0999 85.4 1.0999C88.3 1.0999 90.8 2.3999 92.5 4.7999C93.7 6.4999 95.6 7.4999 97.7 7.4999C99.8 7.4999 101.7 6.4999 102.9 4.7999L103.8 3.5999C105.5 1.2999 108 -0.100098 110.9 -0.100098C113.8 -0.100098 116.3 1.1999 118 3.5999L119.7 5.9999C120.9 7.6999 122.8 8.6999 124.9 8.6999C127 8.6999 128.9 7.6999 130.1 5.9999L131.1 4.5999L133 5.8999L132 7.2999C130.3 9.5999 127.8 10.9999 124.9 10.9999C122 10.9999 119.5 9.6999 117.8 7.2999L116.1 4.9999C114.9 3.2999 113 2.2999 110.9 2.2999C108.8 2.2999 106.9 3.2999 105.7 4.9999L104.8 6.1999C103.1 8.4999 100.6 9.8999 97.7 9.8999C94.8 9.8999 92.3 8.5999 90.6 6.1999C89.4 4.4999 87.5 3.4999 85.4 3.4999C83.3 3.4999 81.4 4.4999 80.2 6.1999L79.2 7.6999C77.6 9.9999 75 11.3999 72.1 11.3999Z" fill="#FFE667"/>
<path d="M72.1 22.7999C69.2 22.7999 66.7 21.4999 65 19.0999L64.4 18.2999C63.2 16.5999 61.3 15.5999 59.2 15.5999C57.1 15.5999 55.2 16.5999 54 18.2999L53.5 18.8999C51.8 21.1999 49.3 22.5999 46.4 22.5999C43.5 22.5999 41 21.2999 39.3 18.8999L38.8 17.9999C37.6 16.2999 35.7 15.2999 33.6 15.2999C31.5 15.2999 29.6 16.2999 28.4 17.9999L28 18.4999C26.3 20.7999 23.8 22.1999 20.9 22.1999C18 22.1999 15.5 20.8999 13.8 18.4999L13.5 18.0999C12.3 16.3999 10.4 15.3999 8.3 15.3999C6.2 15.3999 4.3 16.3999 3.1 18.0999L1.8 19.8999L0 18.5999L1.3 16.7999C3 14.4999 5.5 13.0999 8.4 13.0999C11.3 13.0999 13.8 14.3999 15.5 16.7999L15.8 17.1999C17 18.8999 18.9 19.8999 21 19.8999C23.1 19.8999 25 18.8999 26.2 17.1999L26.5 16.6999C28.2 14.3999 30.7 12.9999 33.6 12.9999C36.5 12.9999 39 14.2999 40.7 16.6999L41.3 17.5999C42.5 19.2999 44.4 20.2999 46.5 20.2999C48.6 20.2999 50.5 19.2999 51.7 17.5999L52.2 16.9999C53.9 14.6999 56.4 13.2999 59.3 13.2999C62.2 13.2999 64.7 14.5999 66.4 16.9999L67 17.7999C68.2 19.4999 70.1 20.4999 72.2 20.4999C74.3 20.4999 76.2 19.4999 77.4 17.7999L78.4 16.2999C80.1 13.9999 82.6 12.5999 85.5 12.5999C88.4 12.5999 90.9 13.8999 92.6 16.2999C93.8 17.9999 95.7 18.9999 97.8 18.9999C99.9 18.9999 101.8 17.9999 103 16.2999L103.9 15.0999C105.6 12.7999 108.1 11.3999 111 11.3999C113.9 11.3999 116.4 12.6999 118.1 15.0999L119.8 17.4999C121 19.1999 122.9 20.1999 125 20.1999C127.1 20.1999 129 19.1999 130.2 17.4999L131.2 16.0999L133.1 17.3999L132.1 18.7999C130.4 21.0999 127.9 22.4999 125 22.4999C122.1 22.4999 119.6 21.1999 117.9 18.7999L116.2 16.3999C115 14.6999 113.1 13.6999 111 13.6999C108.9 13.6999 107 14.6999 105.8 16.3999L104.9 17.5999C103.2 19.8999 100.7 21.2999 97.8 21.2999C94.9 21.2999 92.4 19.9999 90.7 17.5999C89.5 15.8999 87.6 14.8999 85.5 14.8999C83.4 14.8999 81.5 15.8999 80.3 17.5999L79.3 19.0999C77.6 21.3999 75 22.7999 72.1 22.7999Z" fill="#FFE667"/>
</g>
<defs>
<clipPath id="clip0_94_326">
<rect width="133" height="22.8" fill="white"/>
</clipPath>
</defs>
</svg>
