<svg width="190" height="78" viewBox="0 0 190 78" fill="none" xmlns="http://www.w3.org/2000/svg">
<g clip-path="url(#clip0_94_274)">
<path d="M128.005 -1.71459e-05L62.3218 38.8097L128.005 78L128.005 -1.71459e-05ZM69.7437 38.8097L124.294 6.46828L124.294 71.1512L69.7437 38.8097Z" fill="#FFCB7C"/>
<path d="M190 -9.51655e-06L124.316 38.8097L189.629 78L190 -9.51655e-06ZM131.738 38.8098L186.66 6.84877L186.289 71.5317L131.738 38.8098Z" fill="#CC7722"/>
<path d="M66.0112 -9.51655e-06L0.32764 38.8097L66.0112 78L66.0112 -9.51655e-06ZM7.74952 38.8098L62.3003 6.46829L62.3003 71.1512L7.74952 38.8098Z" fill="#86A380"/>
</g>
<defs>
<clipPath id="clip0_94_274">
<rect width="190" height="78" fill="white" transform="matrix(1 8.74228e-08 8.74228e-08 -1 0 78)"/>
</clipPath>
</defs>
</svg>
