<svg width="112" height="108" viewBox="0 0 112 108" fill="none" xmlns="http://www.w3.org/2000/svg">
<g clip-path="url(#clip0_116_42)">
<path d="M109.203 76.4295C118.238 51.6153 105.33 24.2173 80.3714 15.2342C55.4131 6.25121 27.8558 19.0849 18.8206 43.8991C9.78542 68.7132 22.6936 96.1113 47.652 105.094C72.6103 114.077 100.167 101.244 109.203 76.4295Z" fill="#88A585"/>
<path d="M49.0442 60.9159C42.2989 60.9159 36.8184 55.467 36.8184 48.7607C36.8184 42.0544 42.2989 36.6055 49.0442 36.6055C55.7895 36.6055 61.2701 42.0544 61.2701 48.7607C61.2701 55.467 55.7895 60.9159 49.0442 60.9159ZM49.0442 38.0026C43.0016 38.0026 38.2236 42.8927 38.2236 48.7607C38.2236 54.7685 43.1421 59.5188 49.0442 59.5188C54.9464 59.5188 59.8648 54.6287 59.8648 48.7607C59.8648 42.7529 54.9464 38.0026 49.0442 38.0026Z" fill="#E5E5E5"/>
<path d="M49.044 72.233C35.975 72.233 25.2949 61.6146 25.2949 48.6211C25.2949 35.7673 35.975 25.1489 49.044 25.1489V26.5461C36.6776 26.5461 26.7002 36.4659 26.7002 48.7608C26.7002 60.9161 36.6776 70.9756 49.044 70.9756C61.2698 70.9756 71.3878 61.0558 71.3878 48.7608H72.793C72.6525 61.7544 62.113 72.233 49.044 72.233Z" fill="#E5E5E5"/>
<path d="M49.0439 87.6015C27.4028 87.6015 9.83691 70.1371 9.83691 48.7606H11.2422C11.2422 69.4385 28.1054 86.2044 48.9034 86.2044C69.7014 86.2044 86.5646 69.4385 86.5646 48.7606C86.5646 33.1125 76.7277 19.0013 61.9724 13.5524L62.394 12.2949C77.7114 17.8835 87.9699 32.5537 87.9699 48.7606C88.1104 70.1371 70.5446 87.6015 49.0439 87.6015Z" fill="#E5E5E5"/>
<path d="M49.0439 97.5213C21.9222 97.5213 0 75.586 0 48.7607C0 21.7956 21.9222 0 49.0439 0C76.1656 0 98.0879 21.7956 98.0879 48.7607C98.0879 58.9599 94.8557 68.8797 88.9536 77.1229L87.8294 76.2846C93.591 68.1811 96.6826 58.6805 96.6826 48.7607C96.6826 22.6339 75.3225 1.39715 49.0439 1.39715C22.7654 1.39715 1.40527 22.6339 1.40527 48.7607C1.40527 74.8875 22.7654 96.1242 49.0439 96.1242V97.5213Z" fill="#E5E5E5"/>
</g>
<defs>
<clipPath id="clip0_116_42">
<rect width="112" height="108" fill="white"/>
</clipPath>
</defs>
</svg>
