<svg width="70" height="68" viewBox="0 0 70 68" fill="none" xmlns="http://www.w3.org/2000/svg">
<g clip-path="url(#clip0_94_313)">
<path d="M68.2517 48.1223C73.8987 32.4985 65.8311 15.2479 50.2321 9.59194C34.6332 3.93595 17.4099 12.0164 11.7629 27.6402C6.11589 43.2639 14.1835 60.5145 29.7825 66.1705C45.3814 71.8265 62.6047 63.746 68.2517 48.1223Z" fill="#FFCB7C"/>
<path d="M30.6524 38.3544C26.4366 38.3544 23.0112 34.9237 23.0112 30.7011C23.0112 26.4786 26.4366 23.0479 30.6524 23.0479C34.8682 23.0479 38.2935 26.4786 38.2935 30.7011C38.2935 34.9237 34.8682 38.3544 30.6524 38.3544ZM30.6524 23.9275C26.8757 23.9275 23.8895 27.0065 23.8895 30.7011C23.8895 34.4838 26.9636 37.4748 30.6524 37.4748C34.3412 37.4748 37.4153 34.3958 37.4153 30.7011C37.4153 26.9185 34.3412 23.9275 30.6524 23.9275Z" fill="black"/>
<path d="M30.6522 45.48C22.4841 45.48 15.8091 38.7944 15.8091 30.6133C15.8091 22.5201 22.4841 15.8345 30.6522 15.8345V16.7142C22.9233 16.7142 16.6874 22.96 16.6874 30.7012C16.6874 38.3545 22.9233 44.6883 30.6522 44.6883C38.2934 44.6883 44.6171 38.4425 44.6171 30.7012H45.4954C45.4076 38.8823 38.8204 45.48 30.6522 45.48Z" fill="black"/>
<path d="M30.6523 55.1565C17.1266 55.1565 6.14795 44.1604 6.14795 30.7011H7.02624C7.02624 43.7205 17.5658 54.2768 30.5645 54.2768C43.5633 54.2768 54.1028 43.7205 54.1028 30.7011C54.1028 20.8486 47.9547 11.9637 38.7326 8.53293L38.9961 7.74121C48.5695 11.26 54.9811 20.4967 54.9811 30.7011C55.0689 44.1604 44.0902 55.1565 30.6523 55.1565Z" fill="black"/>
<path d="M30.6525 61.4023C13.7014 61.4023 0 47.5912 0 30.7012C0 13.7232 13.7014 0 30.6525 0C47.6035 0 61.3049 13.7232 61.3049 30.7012C61.3049 37.1229 59.2848 43.3687 55.596 48.5589L54.8934 48.031C58.4944 42.9288 60.4266 36.947 60.4266 30.7012C60.4266 14.251 47.0765 0.879689 30.6525 0.879689C14.2284 0.879689 0.878294 14.251 0.878294 30.7012C0.878294 47.1514 14.2284 60.5226 30.6525 60.5226V61.4023Z" fill="black"/>
</g>
<defs>
<clipPath id="clip0_94_313">
<rect width="70" height="68" fill="white"/>
</clipPath>
</defs>
</svg>
