<svg width="50" height="50" viewBox="0 0 50 50" fill="none" xmlns="http://www.w3.org/2000/svg">
<path d="M3.125 26.5325V45.2825C3.125 47.0075 4.52813 48.4075 6.25 48.4075H21.875V26.5325H3.125Z" fill="#F6C478"/>
<path d="M46.875 14.0324H36.9875C37.6969 13.548 38.3063 13.0667 38.7313 12.6355C41.2531 10.1011 41.2531 5.97612 38.7313 3.44175C36.2812 0.972999 32.0125 0.979249 29.5656 3.44175C28.2094 4.80112 24.6156 10.3355 25.1125 14.0324H24.8875C25.3813 10.3355 21.7875 4.80112 20.4344 3.44175C17.9844 0.979249 13.7156 0.979249 11.2688 3.44175C8.75 5.97612 8.75 10.1011 11.2656 12.6355C11.6938 13.0667 12.3031 13.548 13.0125 14.0324H3.125C1.40313 14.0324 0 15.4355 0 17.1574V21.8449C0 22.7074 0.7 23.4074 1.5625 23.4074H21.875V17.1574H28.125V23.4074H48.4375C49.3 23.4074 50 22.7074 50 21.8449V17.1574C50 15.4355 48.6 14.0324 46.875 14.0324ZM21.6906 13.9292C21.6906 13.9292 21.5594 14.0324 21.1125 14.0324C18.9531 14.0324 14.8313 11.7886 13.4844 10.4324C12.175 9.11362 12.175 6.96362 13.4844 5.64487C14.1188 5.00737 14.9594 4.65737 15.8531 4.65737C16.7437 4.65737 17.5844 5.00737 18.2188 5.64487C20.325 7.76362 22.4188 13.1761 21.6906 13.9292ZM28.8844 14.0324C28.4406 14.0324 28.3094 13.9324 28.3094 13.9292C27.5812 13.1761 29.675 7.76362 31.7812 5.64487C33.0406 4.373 35.2438 4.36675 36.5156 5.64487C37.8281 6.96362 37.8281 9.11362 36.5156 10.4324C35.1688 11.7886 31.0469 14.0324 28.8844 14.0324Z" fill="#F6C478"/>
<path d="M28.125 26.5325V48.4075H43.75C45.475 48.4075 46.875 47.0075 46.875 45.2825V26.5325H28.125Z" fill="#F6C478"/>
</svg>
