<svg width="50" height="50" viewBox="0 0 50 50" fill="none" xmlns="http://www.w3.org/2000/svg">
<path d="M40.562 13.8999H43.5886V16.8288H40.562V13.8999Z" fill="#F3BB66"/>
<path d="M46.9736 13.8999H50.0002V16.8288H46.9736V13.8999Z" fill="#F3BB66"/>
<path d="M43.8169 17.0566H46.7458V20.0832H43.8169V17.0566Z" fill="#F3BB66"/>
<path d="M43.8169 10.6458H46.7458V13.6723H43.8169V10.6458Z" fill="#F3BB66"/>
<path d="M30.4087 3.25439H33.4353V6.18332H30.4087V3.25439Z" fill="#F3BB66"/>
<path d="M36.8198 3.25439H39.8464V6.18332H36.8198V3.25439Z" fill="#F3BB66"/>
<path d="M33.6626 6.41089H36.5915V9.43747H33.6626V6.41089Z" fill="#F3BB66"/>
<path d="M33.6626 0H36.5915V3.02658H33.6626V0Z" fill="#F3BB66"/>
<path d="M6.06299 6.93237H9.08957V9.8613H6.06299V6.93237Z" fill="#F3BB66"/>
<path d="M12.4746 6.93237H15.5012V9.8613H12.4746V6.93237Z" fill="#F3BB66"/>
<path d="M9.31787 10.0891H12.2468V13.1161H9.31787V10.0891Z" fill="#F3BB66"/>
<path d="M9.31787 3.67822H12.2468V6.7048H9.31787V3.67822Z" fill="#F3BB66"/>
<path d="M0 20.4766H8.65059V49.1696H0V20.4766Z" fill="#F3BB66"/>
<path d="M42.3871 22.6993H29.4869L31.4896 15.7809V13.4498C31.4896 9.56221 28.3383 6.41089 24.4511 6.41089C24.1059 6.41089 23.8259 6.69089 23.8259 7.03574V9.78918C23.8259 11.7911 22.9535 13.6931 21.4364 14.9989L11.5796 23.4828V46.6365L17.2173 48.7506C19.3982 49.5685 21.7084 49.9873 24.0376 49.9873H39.2716C41.1553 49.9873 42.6827 48.4603 42.6827 46.5762C42.6827 44.6925 41.1553 43.1651 39.2716 43.1651H40.31C42.1941 43.1651 43.7211 41.6381 43.7211 39.7544C43.7211 37.9828 42.3711 36.5275 40.6438 36.3597L40.6457 36.3433H41.3487C43.2324 36.3433 44.7598 34.8159 44.7598 32.9322C44.7598 31.24 43.5273 29.8366 41.9114 29.568L41.8668 29.5211H42.3871C44.2712 29.5211 45.7982 27.9937 45.7982 26.11C45.7982 24.2263 44.2708 22.6993 42.3871 22.6993Z" fill="#F3BB66"/>
</svg>
