<svg width="24" height="24" viewBox="0 0 24 24" fill="none" xmlns="http://www.w3.org/2000/svg">
<g clip-path="url(#clip0_94_528)">
<path d="M22.8029 20.7147H6.75419C6.09274 20.7147 5.55664 20.1786 5.55664 19.5171C5.55664 18.8557 6.09274 18.3196 6.75419 18.3196H22.8025C23.4639 18.3196 24 18.8557 24 19.5171C24 20.1786 23.4643 20.7147 22.8029 20.7147Z" fill="#535353"/>
<path d="M22.8029 13.1978H6.75419C6.09274 13.1978 5.55664 12.6617 5.55664 12.0003C5.55664 11.3388 6.09274 10.8027 6.75419 10.8027H22.8025C23.4639 10.8027 24 11.3388 24 12.0003C24.0004 12.6617 23.4643 13.1978 22.8029 13.1978Z" fill="#535353"/>
<path d="M22.8029 5.68073H6.75419C6.09274 5.68073 5.55664 5.14463 5.55664 4.48319C5.55664 3.82175 6.09274 3.28564 6.75419 3.28564H22.8025C23.4639 3.28564 24 3.82175 24 4.48319C24 5.14463 23.4643 5.68073 22.8029 5.68073Z" fill="#535353"/>
<path d="M1.6083 6.18414C2.49654 6.18414 3.21661 5.46407 3.21661 4.57583C3.21661 3.68759 2.49654 2.96753 1.6083 2.96753C0.720062 2.96753 0 3.68759 0 4.57583C0 5.46407 0.720062 6.18414 1.6083 6.18414Z" fill="#535353"/>
<path d="M1.6083 13.6085C2.49654 13.6085 3.21661 12.8884 3.21661 12.0001C3.21661 11.1119 2.49654 10.3918 1.6083 10.3918C0.720062 10.3918 0 11.1119 0 12.0001C0 12.8884 0.720062 13.6085 1.6083 13.6085Z" fill="#535353"/>
<path d="M1.6083 21.033C2.49654 21.033 3.21661 20.3129 3.21661 19.4247C3.21661 18.5365 2.49654 17.8164 1.6083 17.8164C0.720062 17.8164 0 18.5365 0 19.4247C0 20.3129 0.720062 21.033 1.6083 21.033Z" fill="#535353"/>
</g>
<defs>
<clipPath id="clip0_94_528">
<rect width="24" height="24" fill="white"/>
</clipPath>
</defs>
</svg>
