<svg width="24" height="24" viewBox="0 0 24 24" fill="none" xmlns="http://www.w3.org/2000/svg">
<path d="M17.0484 0H6.95004C5.98428 0 5.2041 0.78321 5.2041 1.74897V22.2533C5.2041 23.216 5.98428 24 6.95004 24H17.0484C18.0127 24 18.7959 23.2168 18.7959 22.2533V1.74897C18.7951 0.78321 18.0127 0 17.0484 0ZM17.4863 19.4454H6.51374V2.95029H17.4863V19.4454ZM14.3405 1.77472H9.6587V1.26419H14.3413L14.3405 1.77472ZM16.344 1.54142C16.344 1.78835 16.1425 1.98832 15.8964 1.98832C15.6494 1.98832 15.4487 1.7876 15.4487 1.54142C15.4487 1.29525 15.6494 1.09452 15.8964 1.09452C16.1433 1.09377 16.344 1.29449 16.344 1.54142ZM14.1307 22.1367H9.867V20.8247H14.1307V22.1367Z" fill="white"/>
</svg>
