<svg width="24" height="24" viewBox="0 0 24 24" fill="none" xmlns="http://www.w3.org/2000/svg">
<path d="M17.048 0H6.94955C5.98379 0 5.20361 0.78321 5.20361 1.74897V22.2533C5.20361 23.216 5.98379 24 6.94955 24H17.048C18.0122 24 18.7954 23.2168 18.7954 22.2533V1.74897C18.7947 0.78321 18.0122 0 17.048 0ZM17.4858 19.4454H6.51326V2.95029H17.4858V19.4454ZM14.34 1.77472H9.65821V1.26419H14.3408L14.34 1.77472ZM16.3435 1.54142C16.3435 1.78835 16.142 1.98832 15.8959 1.98832C15.6489 1.98832 15.4482 1.7876 15.4482 1.54142C15.4482 1.29525 15.6489 1.09452 15.8959 1.09452C16.1428 1.09377 16.3435 1.29449 16.3435 1.54142ZM14.1302 22.1367H9.86651V20.8247H14.1302V22.1367Z" fill="#535353"/>
</svg>
