<svg width="24" height="24" viewBox="0 0 24 24" fill="none" xmlns="http://www.w3.org/2000/svg">
<path d="M19.4264 18.205C18.3106 17.8189 16.8569 17.5268 15.2434 17.3595C15.4911 16.9836 15.7446 16.589 15.9989 16.1804C18.3029 12.4766 19.4713 9.54638 19.4713 7.47098C19.4712 3.35147 16.1197 0 12.0003 0C7.8808 0 4.52934 3.35147 4.52934 7.47098C4.52934 9.54638 5.69765 12.4766 8.00174 16.1804C8.25595 16.589 8.50954 16.9836 8.75718 17.3595C7.14379 17.5268 5.68991 17.8188 4.5742 18.205C2.83434 18.807 1.95215 19.6125 1.95215 20.5987C1.95215 21.704 3.05216 22.5777 5.22159 23.1957C7.0423 23.7144 9.44971 24 12.0003 24C14.5508 24 16.9582 23.7143 18.779 23.1957C20.9484 22.5777 22.0484 21.7039 22.0484 20.5987C22.0484 19.6125 21.1663 18.807 19.4264 18.205ZM6.03655 7.47098C6.03655 4.18252 8.71185 1.50722 12.0003 1.50722C15.2887 1.50722 17.964 4.18252 17.964 7.47098C17.964 9.23311 16.8446 11.9652 14.7268 15.3717C13.6845 17.0483 12.632 18.5099 12.0002 19.3565C11.3685 18.51 10.316 17.0483 9.27365 15.3717C7.15598 11.9652 6.03655 9.23316 6.03655 7.47098ZM18.366 21.7461C16.6758 22.2276 14.415 22.4928 12.0003 22.4928C9.58551 22.4928 7.32473 22.2276 5.63451 21.7461C3.83746 21.2342 3.45932 20.6855 3.45932 20.5987C3.45932 20.5168 3.7454 20.0867 5.06709 19.6293C6.25851 19.2171 7.90082 18.921 9.72707 18.7866C10.6667 20.1274 11.3651 21.0107 11.4098 21.0671C11.5528 21.2473 11.7703 21.3524 12.0003 21.3524C12.2303 21.3524 12.4477 21.2473 12.5907 21.0671C12.6354 21.0107 13.3339 20.1274 14.2735 18.7866C16.0998 18.921 17.7421 19.217 18.9335 19.6293C20.2551 20.0867 20.5412 20.5168 20.5412 20.5987C20.5412 20.6855 20.1631 21.2342 18.366 21.7461Z" fill="#535353"/>
<path d="M12 3.97925C10.0747 3.97925 8.5083 5.54567 8.5083 7.47097C8.5083 9.39626 10.0747 10.9627 12 10.9627C13.9253 10.9627 15.4918 9.39626 15.4918 7.47097C15.4918 5.54567 13.9254 3.97925 12 3.97925ZM12 9.45551C10.9058 9.45551 10.0155 8.56526 10.0155 7.47101C10.0155 6.37672 10.9058 5.48651 12 5.48651C13.0943 5.48651 13.9845 6.37676 13.9845 7.47101C13.9845 8.56526 13.0943 9.45551 12 9.45551Z" fill="#535353"/>
</svg>
