<svg width="154" height="42" viewBox="0 0 154 42" fill="none" xmlns="http://www.w3.org/2000/svg">
<path d="M48.9971 17.9231V1.82306H52.2631L59.8071 11.7361V1.82306H63.3031V17.9231H60.2901L52.4931 7.68806V17.9231H48.9971Z" fill="#F6C478"/>
<path d="M70.296 18.1531C69.0847 18.1531 68.0727 17.8157 67.26 17.1411C66.4627 16.4664 66.064 15.5311 66.064 14.3351C66.064 13.0317 66.5087 12.0504 67.398 11.3911C68.3027 10.7317 69.514 10.4021 71.032 10.4021C72.0593 10.4021 73.0637 10.5707 74.045 10.9081V10.7011C74.045 9.19839 73.1633 8.44706 71.4 8.44706C70.342 8.44706 69.2073 8.66939 67.996 9.11406L67.122 6.44606C68.6247 5.78672 70.2193 5.45706 71.906 5.45706C73.7613 5.45706 75.149 5.91706 76.069 6.83706C76.9583 7.72639 77.403 9.03739 77.403 10.7701V17.9231H74.022V16.5891C73.0867 17.6317 71.8447 18.1531 70.296 18.1531ZM71.354 15.7381C72.1667 15.7381 72.826 15.5387 73.332 15.1401C73.838 14.7261 74.091 14.2047 74.091 13.5761V12.9551C73.4317 12.6484 72.688 12.4951 71.86 12.4951C71.0933 12.4951 70.4953 12.6484 70.066 12.9551C69.652 13.2464 69.445 13.6757 69.445 14.2431C69.445 14.7031 69.6213 15.0711 69.974 15.3471C70.3267 15.6077 70.7867 15.7381 71.354 15.7381Z" fill="#F6C478"/>
<path d="M80.4803 4.23806V1.13306H84.1603V4.23806H80.4803ZM80.5723 17.9231V5.59506H84.0683V17.9231H80.5723Z" fill="#F6C478"/>
<path d="M87.5128 17.9231V1.13306H91.0088V17.9231H87.5128Z" fill="#F6C478"/>
<path d="M109.1 18.1991C106.738 18.1991 104.768 17.4017 103.189 15.8071C101.625 14.1971 100.843 12.2191 100.843 9.87306C100.843 7.54239 101.632 5.57206 103.212 3.96206C104.791 2.35206 106.8 1.54706 109.238 1.54706C110.633 1.54706 111.806 1.77706 112.757 2.23706C113.707 2.68172 114.612 3.32572 115.471 4.16906L113.355 6.60706C112.665 5.97839 112.013 5.52606 111.4 5.25006C110.802 4.95872 110.073 4.81306 109.215 4.81306C107.865 4.81306 106.746 5.30372 105.857 6.28506C104.983 7.25106 104.546 8.44706 104.546 9.87306C104.546 11.2837 104.983 12.4797 105.857 13.4611C106.746 14.4424 107.865 14.9331 109.215 14.9331C110.073 14.9331 110.817 14.7797 111.446 14.4731C112.074 14.1664 112.741 13.6911 113.447 13.0471L115.701 15.4621C114.827 16.3974 113.876 17.0874 112.849 17.5321C111.837 17.9767 110.587 18.1991 109.1 18.1991Z" fill="#F6C478"/>
<path d="M118.329 17.9231V1.13306H121.825V17.9231H118.329Z" fill="#F6C478"/>
<path d="M129.203 18.1531C127.884 18.1531 126.857 17.7467 126.121 16.9341C125.385 16.1214 125.017 15.0021 125.017 13.5761V5.59506H128.513V12.4721C128.513 13.2847 128.697 13.9057 129.065 14.3351C129.433 14.7644 129.954 14.9791 130.629 14.9791C131.303 14.9791 131.832 14.7644 132.216 14.3351C132.614 13.9057 132.814 13.2847 132.814 12.4721V5.59506H136.31V17.9231H132.814V16.1751C131.786 17.4937 130.583 18.1531 129.203 18.1531Z" fill="#F6C478"/>
<path d="M146.776 18.1531C145.242 18.1531 143.962 17.5397 142.935 16.3131V17.9231H139.439V1.13306H142.935V7.36606C143.916 6.03206 145.196 5.36506 146.776 5.36506C148.309 5.36506 149.628 5.94006 150.732 7.09006C151.836 8.24006 152.388 9.80406 152.388 11.7821C152.388 13.7447 151.836 15.3011 150.732 16.4511C149.643 17.5857 148.324 18.1531 146.776 18.1531ZM143.74 14.2431C144.322 14.8717 145.035 15.1861 145.879 15.1861C146.722 15.1861 147.435 14.8717 148.018 14.2431C148.6 13.5991 148.892 12.7634 148.892 11.7361C148.892 10.7394 148.6 9.92672 148.018 9.29806C147.435 8.65406 146.722 8.33206 145.879 8.33206C145.035 8.33206 144.322 8.65406 143.74 9.29806C143.172 9.92672 142.889 10.7547 142.889 11.7821C142.889 12.7787 143.172 13.5991 143.74 14.2431Z" fill="#F6C478"/>
<path d="M48.8291 40.9231V26.2231H59.9171V29.1001H52.0421V32.0821H58.9721V34.9591H52.0421V38.0461H60.0221V40.9231H48.8291Z" fill="#F6C478"/>
<path d="M66.9764 41.1331C65.5764 41.1331 64.3724 40.6081 63.3644 39.5581C62.3564 38.5081 61.8524 37.0801 61.8524 35.2741C61.8524 33.4821 62.3494 32.0681 63.3434 31.0321C64.3514 29.9821 65.5624 29.4571 66.9764 29.4571C68.3764 29.4571 69.5454 30.0171 70.4834 31.1371V25.5931H73.6754V40.9231H70.4834V39.3061C69.5874 40.5241 68.4184 41.1331 66.9764 41.1331ZM65.8424 37.5631C66.3744 38.1371 67.0254 38.4241 67.7954 38.4241C68.5654 38.4241 69.2094 38.1371 69.7274 37.5631C70.2594 36.9751 70.5254 36.2121 70.5254 35.2741C70.5254 34.3641 70.2594 33.6221 69.7274 33.0481C69.2094 32.4601 68.5654 32.1661 67.7954 32.1661C67.0254 32.1661 66.3744 32.4601 65.8424 33.0481C65.3104 33.6221 65.0444 34.3781 65.0444 35.3161C65.0444 36.2261 65.3104 36.9751 65.8424 37.5631Z" fill="#F6C478"/>
<path d="M80.2653 41.1331C79.0613 41.1331 78.1233 40.7621 77.4513 40.0201C76.7793 39.2781 76.4433 38.2561 76.4433 36.9541V29.6671H79.6353V35.9461C79.6353 36.6881 79.8033 37.2551 80.1393 37.6471C80.4753 38.0391 80.9513 38.2351 81.5673 38.2351C82.1833 38.2351 82.6663 38.0391 83.0163 37.6471C83.3803 37.2551 83.5623 36.6881 83.5623 35.9461V29.6671H86.7543V40.9231H83.5623V39.3271C82.6243 40.5311 81.5253 41.1331 80.2653 41.1331Z" fill="#F6C478"/>
<path d="M94.9243 41.1751C93.2443 41.1751 91.8443 40.6081 90.7243 39.4741C89.6183 38.3401 89.0653 36.9541 89.0653 35.3161C89.0653 33.6921 89.6253 32.3131 90.7453 31.1791C91.8653 30.0311 93.2723 29.4571 94.9663 29.4571C96.7723 29.4571 98.2633 30.1151 99.4393 31.4311L97.5703 33.3211C96.7863 32.5791 95.9113 32.2081 94.9453 32.2081C94.1613 32.2081 93.5103 32.5091 92.9923 33.1111C92.4743 33.7131 92.2153 34.4481 92.2153 35.3161C92.2153 36.1981 92.4743 36.9401 92.9923 37.5421C93.5243 38.1301 94.2173 38.4241 95.0713 38.4241C95.9533 38.4241 96.8143 38.0251 97.6543 37.2271L99.5233 39.1171C98.9073 39.7891 98.2493 40.3001 97.5493 40.6501C96.8493 41.0001 95.9743 41.1751 94.9243 41.1751Z" fill="#F6C478"/>
<path d="M104.8 41.1331C103.694 41.1331 102.77 40.8251 102.028 40.2091C101.3 39.5931 100.936 38.7391 100.936 37.6471C100.936 36.4571 101.342 35.5611 102.154 34.9591C102.98 34.3571 104.086 34.0561 105.472 34.0561C106.41 34.0561 107.327 34.2101 108.223 34.5181V34.3291C108.223 32.9571 107.418 32.2711 105.808 32.2711C104.842 32.2711 103.806 32.4741 102.7 32.8801L101.902 30.4441C103.274 29.8421 104.73 29.5411 106.27 29.5411C107.964 29.5411 109.231 29.9611 110.071 30.8011C110.883 31.6131 111.289 32.8101 111.289 34.3921V40.9231H108.202V39.7051C107.348 40.6571 106.214 41.1331 104.8 41.1331ZM105.766 38.9281C106.508 38.9281 107.11 38.7461 107.572 38.3821C108.034 38.0041 108.265 37.5281 108.265 36.9541V36.3871C107.663 36.1071 106.984 35.9671 106.228 35.9671C105.528 35.9671 104.982 36.1071 104.59 36.3871C104.212 36.6531 104.023 37.0451 104.023 37.5631C104.023 37.9831 104.184 38.3191 104.506 38.5711C104.828 38.8091 105.248 38.9281 105.766 38.9281Z" fill="#F6C478"/>
<path d="M117.735 41.1121C116.685 41.1121 115.873 40.8601 115.299 40.3561C114.739 39.8381 114.459 38.9631 114.459 37.7311V32.3971H113.115V29.6671H114.459V26.7901H117.651V29.6671H120.297V32.3971H117.651V37.2061C117.651 37.9341 117.994 38.2981 118.68 38.2981C119.24 38.2981 119.765 38.1651 120.255 37.8991V40.4611C119.527 40.8951 118.687 41.1121 117.735 41.1121Z" fill="#F6C478"/>
<path d="M122.712 28.4281V25.5931H126.072V28.4281H122.712ZM122.796 40.9231V29.6671H125.988V40.9231H122.796Z" fill="#F6C478"/>
<path d="M138.856 39.4741C137.694 40.6081 136.245 41.1751 134.509 41.1751C132.773 41.1751 131.324 40.6151 130.162 39.4951C129.014 38.3611 128.44 36.9681 128.44 35.3161C128.44 33.6781 129.021 32.2921 130.183 31.1581C131.359 30.0241 132.815 29.4571 134.551 29.4571C136.287 29.4571 137.729 30.0241 138.877 31.1581C140.039 32.2781 140.62 33.6641 140.62 35.3161C140.62 36.9541 140.032 38.3401 138.856 39.4741ZM134.551 38.4241C135.433 38.4241 136.14 38.1301 136.672 37.5421C137.204 36.9401 137.47 36.1981 137.47 35.3161C137.47 34.4621 137.19 33.7341 136.63 33.1321C136.084 32.5161 135.377 32.2081 134.509 32.2081C133.627 32.2081 132.92 32.5091 132.388 33.1111C131.856 33.6991 131.59 34.4341 131.59 35.3161C131.59 36.1701 131.863 36.9051 132.409 37.5211C132.969 38.1231 133.683 38.4241 134.551 38.4241Z" fill="#F6C478"/>
<path d="M142.932 40.9231V29.6671H146.124V31.2631C147.062 30.0591 148.161 29.4571 149.421 29.4571C150.625 29.4571 151.563 29.8281 152.235 30.5701C152.907 31.3121 153.243 32.3341 153.243 33.6361V40.9231H150.051V34.6441C150.051 33.9021 149.883 33.3351 149.547 32.9431C149.211 32.5511 148.735 32.3551 148.119 32.3551C147.503 32.3551 147.013 32.5511 146.649 32.9431C146.299 33.3351 146.124 33.9021 146.124 34.6441V40.9231H142.932Z" fill="#F6C478"/>
<path d="M0.849263 0.999942L37.0005 20.9686L0.849266 41.1331L0.849263 0.999942ZM32.9156 20.9686L2.89171 4.32806L2.89171 37.6092L32.9156 20.9686Z" fill="#F6C478" stroke="#F6C478"/>
</svg>
