<svg width="166" height="41" viewBox="0 0 166 41" fill="none" xmlns="http://www.w3.org/2000/svg">
<path d="M16.3901 27.5366L18.3414 26.561V15.439L16.3901 14.2683V27.5366Z" fill="#FFE667"/>
<path d="M16.3901 1V8.80488L18.3414 9.78049V4.31707L47.0243 20.9024L18.3414 37.4878V32.2195L16.3901 33.1951V41L50.9267 20.9024L16.3901 1Z" fill="#FFE667"/>
<path d="M0 1L34.7317 20.9024L0.195122 41L0 1ZM30.8293 20.9024L1.95122 4.5122L2.14634 37.6829L30.8293 20.9024Z" fill="#FFCB7C"/>
<path d="M62.05 16.79V0.689999H65.316L72.86 10.603V0.689999H76.356V16.79H73.343L65.546 6.555V16.79H62.05Z" fill="#F6C478"/>
<path d="M83.3489 17.02C82.1376 17.02 81.1256 16.6827 80.3129 16.008C79.5156 15.3333 79.1169 14.398 79.1169 13.202C79.1169 11.8987 79.5616 10.9173 80.4509 10.258C81.3556 9.59867 82.5669 9.269 84.0849 9.269C85.1122 9.269 86.1166 9.43767 87.0979 9.775V9.568C87.0979 8.06533 86.2162 7.314 84.4529 7.314C83.3949 7.314 82.2602 7.53633 81.0489 7.981L80.1749 5.313C81.6776 4.65367 83.2722 4.324 84.9589 4.324C86.8142 4.324 88.2019 4.784 89.1219 5.704C90.0112 6.59333 90.4559 7.90433 90.4559 9.637V16.79H87.0749V15.456C86.1396 16.4987 84.8976 17.02 83.3489 17.02ZM84.4069 14.605C85.2196 14.605 85.8789 14.4057 86.3849 14.007C86.8909 13.593 87.1439 13.0717 87.1439 12.443V11.822C86.4846 11.5153 85.7409 11.362 84.9129 11.362C84.1462 11.362 83.5482 11.5153 83.1189 11.822C82.7049 12.1133 82.4979 12.5427 82.4979 13.11C82.4979 13.57 82.6742 13.938 83.0269 14.214C83.3796 14.4747 83.8396 14.605 84.4069 14.605Z" fill="#F6C478"/>
<path d="M93.5332 3.105V0H97.2132V3.105H93.5332ZM93.6252 16.79V4.462H97.1212V16.79H93.6252Z" fill="#F6C478"/>
<path d="M100.566 16.79V0H104.062V16.79H100.566Z" fill="#F6C478"/>
<path d="M122.153 17.066C119.791 17.066 117.821 16.2687 116.242 14.674C114.678 13.064 113.896 11.086 113.896 8.74C113.896 6.40933 114.685 4.439 116.265 2.829C117.844 1.219 119.853 0.414 122.291 0.414C123.686 0.414 124.859 0.644 125.81 1.104C126.76 1.54867 127.665 2.19267 128.524 3.036L126.408 5.474C125.718 4.84533 125.066 4.393 124.453 4.117C123.855 3.82567 123.126 3.68 122.268 3.68C120.918 3.68 119.799 4.17067 118.91 5.152C118.036 6.118 117.599 7.314 117.599 8.74C117.599 10.1507 118.036 11.3467 118.91 12.328C119.799 13.3093 120.918 13.8 122.268 13.8C123.126 13.8 123.87 13.6467 124.499 13.34C125.127 13.0333 125.794 12.558 126.5 11.914L128.754 14.329C127.88 15.2643 126.929 15.9543 125.902 16.399C124.89 16.8437 123.64 17.066 122.153 17.066Z" fill="#F6C478"/>
<path d="M131.382 16.79V0H134.878V16.79H131.382Z" fill="#F6C478"/>
<path d="M142.255 17.02C140.937 17.02 139.909 16.6137 139.173 15.801C138.437 14.9883 138.069 13.869 138.069 12.443V4.462H141.565V11.339C141.565 12.1517 141.749 12.7727 142.117 13.202C142.485 13.6313 143.007 13.846 143.681 13.846C144.356 13.846 144.885 13.6313 145.268 13.202C145.667 12.7727 145.866 12.1517 145.866 11.339V4.462H149.362V16.79H145.866V15.042C144.839 16.3607 143.635 17.02 142.255 17.02Z" fill="#F6C478"/>
<path d="M159.829 17.02C158.295 17.02 157.015 16.4067 155.988 15.18V16.79H152.492V0H155.988V6.233C156.969 4.899 158.249 4.232 159.829 4.232C161.362 4.232 162.681 4.807 163.785 5.957C164.889 7.107 165.441 8.671 165.441 10.649C165.441 12.6117 164.889 14.168 163.785 15.318C162.696 16.4527 161.377 17.02 159.829 17.02ZM156.793 13.11C157.375 13.7387 158.088 14.053 158.932 14.053C159.775 14.053 160.488 13.7387 161.071 13.11C161.653 12.466 161.945 11.6303 161.945 10.603C161.945 9.60633 161.653 8.79367 161.071 8.165C160.488 7.521 159.775 7.199 158.932 7.199C158.088 7.199 157.375 7.521 156.793 8.165C156.225 8.79367 155.942 9.62167 155.942 10.649C155.942 11.6457 156.225 12.466 156.793 13.11Z" fill="#F6C478"/>
<path d="M66.88 40.042C65.172 40.042 63.765 39.503 62.659 38.425C61.553 37.333 61 35.919 61 34.183C61 32.545 61.525 31.159 62.575 30.025C63.625 28.891 64.955 28.324 66.565 28.324C68.343 28.324 69.701 28.912 70.639 30.088C71.577 31.264 72.046 32.713 72.046 34.435C72.046 34.603 72.032 34.883 72.004 35.275H64.171C64.325 35.989 64.64 36.535 65.116 36.913C65.592 37.291 66.194 37.48 66.922 37.48C67.916 37.48 68.826 37.095 69.652 36.325L71.479 37.942C70.345 39.342 68.812 40.042 66.88 40.042ZM64.129 33.28H68.938C68.84 32.552 68.581 31.971 68.161 31.537C67.755 31.103 67.223 30.886 66.565 30.886C65.921 30.886 65.382 31.103 64.948 31.537C64.528 31.957 64.255 32.538 64.129 33.28Z" fill="#F6C478"/>
<path d="M79.0449 40C77.6449 40 76.4409 39.475 75.4329 38.425C74.4249 37.375 73.9209 35.947 73.9209 34.141C73.9209 32.349 74.4179 30.935 75.4119 29.899C76.4199 28.849 77.6309 28.324 79.0449 28.324C80.4449 28.324 81.6139 28.884 82.5519 30.004V24.46H85.7439V39.79H82.5519V38.173C81.6559 39.391 80.4869 40 79.0449 40ZM77.9109 36.43C78.4429 37.004 79.0939 37.291 79.8639 37.291C80.6339 37.291 81.2779 37.004 81.7959 36.43C82.3279 35.842 82.5939 35.079 82.5939 34.141C82.5939 33.231 82.3279 32.489 81.7959 31.915C81.2779 31.327 80.6339 31.033 79.8639 31.033C79.0939 31.033 78.4429 31.327 77.9109 31.915C77.3789 32.489 77.1129 33.245 77.1129 34.183C77.1129 35.093 77.3789 35.842 77.9109 36.43Z" fill="#F6C478"/>
<path d="M92.3338 40C91.1298 40 90.1918 39.629 89.5198 38.887C88.8478 38.145 88.5118 37.123 88.5118 35.821V28.534H91.7038V34.813C91.7038 35.555 91.8718 36.122 92.2078 36.514C92.5438 36.906 93.0198 37.102 93.6358 37.102C94.2518 37.102 94.7348 36.906 95.0848 36.514C95.4488 36.122 95.6308 35.555 95.6308 34.813V28.534H98.8228V39.79H95.6308V38.194C94.6928 39.398 93.5938 40 92.3338 40Z" fill="#F6C478"/>
<path d="M106.993 40.042C105.313 40.042 103.913 39.475 102.793 38.341C101.687 37.207 101.134 35.821 101.134 34.183C101.134 32.559 101.694 31.18 102.814 30.046C103.934 28.898 105.341 28.324 107.035 28.324C108.841 28.324 110.332 28.982 111.508 30.298L109.639 32.188C108.855 31.446 107.98 31.075 107.014 31.075C106.23 31.075 105.579 31.376 105.061 31.978C104.543 32.58 104.284 33.315 104.284 34.183C104.284 35.065 104.543 35.807 105.061 36.409C105.593 36.997 106.286 37.291 107.14 37.291C108.022 37.291 108.883 36.892 109.723 36.094L111.592 37.984C110.976 38.656 110.318 39.167 109.618 39.517C108.918 39.867 108.043 40.042 106.993 40.042Z" fill="#F6C478"/>
<path d="M116.869 40C115.763 40 114.839 39.692 114.097 39.076C113.369 38.46 113.005 37.606 113.005 36.514C113.005 35.324 113.411 34.428 114.223 33.826C115.049 33.224 116.155 32.923 117.541 32.923C118.479 32.923 119.396 33.077 120.292 33.385V33.196C120.292 31.824 119.487 31.138 117.877 31.138C116.911 31.138 115.875 31.341 114.769 31.747L113.971 29.311C115.343 28.709 116.799 28.408 118.339 28.408C120.033 28.408 121.3 28.828 122.14 29.668C122.952 30.48 123.358 31.677 123.358 33.259V39.79H120.271V38.572C119.417 39.524 118.283 40 116.869 40ZM117.835 37.795C118.577 37.795 119.179 37.613 119.641 37.249C120.103 36.871 120.334 36.395 120.334 35.821V35.254C119.732 34.974 119.053 34.834 118.297 34.834C117.597 34.834 117.051 34.974 116.659 35.254C116.281 35.52 116.092 35.912 116.092 36.43C116.092 36.85 116.253 37.186 116.575 37.438C116.897 37.676 117.317 37.795 117.835 37.795Z" fill="#F6C478"/>
<path d="M129.803 39.979C128.753 39.979 127.941 39.727 127.367 39.223C126.807 38.705 126.527 37.83 126.527 36.598V31.264H125.183V28.534H126.527V25.657H129.719V28.534H132.365V31.264H129.719V36.073C129.719 36.801 130.062 37.165 130.748 37.165C131.308 37.165 131.833 37.032 132.323 36.766V39.328C131.595 39.762 130.755 39.979 129.803 39.979Z" fill="#F6C478"/>
<path d="M134.781 27.295V24.46H138.141V27.295H134.781ZM134.865 39.79V28.534H138.057V39.79H134.865Z" fill="#F6C478"/>
<path d="M150.925 38.341C149.763 39.475 148.314 40.042 146.578 40.042C144.842 40.042 143.393 39.482 142.231 38.362C141.083 37.228 140.509 35.835 140.509 34.183C140.509 32.545 141.09 31.159 142.252 30.025C143.428 28.891 144.884 28.324 146.62 28.324C148.356 28.324 149.798 28.891 150.946 30.025C152.108 31.145 152.689 32.531 152.689 34.183C152.689 35.821 152.101 37.207 150.925 38.341ZM146.62 37.291C147.502 37.291 148.209 36.997 148.741 36.409C149.273 35.807 149.539 35.065 149.539 34.183C149.539 33.329 149.259 32.601 148.699 31.999C148.153 31.383 147.446 31.075 146.578 31.075C145.696 31.075 144.989 31.376 144.457 31.978C143.925 32.566 143.659 33.301 143.659 34.183C143.659 35.037 143.932 35.772 144.478 36.388C145.038 36.99 145.752 37.291 146.62 37.291Z" fill="#F6C478"/>
<path d="M155 39.79V28.534H158.192V30.13C159.13 28.926 160.229 28.324 161.489 28.324C162.693 28.324 163.631 28.695 164.303 29.437C164.975 30.179 165.311 31.201 165.311 32.503V39.79H162.119V33.511C162.119 32.769 161.951 32.202 161.615 31.81C161.279 31.418 160.803 31.222 160.187 31.222C159.571 31.222 159.081 31.418 158.717 31.81C158.367 32.202 158.192 32.769 158.192 33.511V39.79H155Z" fill="#F6C478"/>
</svg>
