<svg width="30" height="30" viewBox="0 0 30 30" fill="none" xmlns="http://www.w3.org/2000/svg">
<path d="M18.1128 9.30038C17.8488 9.11318 17.483 9.17517 17.2958 9.43913L17.2844 9.45513C17.0971 9.71903 17.1592 10.0848 17.4232 10.272C17.5261 10.345 17.6445 10.3802 17.7618 10.3802C17.9452 10.3802 18.1259 10.2943 18.2401 10.1333L18.2515 10.1173C18.4388 9.85339 18.3767 9.48765 18.1128 9.30038Z" fill="black"/>
<path d="M16.778 10.9611C16.5728 10.7108 16.2036 10.6744 15.9534 10.8797C15.1393 11.5474 14.2143 12.0227 13.204 12.2925C12.8913 12.376 12.7055 12.6971 12.789 13.0097C12.859 13.2718 13.0958 13.4447 13.3547 13.4447C13.4048 13.4447 13.4556 13.4382 13.5063 13.4246C14.6791 13.1114 15.7525 12.56 16.6965 11.7856C16.9468 11.5805 16.9832 11.2112 16.778 10.9611Z" fill="black"/>
<path d="M28.2422 13.2697C27.2729 13.2697 26.4844 14.0583 26.4844 15.0275V15.3205C26.4844 17.7778 24.6952 19.8237 22.3515 20.2273C22.6576 19.7759 22.8366 19.2316 22.8366 18.6462V18.2392C22.8366 16.6818 21.5695 15.4148 20.0121 15.4148C18.4547 15.4148 17.1877 16.6818 17.1877 18.2392V18.6462C17.1877 19.2167 17.3582 19.7478 17.6501 20.1923C15.3984 19.715 13.7034 17.7123 13.7034 15.3205V15.0275C13.7034 14.0583 12.9149 13.2697 11.9456 13.2697C10.9764 13.2697 10.1878 14.0583 10.1878 15.0275V15.3205C10.1878 16.5098 10.4298 17.6599 10.8967 18.7225H7.01678H6.90979V12.8217C6.90979 12.5601 6.73646 12.3302 6.48498 12.2583C3.35672 11.3637 1.17188 8.46732 1.17188 5.21484V4.92188C1.17188 4.59879 1.43473 4.33594 1.75781 4.33594C2.0809 4.33594 2.34375 4.59879 2.34375 4.92188V5.21484C2.34375 8.60725 5.10369 11.3672 8.49609 11.3672H11.316C14.7084 11.3672 17.4684 8.60725 17.4684 5.21484V4.92188C17.4684 4.59879 17.7312 4.33594 18.0543 4.33594C18.3774 4.33594 18.6403 4.59879 18.6403 4.92188V5.21484C18.6403 6.11549 18.478 6.99527 18.158 7.82959C18.0421 8.1317 18.1931 8.47061 18.4952 8.5865C18.7972 8.70246 19.1362 8.55135 19.2521 8.24924C19.6238 7.28045 19.8121 6.25951 19.8121 5.21484V4.92188C19.8121 3.95262 19.0236 3.16406 18.0543 3.16406C17.0851 3.16406 16.2965 3.95262 16.2965 4.92188V5.21484C16.2965 7.67203 14.5073 9.71795 12.1637 10.1217C12.4697 9.6702 12.6487 9.12598 12.6487 8.54068V8.13369C12.6487 6.57627 11.3817 5.30918 9.82424 5.30918C8.26682 5.30918 6.99978 6.57627 6.99978 8.13369V8.54068C6.99978 9.11109 7.17029 9.64219 7.46227 10.0867C5.21057 9.60938 3.51562 7.60664 3.51562 5.21484V4.92188C3.51562 3.95262 2.72707 3.16406 1.75781 3.16406C0.788555 3.16406 0 3.95262 0 4.92188V5.21484C0 7.09605 0.604805 8.87977 1.74896 10.373C2.76521 11.6993 4.16941 12.7095 5.73797 13.251V19.3084C5.73797 19.632 6.00029 19.8943 6.32391 19.8943H6.4309V29.4141C6.4309 29.7376 6.69322 30 7.01684 30C7.34045 30 7.60277 29.7376 7.60277 29.4141V19.8943H11.5262C11.6543 20.0935 11.7911 20.2884 11.9368 20.4786C11.9756 20.5293 12.016 20.5785 12.0559 20.6282V29.4141C12.0559 29.7376 12.3182 30 12.6418 30C12.9654 30 13.2278 29.7376 13.2278 29.4141V21.8256C14.0261 22.4947 14.9437 23.0175 15.9258 23.3566V29.4141C15.9258 29.7376 16.1882 30 16.5118 30C16.8354 30 17.0977 29.7376 17.0977 29.4141V22.9273C17.0977 22.6657 16.9244 22.4358 16.6729 22.3639C13.5446 21.4693 11.3597 18.573 11.3597 15.3205V15.0275C11.3597 14.7044 11.6226 14.4416 11.9457 14.4416C12.2688 14.4416 12.5316 14.7044 12.5316 15.0275V15.3205C12.5316 18.7129 15.2916 21.4729 18.684 21.4729H21.5039C24.8963 21.4729 27.6562 18.7129 27.6562 15.3205V15.0275C27.6562 14.7044 27.9191 14.4416 28.2422 14.4416C28.5653 14.4416 28.8281 14.7044 28.8281 15.0275V15.3205C28.8281 18.633 26.5927 21.5435 23.3919 22.3981C23.1355 22.4665 22.9571 22.6988 22.9571 22.9642V27.207C22.9571 27.5306 23.2195 27.7929 23.5431 27.7929C23.8667 27.7929 24.129 27.5306 24.129 27.207V23.4018C27.608 22.2715 30 19.0113 30 15.3205V15.0275C30 14.0583 29.2114 13.2697 28.2422 13.2697ZM8.17166 8.13363C8.17166 7.22232 8.91299 6.481 9.82424 6.481C10.7355 6.481 11.4769 7.22232 11.4769 8.13363V8.54062C11.4769 9.45187 10.7355 10.1932 9.82424 10.1932C8.91299 10.1932 8.17166 9.45187 8.17166 8.54062V8.13363ZM21.6647 18.6462C21.6647 19.5575 20.9234 20.2988 20.0121 20.2988C19.1009 20.2988 18.3595 19.5575 18.3595 18.6462V18.2392C18.3595 17.328 19.1009 16.5867 20.0121 16.5867C20.9234 16.5867 21.6647 17.328 21.6647 18.2392V18.6462Z" fill="black"/>
<path d="M23.9572 28.9998C23.8482 28.8908 23.6971 28.8281 23.543 28.8281C23.3889 28.8281 23.2377 28.8908 23.1287 28.9998C23.0197 29.1088 22.957 29.26 22.957 29.4141C22.957 29.5682 23.0197 29.7193 23.1287 29.8283C23.2377 29.9372 23.3889 30 23.543 30C23.6971 30 23.8482 29.9373 23.9572 29.8283C24.0662 29.7193 24.1289 29.5682 24.1289 29.4141C24.1289 29.26 24.0662 29.1088 23.9572 28.9998Z" fill="black"/>
<path d="M9.82422 21.9141C9.50061 21.9141 9.23828 22.1764 9.23828 22.5V29.4141C9.23828 29.7376 9.50061 30 9.82422 30C10.1478 30 10.4102 29.7376 10.4102 29.4141V22.5C10.4102 22.1764 10.1478 21.9141 9.82422 21.9141Z" fill="black"/>
<path d="M27.3047 4.80469C26.9811 4.80469 26.7188 5.06707 26.7188 5.39062V6.11895C26.7188 6.4425 26.9811 6.70488 27.3047 6.70488C27.6283 6.70488 27.8906 6.4425 27.8906 6.11895V5.39062C27.8906 5.06707 27.6283 4.80469 27.3047 4.80469Z" fill="black"/>
<path d="M27.3047 8.29504C26.9811 8.29504 26.7188 8.55743 26.7188 8.88098V9.6093C26.7188 9.93286 26.9811 10.1952 27.3047 10.1952C27.6283 10.1952 27.8906 9.93286 27.8906 9.6093V8.88098C27.8906 8.55743 27.6283 8.29504 27.3047 8.29504Z" fill="black"/>
<path d="M29.4139 6.91406H28.6855C28.3619 6.91406 28.0996 7.17645 28.0996 7.5C28.0996 7.82355 28.3619 8.08594 28.6855 8.08594H29.4139C29.7375 8.08594 29.9998 7.82355 29.9998 7.5C29.9998 7.17645 29.7375 6.91406 29.4139 6.91406Z" fill="black"/>
<path d="M25.9236 6.91406H25.1953C24.8717 6.91406 24.6094 7.17645 24.6094 7.5C24.6094 7.82355 24.8717 8.08594 25.1953 8.08594H25.9236C26.2472 8.08594 26.5096 7.82355 26.5096 7.5C26.5096 7.17645 26.2472 6.91406 25.9236 6.91406Z" fill="black"/>
<path d="M12.8833 0C12.5597 0 12.2974 0.262383 12.2974 0.585938V1.31426C12.2974 1.63781 12.5597 1.9002 12.8833 1.9002C13.2069 1.9002 13.4692 1.63781 13.4692 1.31426V0.585938C13.4692 0.262383 13.2069 0 12.8833 0Z" fill="black"/>
<path d="M12.8833 3.49036C12.5597 3.49036 12.2974 3.75274 12.2974 4.07629V4.80461C12.2974 5.12817 12.5597 5.39055 12.8833 5.39055C13.2069 5.39055 13.4692 5.12817 13.4692 4.80461V4.07629C13.4692 3.75274 13.2069 3.49036 12.8833 3.49036Z" fill="black"/>
<path d="M14.9925 2.10938H14.2642C13.9405 2.10938 13.6782 2.37176 13.6782 2.69531C13.6782 3.01887 13.9405 3.28125 14.2642 3.28125H14.9925C15.3161 3.28125 15.5784 3.01887 15.5784 2.69531C15.5784 2.37176 15.3161 2.10938 14.9925 2.10938Z" fill="black"/>
<path d="M11.5022 2.10938H10.7739C10.4503 2.10938 10.188 2.37176 10.188 2.69531C10.188 3.01887 10.4503 3.28125 10.7739 3.28125H11.5022C11.8259 3.28125 12.0882 3.01887 12.0882 2.69531C12.0882 2.37176 11.8259 2.10938 11.5022 2.10938Z" fill="black"/>
</svg>
