<svg width="30" height="30" viewBox="0 0 30 30" fill="none" xmlns="http://www.w3.org/2000/svg">
<path d="M14.9995 4.22047C15.269 3.83736 15.4187 3.37756 15.4187 2.90163V0.93757C15.4187 0.727965 15.5448 0.539117 15.7388 0.458723C15.9328 0.378323 16.1554 0.422443 16.3043 0.571277L16.3943 0.66127C17.6435 1.91003 18.3312 3.5704 18.3312 5.33679V6.78335C18.3312 7.97283 18.0091 9.13305 17.4039 10.1533L24.6025 19.7513C25.3951 20.8081 25.8312 22.1171 25.8317 23.4376V23.701C25.8317 25.1661 25.3067 26.5862 24.3525 27.6992L22.8942 29.4003L22.8942 29.4003C22.793 29.5181 22.6478 29.5813 22.5 29.5813C22.4232 29.5813 22.3454 29.5642 22.2728 29.5289L22.2728 29.5289C22.0606 29.4257 21.945 29.1923 21.9911 28.9609L21.9911 28.9609L22.278 27.5274C22.3922 26.9574 22.45 26.3729 22.45 25.7907C22.45 23.7764 21.7689 21.8219 20.5324 20.2633L20.5716 20.2323L20.5324 20.2633L19.2451 18.6403L15 16.5175L10.7549 18.6403L9.46761 20.2633L9.42844 20.2323L9.46761 20.2633C8.23103 21.822 7.55 23.776 7.55 25.7663C7.55 26.3729 7.60781 26.957 7.72153 27.5274L14.9995 4.22047ZM14.9995 4.22047C14.7302 3.83841 14.5812 3.38026 14.5812 2.90163V0.93757C14.5812 0.727959 14.4547 0.538668 14.2612 0.458273L14.2611 0.458236C14.0668 0.377901 13.8442 0.421913 13.6957 0.570808L14.9995 4.22047ZM14.7676 15.4733C14.9139 15.4002 15.0861 15.4002 15.2319 15.4733L14.7676 15.4733ZM14.7676 15.4733L12.2791 16.7174L15 13.2876L17.7204 16.7178L15.232 15.4733L14.7676 15.4733ZM8.0084 28.9609L7.72153 27.5275L13.6957 0.57087L13.6057 0.660802C12.3565 1.90956 11.6687 3.57041 11.6687 5.33679V6.78335C11.6687 7.96965 11.9974 9.13574 12.598 10.1509L5.3975 19.7513C4.60491 20.8081 4.16875 22.1171 4.16875 23.4376V23.7005C4.16875 25.1661 4.6938 26.5857 5.64798 27.6987L7.10622 29.3998C7.20736 29.518 7.35215 29.5813 7.5 29.5813C7.57686 29.5813 7.65418 29.5642 7.72669 29.5289L7.72672 29.5289C7.9389 29.4257 8.05457 29.1923 8.00841 28.9609L8.0084 28.9609ZM16.4562 2.90163V2.39403C17.0017 3.26863 17.2937 4.28024 17.2937 5.33679V6.78335C17.2937 6.87316 17.291 6.96279 17.2859 7.05225C17.1152 6.38124 16.7399 5.77423 16.1954 5.32041L16.1954 5.32038L15.7478 4.94799C16.2007 4.36706 16.4562 3.6486 16.4562 2.90163ZM12.7062 5.33679C12.7062 4.28024 12.9983 3.26863 13.5437 2.39403V2.90163C13.5437 3.89288 13.9807 4.8257 14.7425 5.46097L14.7425 5.461L15.5314 6.11768C16.0553 6.55491 16.3562 7.1971 16.3562 7.87976V10.3126C16.3562 10.4246 16.3925 10.5341 16.46 10.6239L17.5213 12.0387L16.0394 12.9279L13.9137 10.2473L13.9137 10.2473C13.1351 9.26611 12.7062 8.03581 12.7062 6.78335V5.33679ZM8.69344 19.6496L8.65426 19.6185C7.27331 21.3599 6.5125 23.5435 6.5125 25.7907C6.5125 26.274 6.54806 26.7589 6.61884 27.2372L6.43594 27.0238L6.43592 27.0238C5.64261 26.0986 5.20625 24.9186 5.20625 23.7005V23.4376C5.20625 22.3403 5.56884 21.252 6.2275 20.3738L11.8531 12.8733L13.3106 13.748L8.65426 19.6185L8.69344 19.6496ZM23.5645 27.0238L23.5645 27.0238L23.3814 27.2378C23.4519 26.7574 23.4875 26.2678 23.4875 25.7663C23.4875 23.543 22.7267 21.3599 21.3457 19.6185L16.6894 13.7475L18.1469 12.8729L23.7725 20.3738C24.4307 21.252 24.7937 22.3403 24.7937 23.4376V23.7005C24.7937 24.9186 24.3574 26.0986 23.5645 27.0238ZM14.3381 12.4529L13.9611 12.9279L12.4792 12.0387L13.2231 11.0469L14.3381 12.4529Z" fill="black" stroke="black" stroke-width="0.1"/>
<path d="M13.125 6.98125H13.075V7.03125V7.96875V8.01875H13.125H14.0625H14.1125V7.96875V7.03125V6.98125H14.0625H13.125Z" fill="black" stroke="black" stroke-width="0.1"/>
<path d="M15 8.85631H14.95V8.90631V9.84381V9.89381H15H15.9375H15.9875V9.84381V8.90631V8.85631H15.9375H15Z" fill="black" stroke="black" stroke-width="0.1"/>
</svg>
