<svg width="30" height="30" viewBox="0 0 30 30" fill="none" xmlns="http://www.w3.org/2000/svg">
<path d="M15.5859 23.7891C15.5859 24.1127 15.3236 24.375 15 24.375C14.6764 24.375 14.4141 24.1127 14.4141 23.7891C14.4141 23.4654 14.6764 23.2031 15 23.2031C15.3236 23.2031 15.5859 23.4654 15.5859 23.7891Z" fill="white"/>
<path d="M28.0664 18.5156C28.0664 16.577 26.4894 15 24.5508 15C22.6122 15 21.0352 16.577 21.0352 18.5156C21.0352 20.4543 22.6122 22.0312 24.5508 22.0312C26.4894 22.0312 28.0664 20.4543 28.0664 18.5156ZM24.5508 20.8594C23.2585 20.8594 22.207 19.8079 22.207 18.5156C22.207 17.2234 23.2585 16.1719 24.5508 16.1719C25.843 16.1719 26.8945 17.2234 26.8945 18.5156C26.8945 19.8079 25.843 20.8594 24.5508 20.8594Z" fill="white"/>
<path d="M24.5508 22.0312C23.0743 22.0312 21.6019 22.6442 20.5989 23.638C19.2787 21.9031 17.243 20.8594 15 20.8594C12.8519 20.8594 10.7705 21.8394 9.40132 23.638C8.39813 22.6444 6.92596 22.0312 5.44922 22.0312C2.4955 22.0312 0 24.4462 0 27.3047V28.4766C0 28.8002 0.262299 29.0625 0.585938 29.0625H29.4141C29.7377 29.0625 30 28.8002 30 28.4766V27.3047C30 24.4462 27.5045 22.0312 24.5508 22.0312ZM1.17188 27.3047C1.17188 25.0813 3.13065 23.2031 5.44922 23.2031C6.71791 23.2031 7.97607 23.7653 8.75496 24.6588C8.23997 25.6535 7.96875 26.7622 7.96875 27.8906H1.17188V27.3047ZM15 22.0312C18.2604 22.0312 20.8594 24.6767 20.8594 27.8906H9.14062C9.14062 24.6339 11.7927 22.0312 15 22.0312ZM28.8281 27.8906H22.0312C22.0312 26.7622 21.76 25.6535 21.245 24.6588C22.0239 23.7653 23.2821 23.2031 24.5508 23.2031C26.8694 23.2031 28.8281 25.0813 28.8281 27.3047V27.8906Z" fill="white"/>
<path d="M8.96484 18.5156C8.96484 16.577 7.38785 15 5.44922 15C3.51059 15 1.93359 16.577 1.93359 18.5156C1.93359 20.4543 3.51059 22.0312 5.44922 22.0312C7.38785 22.0312 8.96484 20.4543 8.96484 18.5156ZM5.44922 20.8594C4.15695 20.8594 3.10547 19.8079 3.10547 18.5156C3.10547 17.2234 4.15695 16.1719 5.44922 16.1719C6.74149 16.1719 7.79297 17.2234 7.79297 18.5156C7.79297 19.8079 6.74149 20.8594 5.44922 20.8594Z" fill="white"/>
<path d="M19.6875 16.1719C19.6875 13.5871 17.5848 11.4844 15 11.4844C12.4152 11.4844 10.3125 13.5871 10.3125 16.1719C10.3125 18.7566 12.4152 20.8594 15 20.8594C17.5848 20.8594 19.6875 18.7566 19.6875 16.1719ZM15 19.6875C13.0614 19.6875 11.4844 18.1105 11.4844 16.1719C11.4844 14.2332 13.0614 12.6562 15 12.6562C16.9386 12.6562 18.5156 14.2332 18.5156 16.1719C18.5156 18.1105 16.9386 19.6875 15 19.6875Z" fill="white"/>
<path d="M19.6371 4.34532C19.5682 4.13315 19.3849 3.97865 19.164 3.94661L16.6367 3.57971L15.5051 1.26617C15.4069 1.06499 15.2027 0.9375 14.9789 0.9375C14.755 0.9375 14.5509 1.06499 14.4525 1.26595L13.3211 3.57971L10.7938 3.94638C10.5729 3.97842 10.3896 4.13315 10.3207 4.34532C10.2518 4.5575 10.3092 4.79027 10.469 4.94591L12.2991 6.72958L11.8672 9.24843C11.8295 9.46815 11.9199 9.6904 12.1005 9.82132C12.2799 9.95178 12.5189 9.97032 12.7175 9.86595L14.9789 8.67691L17.2412 9.86595C17.4384 9.96986 17.6776 9.95247 17.8582 9.82132C18.0386 9.69017 18.129 9.46815 18.0912 9.2482L17.6589 6.72958L19.4888 4.94591C19.6485 4.79027 19.706 4.5575 19.6371 4.34532ZM16.62 6.10542C16.4819 6.24001 16.4188 6.4341 16.4515 6.62407L16.7351 8.27637L15.2515 7.49634C15.0807 7.40662 14.8768 7.40662 14.7061 7.49634L13.2229 8.27637L13.5063 6.62407C13.5388 6.43387 13.4756 6.24001 13.3376 6.10542L12.1373 4.93561L13.7956 4.69482C13.9874 4.66713 14.1528 4.54628 14.2378 4.37233L14.9789 2.85713L15.7198 4.37233C15.8049 4.54651 15.9704 4.66713 16.162 4.69482L17.8205 4.93561L16.62 6.10542Z" fill="white"/>
<path d="M28.3951 8.73688C28.3262 8.5247 28.1429 8.37021 27.922 8.33817L26.2098 8.08937L25.4441 6.53755C25.3455 6.33751 25.142 6.21094 24.9189 6.21094C24.9189 6.21094 24.9189 6.21094 24.9186 6.21094C24.6957 6.21094 24.492 6.33751 24.3933 6.53755L23.6273 8.08937L21.9148 8.33817C21.6941 8.37021 21.5108 8.5247 21.4419 8.73688C21.3728 8.94905 21.4302 9.18182 21.59 9.33746L22.8289 10.5457L22.5364 12.2509C22.4989 12.4706 22.5891 12.6926 22.7697 12.8238C22.95 12.9549 23.1892 12.9723 23.3865 12.8687L24.9186 12.0637L26.4503 12.8687C26.6476 12.9723 26.887 12.9549 27.0674 12.8238C27.2477 12.6929 27.3379 12.4706 27.3004 12.2509L27.0079 10.5457L28.247 9.33746C28.4068 9.18182 28.464 8.94905 28.3951 8.73688ZM25.9694 9.9218C25.8312 10.0564 25.7682 10.2502 25.801 10.4402L25.9447 11.2788L25.1915 10.8831C25.0207 10.7934 24.8168 10.7934 24.6463 10.8831L23.8923 11.2791L24.0363 10.4402C24.0688 10.2502 24.0058 10.0564 23.8678 9.9218L23.2581 9.32716L24.1006 9.20494C24.2915 9.17725 24.4565 9.05731 24.5419 8.88451L24.9186 8.12119L25.2951 8.88428C25.3805 9.05731 25.5455 9.17725 25.7364 9.20494L26.5789 9.32716L25.9694 9.9218Z" fill="white"/>
<path d="M8.47324 8.73688C8.40435 8.5247 8.22101 8.37021 8.00014 8.33816L6.28788 8.08937L5.52227 6.53755C5.42362 6.33751 5.22014 6.21094 4.99698 6.21094C4.77382 6.21094 4.57012 6.33751 4.47147 6.53755L3.7054 8.08937L1.99291 8.33816C1.77226 8.37021 1.58893 8.5247 1.52004 8.73688C1.45091 8.94905 1.50836 9.18182 1.66812 9.33746L2.90706 10.5457L2.61478 12.2509C2.57701 12.4706 2.66742 12.6926 2.84778 12.8238C3.02814 12.9549 3.26732 12.9723 3.46485 12.8687L4.99675 12.0637L6.52843 12.8687C6.7271 12.973 6.96605 12.9543 7.1455 12.8238C7.32586 12.6929 7.41627 12.4706 7.3785 12.2509L7.08599 10.5457L8.32516 9.33746C8.48492 9.18182 8.54214 8.94905 8.47324 8.73688ZM6.04732 9.9218C5.90931 10.0564 5.84636 10.2502 5.87887 10.4402L6.02283 11.2788L5.26935 10.8831C5.09884 10.7934 4.8949 10.7934 4.72438 10.8831L3.97022 11.2791L4.11419 10.4402C4.14692 10.2502 4.08374 10.0564 3.94573 9.9218L3.33599 9.32716L4.17873 9.20494C4.36939 9.17725 4.53441 9.05731 4.61979 8.88451L4.99653 8.12118L5.37304 8.88428C5.45841 9.05731 5.62343 9.17725 5.81432 9.20494L6.65684 9.32716L6.04732 9.9218Z" fill="white"/>
<path d="M17.5674 23.9703C17.2969 23.7924 16.9337 23.8677 16.756 24.1383C16.5782 24.4086 16.6535 24.7718 16.924 24.9497C17.4658 25.3056 17.8989 25.8018 18.1763 26.3845C18.315 26.6763 18.6642 26.8011 18.957 26.6617C19.2493 26.5228 19.3733 26.173 19.2344 25.881C18.865 25.1046 18.2884 24.4438 17.5674 23.9703Z" fill="white"/>
</svg>
